<svg width="125" height="180" viewBox="0 0 125 180" fill="none" xmlns="http://www.w3.org/2000/svg">
<ellipse cx="54.8102" cy="8.8889" rx="54.8102" ry="8.8889" transform="matrix(-1 0 0 1 120.2 162.222)" fill="#585858" fill-opacity="0.5"/>
<path d="M36.8413 64.5581C38.049 64.4714 39.2429 64.4175 40.3953 64.3988C41.229 64.3847 41.8384 64.4034 42.0129 64.4058C43.3674 64.4316 46.1929 64.3941 52.4393 64.1504C53.0459 65.1135 55.0265 68.5088 53.5999 71.7166C53.0875 72.8718 52.3673 73.474 52.2039 73.6076C50.0986 75.3158 46.9851 74.9338 46.4117 74.8542C44.3093 75.3931 42.4533 75.7727 41.0212 76.0141C39.6113 76.2531 38.2124 76.4312 36.8662 76.5436C30.7749 77.1529 25.1629 76.8225 18.6478 76.3773C18.4622 76.3656 17.8971 76.0633 17.4428 76.2929C16.8389 76.5999 16.7531 77.5887 16.8085 78.5283C15.4262 78.7392 13.9387 79.2102 13.5149 80.3373C12.8058 82.2213 15.5482 84.6746 14.9055 85.476C14.6008 85.8556 13.562 85.8415 10.5759 84.4192C10.1105 83.5639 9.66457 82.4954 9.42912 81.2418C8.54825 76.5366 11.3349 72.9515 12.0607 72.0798C13.454 71.2878 14.6562 70.6833 15.5371 70.2591C20.9525 67.6441 28.0991 65.1861 36.8413 64.5581Z" fill="#EBBEAA"/>
<path d="M117.388 111.655C116.305 116.882 113.338 126.276 104.205 134.147C89.7569 146.599 65.9347 150.015 43.2094 143.22C34.8689 135.534 26.5256 127.849 18.1851 120.161C17.1131 118.176 14.958 113.464 15.9303 107.449C17.2239 99.4536 23.1545 94.6336 24.8858 93.3214C28.5671 92.5177 32.2485 91.7163 35.9298 90.9126C52.0458 101.401 64.065 102.626 72.2532 101.637C85.7903 99.9996 93.5131 91.4843 111.355 92.3771C121.457 92.8809 123.587 95.8216 124.019 96.4871C126.402 100.147 123.764 106.183 117.388 111.655Z" fill="#CC0000"/>
<path d="M31.8469 98.9047C25.2238 106.961 13.7365 109.89 6.18818 105.449C-1.35737 101.009 -2.10803 90.8792 4.51786 82.8233C11.141 74.7673 22.6283 71.8383 30.1766 76.2787C37.7221 80.7191 38.4728 90.8488 31.8469 98.9047Z" fill="#CC0000"/>
<path d="M45.5531 83.1608C45.5531 86.2914 40.639 88.8314 34.5782 88.8314C28.5174 88.8314 23.6006 86.2937 23.6006 83.1608C23.6006 80.0303 28.5146 77.4902 34.5782 77.4902C40.639 77.4902 45.5531 80.0303 45.5531 83.1608Z" fill="#CC0000"/>
<path d="M43.9772 83.2196C43.9772 85.2628 40.8803 86.9172 37.0577 86.9172C33.235 86.9172 30.1382 85.2628 30.1382 83.2196C30.1382 81.1786 33.235 79.522 37.0577 79.522C40.8775 79.5243 43.9772 81.1786 43.9772 83.2196Z" fill="#230603"/>
<path d="M32.232 78.0572C10.3904 89.0961 3.91127 89.3258 1.9861 87.5543C-0.626032 85.1502 3.90566 77.912 5.1771 75.8828C7.60641 72.0047 11.213 66.2498 17.0744 65.8187C22.8914 65.3922 29.5534 70.3082 32.232 78.0572Z" fill="#BFD3D8"/>
<path d="M21.4618 92.2409C22.146 94.7458 18.3178 97.635 12.9079 98.6941C7.49804 99.7532 2.5563 98.5816 1.8721 96.0767C1.18791 93.5718 5.01611 90.6826 10.426 89.6235C15.8358 88.5644 20.7776 89.736 21.4618 92.2409Z" fill="#BFD3D8"/>
<path d="M26.143 158.877C39.9254 158.877 51.0982 149.426 51.0982 137.767C51.0982 126.109 39.9254 116.657 26.143 116.657C12.3607 116.657 1.18799 126.109 1.18799 137.767C1.18799 149.426 12.3607 158.877 26.143 158.877Z" fill="#230603"/>
<path d="M41.4368 137.767C41.4368 144.912 34.5892 150.704 26.1434 150.704C17.6976 150.704 10.8501 144.912 10.8501 137.767C10.8501 130.623 17.6976 124.831 26.1434 124.831C34.5892 124.831 41.4368 130.623 41.4368 137.767Z" fill="#BFD3D8"/>
<path d="M100.045 158.877C113.827 158.877 125 149.426 125 137.767C125 126.109 113.827 116.657 100.045 116.657C86.2626 116.657 75.0898 126.109 75.0898 137.767C75.0898 149.426 86.2626 158.877 100.045 158.877Z" fill="#230603"/>
<path d="M115.339 137.767C115.339 144.912 108.491 150.704 100.045 150.704C91.5994 150.704 84.752 144.912 84.752 137.767C84.752 130.623 91.5994 124.831 100.045 124.831C108.491 124.831 115.339 130.623 115.339 137.767Z" fill="#BFD3D8"/>
<path d="M92.5989 83.5941C81.1643 88.0696 69.7268 92.5428 58.27 97.0418C51.7937 78.5163 45.3229 60.012 38.8244 41.51C38.2926 39.9681 37.733 38.431 37.2012 36.8892C37.9906 36.3854 38.8078 35.9003 39.6 35.4176C42.0155 33.9016 44.4143 32.43 46.8353 30.9351C46.9295 32.1371 47.2314 33.9859 48.4225 35.9706C48.9599 36.9032 49.5942 37.6531 50.1538 38.26C55.5387 40.8164 61.7214 44.3429 67.8487 49.2613C83.1614 61.514 89.7264 75.5452 92.5989 83.5941Z" fill="#EBBEAA"/>
<path d="M54.6191 24.0695C54.2064 24.6928 53.7355 25.2412 53.2618 25.6559C52.8269 26.0355 51.658 26.9728 50.4835 28.4818C50.1151 28.9551 49.7494 29.4964 49.3976 30.0775C48.3866 31.7881 47.9268 33.3346 47.6802 34.3633C44.1512 36.5495 40.9103 37.8757 38.5586 38.6865C36.8135 39.2723 34.1403 40.0901 30.8634 39.9706C27.6114 39.844 26.8801 38.9255 26.6834 38.642C26.4175 38.1968 26.3926 37.7492 26.412 37.4024C26.3317 37.0158 26.1378 36.4839 25.6364 36.3128C25.2153 36.1418 24.8912 36.3972 24.52 36.2121C24.0103 35.9543 23.8331 35.1412 24.1655 34.8389C24.4009 34.6327 24.6946 34.8179 25.2209 34.5929C25.6502 34.3984 25.966 34.054 25.9245 33.9532C25.8414 33.8853 25.5339 34.1149 24.9411 34.1782C24.2126 34.2344 23.653 33.993 23.4591 33.9134C23.135 33.7821 22.8442 33.6627 22.7195 33.4283C22.4536 32.9152 22.9217 32.2989 23.0879 32.0458C24.8829 29.4425 23.4398 25.1849 22.9273 24.4046C22.8442 24.2687 22.4398 23.6853 22.0409 22.8487C21.9079 22.5933 21.7888 22.3098 21.6725 21.9583C20.8526 19.7229 21.0797 17.8132 21.2126 16.7048C21.268 16.2573 21.3318 15.8285 21.4371 15.4325C21.9329 13.2603 22.8885 11.5451 23.7001 10.3922C24.7527 8.71447 26.8053 6.14865 30.423 4.3022C37.1237 3.85933 38.7801 1.95664 42.2205 1.95899C46.9379 3.15168 51.2287 5.65191 53.7826 9.28389C54.0042 9.55804 54.1704 9.82749 54.3283 10.0782C57.295 14.9732 56.1287 19.9361 54.6191 24.0695Z" fill="#EBBEAA"/>
<path d="M24.2215 31.4926C23.9833 31.3544 23.6232 31.1833 23.1496 31.1037C22.6537 31.0193 22.4598 31.1458 22.0277 31.017C21.867 30.9677 21.4904 30.8319 21.2106 30.4991C21.1663 30.4452 20.8532 30.0609 20.9058 29.5923C20.9723 29.0158 21.554 28.6315 21.7756 28.4699C22.277 28.1067 22.9418 27.3217 23.6149 25.4495C24.0055 26.4289 24.3961 27.4061 24.7867 28.3855C24.5983 29.4189 24.4099 30.4569 24.2215 31.4926Z" fill="#EBBEAA"/>
<path d="M21.8083 24.6974C21.7031 24.6974 21.5978 24.6553 21.5285 24.5779C21.415 24.4467 21.4482 24.2639 21.6006 24.1679C22.1102 23.8515 22.9495 23.4626 24.0825 23.411C25.4093 23.3454 26.4785 23.814 26.9688 24.0976C27.1295 24.189 27.1683 24.3717 27.0603 24.5053C26.9523 24.6412 26.7362 24.6717 26.5783 24.5826C26.16 24.3366 25.2819 23.9242 24.1185 23.9968C23.1102 24.0437 22.3651 24.4209 22.0105 24.6389C21.9524 24.6787 21.8776 24.6974 21.8083 24.6974Z" fill="#230603"/>
<path d="M25.0493 25.0839C25.1767 25.8923 24.7529 26.607 24.1047 26.6819C23.4565 26.7546 22.825 26.1571 22.7004 25.3487C22.5729 24.5403 22.9968 23.8256 23.6449 23.7506C24.2931 23.678 24.9219 24.2755 25.0493 25.0839Z" fill="#230603"/>
<path d="M27.6113 21.7006C27.5448 21.9115 26.6917 21.7077 24.279 21.86C22.6364 21.9631 22.0519 22.1201 21.9633 21.9443C21.8276 21.6725 22.9494 20.7633 24.3067 20.5923C26.0241 20.372 27.711 21.3867 27.6113 21.7006Z" fill="#230603"/>
<path d="M87.8796 151.901C89.4308 150.758 90.9848 149.612 92.536 148.468C90.4419 142.601 84.8686 130.367 70.4561 122.496C67.5504 120.91 64.6612 119.705 61.9161 118.782C60.5505 121.929 59.185 125.076 57.8193 128.225C59.8941 129.688 61.5976 130.672 62.7971 131.311C63.3621 131.611 63.93 131.937 64.7388 132.443C66.1183 133.308 67.0878 134.336 67.6141 134.894C67.747 135.035 67.8413 135.14 67.8939 135.199C69.2595 136.701 74.4755 141.19 87.8796 151.901Z" fill="#EBBEAA"/>
<path d="M83.4858 163.551L99.6821 151.268C99.599 150.509 99.3303 149.457 98.4412 148.541C97.4495 147.522 96.1892 147.196 95.3166 146.875C93.7543 146.303 91.7017 145.122 89.7405 142.418C87.4359 143.932 85.134 145.448 82.8293 146.961C83.7573 150.807 83.2421 153.672 82.5052 155.669C81.5053 158.38 79.677 160.646 80.918 162.267C81.5191 163.052 82.616 163.39 83.4858 163.551Z" fill="#EBBEAA"/>
<path d="M100.97 150.292L81.4 165.136C80.4942 164.241 79.9319 163.369 79.5745 162.61C76.9236 157.003 82.2836 151.107 83.001 150.343C81.9124 150.395 80.8238 150.446 79.7352 150.496C79.5053 148.377 80.015 147.642 80.5551 147.379C82.0482 146.65 83.9844 149.429 87.4137 149.197C89.012 149.09 89.2087 148.443 93.095 147.215C94.5105 146.768 95.6989 146.47 96.4773 146.29C97.9731 147.625 99.4716 148.958 100.97 150.292Z" fill="#E7CD3B"/>
<path d="M51.3279 32.0787C51.1146 32.7043 50.9567 33.8033 50.0592 34.129C48.3999 34.7335 45.0344 32.5333 43.4417 29.8315C41.1398 25.9231 43.076 21.8693 41.6882 21.4686C40.558 21.1406 39.306 23.861 37.2478 23.8329C35.1786 23.8048 33.4972 21.1125 32.2923 18.4295C26.1982 16.808 21.2842 13.7923 21.0681 10.4649C20.7496 5.5957 30.5472 1.14359 38.7714 1.26309C45.292 1.35682 51.8154 4.35847 55.2641 9.24641C55.7183 9.8908 58.5771 14.0664 57.8181 19.1746C57.1062 23.9922 53.9705 24.3109 51.3279 32.0787Z" fill="#1C1B19"/>
<path d="M44.5664 23.0129C44.9293 25.328 43.5886 27.39 41.5693 27.6173C39.5499 27.8446 37.6165 26.1504 37.2536 23.8353C36.8907 21.5202 38.2314 19.4582 40.2508 19.2309C42.2701 19.0036 44.2036 20.6954 44.5664 23.0129Z" fill="#EBBEAA"/>
<path d="M41.2061 27.931C40.6991 27.931 40.2005 27.8279 39.713 27.6241C39.544 27.5514 39.472 27.378 39.5551 27.2304C39.6437 27.0851 39.8543 27.0265 40.0205 27.0968C40.5135 27.3054 41.0232 27.3827 41.5246 27.3265C42.6049 27.2046 43.5245 26.4595 43.9816 25.3301C44.0425 25.1777 44.2447 25.0957 44.422 25.1496C44.5993 25.2035 44.6991 25.3699 44.6354 25.5222C44.0924 26.8625 42.9623 27.7553 41.6133 27.9076C41.4775 27.9217 41.3418 27.931 41.2061 27.931Z" fill="#230603"/>
<path d="M44.4886 25.164C44.2283 25.1242 44.1091 24.9695 44.1507 24.8125C44.2642 24.3509 44.303 23.8659 44.2587 23.3738C44.2449 23.2145 44.3889 23.0739 44.58 23.0598C44.7712 23.0598 44.9374 23.1699 44.9512 23.3316C44.9983 23.8776 44.9568 24.4165 44.8266 24.932C44.7934 25.0703 44.6493 25.164 44.4886 25.164Z" fill="#230603"/>
<path d="M44.4749 22.8558C44.3142 22.8558 44.1729 22.762 44.1369 22.6238C43.6383 20.6649 42.0124 19.3386 40.2977 19.5214C39.9265 19.5635 39.5748 19.6737 39.2507 19.8588C39.0872 19.9432 38.8739 19.908 38.7687 19.7768C38.6634 19.6409 38.7077 19.4581 38.8656 19.3691C39.2811 19.1371 39.7326 18.9941 40.2035 18.9402C42.2811 18.6942 44.2367 20.2407 44.8101 22.5019C44.8516 22.6589 44.7325 22.8159 44.5441 22.8487C44.522 22.8534 44.4971 22.8558 44.4749 22.8558Z" fill="#230603"/>
<path d="M40.4614 25.806C40.1899 25.7567 40.0763 25.5974 40.1262 25.4404L41.3534 21.3937C41.4005 21.239 41.5721 21.1359 41.7743 21.1828C41.9572 21.225 42.0707 21.382 42.0236 21.539L40.7965 25.5857C40.7578 25.7193 40.6165 25.806 40.4614 25.806Z" fill="#230603"/>
<path d="M41.0235 23.4509C40.9238 23.4509 40.8241 23.4134 40.7549 23.3431L39.6856 22.2277C39.5637 22.1012 39.5859 21.9161 39.7355 21.8153C39.8878 21.7099 40.1039 21.7333 40.223 21.8575L41.2922 22.9729C41.4141 23.0994 41.3919 23.2845 41.2424 23.3852C41.1787 23.4321 41.1011 23.4509 41.0235 23.4509Z" fill="#230603"/>
<path d="M93.0919 94.3302C88.6987 99.9305 84.347 105.498 79.9538 111.098C79.5466 111.635 79.1088 112.157 78.7017 112.694C77.6961 113.99 76.6574 115.272 75.627 116.572C74.7876 117.652 73.9317 118.758 73.073 119.864C72.6824 120.375 72.2697 120.891 71.857 121.408C71.1949 122.47 70.3445 124.176 69.7517 126.355C68.9983 129.193 69.375 130.373 68.4415 131.074C67.4 131.845 64.8017 131.857 57.8157 128.225C57.6218 127.447 57.3476 126.175 57.3393 124.576C57.2617 120.616 58.7658 118.407 60.353 112.736C60.3697 112.621 60.4084 112.502 60.45 112.38C60.7408 111.314 61.1093 109.831 61.4527 108.017C62.7768 103.338 64.8515 98.1333 68.1589 92.6689C70.6575 88.5449 73.3971 85.1003 76.0092 82.2393C81.6989 86.2555 87.4023 90.314 93.0919 94.3302Z" fill="#EBBEAA"/>
<path d="M79.9428 111.059C79.5494 111.637 79.1089 112.16 78.7017 112.697C77.6962 113.992 76.6575 115.274 75.627 116.575C74.7877 117.655 73.9318 118.761 73.0731 119.867C68.8432 117.385 64.6549 114.871 60.4473 112.383C66.943 111.904 73.4581 111.487 79.9428 111.059Z" fill="#230603"/>
<path d="M75.0901 122.852C78.4972 125.734 81.9044 128.616 85.3115 131.499C81.0651 135.562 76.8214 139.625 72.575 143.69C69.0543 141.898 57.3758 135.473 56.1542 125.12C56.0268 124.035 56.0074 122.852 56.1542 121.577C57.6667 113.475 59.1791 105.372 60.6887 97.2689C70.7966 90.6774 80.9044 84.0836 91.0122 77.4922C91.7933 77.9866 96.2531 80.9062 96.8819 86.0871C97.2808 89.3629 95.8431 91.9592 94.9955 93.4096C88.7713 104.052 76.2258 121.294 75.0901 122.852Z" fill="#E7CD3B"/>
<path d="M98.7986 80.5714C96.4994 83.6832 91.6464 89.2928 83.0759 93.5106C70.7576 99.5702 58.697 98.8461 54.4755 98.4243C49.29 80.7565 44.1044 63.0864 38.9189 45.4162C42.0879 42.2669 45.254 39.12 48.4229 35.9707C57.1789 40.9289 67.8463 47.9726 78.4666 57.7017C87.3556 65.842 93.9566 73.8019 98.7986 80.5714Z" fill="#230603"/>
<path d="M72.9103 123.476C72.7413 123.476 72.5944 123.372 72.5667 123.227C72.539 123.068 72.6692 122.918 72.8576 122.892L74.6997 122.655C74.8936 122.637 75.0653 122.742 75.093 122.902C75.1207 123.061 74.9905 123.211 74.8021 123.237L72.96 123.473C72.9462 123.476 72.9269 123.476 72.9103 123.476Z" fill="#230603"/>
<path d="M74.1951 124.657C74.1065 124.657 74.0179 124.626 73.9486 124.57C73.8129 124.453 73.8156 124.268 73.9513 124.155L74.9707 123.307C75.112 123.192 75.328 123.199 75.461 123.309C75.5967 123.426 75.5939 123.611 75.4582 123.724L74.4389 124.572C74.3724 124.628 74.281 124.657 74.1951 124.657Z" fill="#230603"/>
<path d="M20.7502 30.722C17.5785 30.722 15.0024 28.5404 15.0024 25.8598C15.0024 23.1815 17.5813 21 20.7502 21C23.9191 21 26.4952 23.1815 26.4952 25.8598C26.4952 28.5404 23.9191 30.722 20.7502 30.722ZM20.7502 21.5858C17.9608 21.5858 15.6949 23.5025 15.6949 25.8598C15.6949 28.2194 17.9608 30.1362 20.7502 30.1362C23.5368 30.1362 25.8027 28.2194 25.8027 25.8598C25.8027 23.5025 23.5368 21.5858 20.7502 21.5858Z" fill="#230603"/>
<path d="M26.1494 26.1524C25.9942 26.1524 25.8557 26.0658 25.8142 25.9322C25.7643 25.7775 25.8751 25.6158 26.0635 25.576L37.127 23.1391C37.307 23.0922 37.5009 23.1883 37.548 23.35C37.5978 23.5046 37.487 23.6663 37.2987 23.7062L26.2352 26.1431C26.2075 26.1501 26.1798 26.1524 26.1494 26.1524Z" fill="#230603"/>
<path d="M35.5421 11.4301C35.5421 14.1459 30.6031 16.3485 24.5091 16.3485C18.415 16.3485 13.4761 14.1459 13.4761 11.4301C13.4761 8.71434 18.415 6.51172 24.5091 6.51172C30.6031 6.51172 35.5421 8.71434 35.5421 11.4301Z" fill="#1C1B19"/>
<path d="M35.0439 6.14159C35.0439 8.09817 31.4845 9.68451 27.094 9.68451C22.7035 9.68451 19.144 8.09817 19.144 6.14159C19.144 4.18501 22.7035 2.59863 27.094 2.59863C31.4845 2.59863 35.0439 4.18501 35.0439 6.14159Z" fill="#1C1B19"/>
<path d="M42.3589 3.54292C42.3589 5.4995 38.7994 7.08588 34.4089 7.08588C30.0185 7.08588 26.459 5.4995 26.459 3.54292C26.459 1.58634 30.0185 0 34.4089 0C38.7994 0 42.3589 1.58634 42.3589 3.54292Z" fill="#1C1B19"/>
<path d="M76.608 65.5304C74.3615 61.4907 71.4501 57.1276 67.5998 52.6685C66.5444 51.5062 65.4448 50.3159 64.226 49.1044C63.9517 48.8068 63.6443 48.5444 63.334 48.2843C61.3119 46.309 59.3147 44.5258 57.2289 42.916C54.1652 42.8106 50.9354 43.9306 48.8329 45.9106C46.797 47.8204 46.6224 49.7957 46.5864 50.3534C50.0767 53.9385 53.6112 57.5494 57.1042 61.1345C60.9213 65.1086 64.7744 69.0475 68.6691 73.0122C71.3172 70.519 73.9626 68.0235 76.608 65.5304Z" fill="#EBBEAA"/>
<path d="M67.5998 52.6659C66.5444 51.5037 65.4447 50.3133 64.2259 49.1019C63.9517 48.8043 63.6442 48.5418 63.334 48.2817L56.3701 55.8269C56.5889 57.5984 56.8853 59.3628 57.1041 61.1343C60.5944 58.3247 64.1151 55.4777 67.5998 52.6659Z" fill="#230603"/>
<path d="M69.4971 48.4975C64.403 45.2334 59.3063 41.9716 54.2122 38.7075C53.1153 39.1574 48.5613 41.1539 46.7774 45.5989C45.9713 47.6071 46.0184 49.4066 46.1736 50.5548C49.733 54.1774 53.2952 57.8 56.8547 61.4226C61.0707 57.1158 65.2839 52.8066 69.4971 48.4975Z" fill="#E7CD3B"/>
<path d="M61.0101 65.938C62.2178 65.8513 63.409 65.7974 64.5641 65.7787C65.3978 65.7646 66.0072 65.781 66.1817 65.7857C67.5363 65.8114 70.3617 65.774 76.6053 65.5303C77.2119 66.4933 79.1925 69.8886 77.766 73.0965C77.2535 74.254 76.5333 74.8539 76.3699 74.9875C74.2647 76.6957 71.1511 76.3137 70.5778 76.2341C68.4753 76.773 66.6194 77.1526 65.1873 77.394C63.7773 77.633 62.3757 77.8111 61.0322 77.9235C54.9409 78.5328 49.3289 78.2024 42.8138 77.7572C42.6282 77.7431 42.0631 77.4431 41.6088 77.6728C41.005 77.9774 40.9191 78.9686 40.9773 79.9082C39.595 80.1191 38.1075 80.5901 37.6837 81.7172C36.9746 83.6011 39.7169 86.0545 39.0742 86.8558C38.7695 87.2354 37.7308 87.2214 34.7447 85.799C34.2794 84.9438 33.8334 83.8776 33.5979 82.6216C32.7171 77.9165 35.5065 74.3314 36.2295 73.4597C37.6228 72.6677 38.825 72.0631 39.7059 71.639C45.124 69.024 52.2706 66.566 61.0101 65.938Z" fill="#EBBEAA"/>
<path d="M34.2542 77.0446C33.9855 76.9977 33.872 76.8384 33.9191 76.6837C34.3235 75.2801 35.0354 74.0125 36.0382 72.9135C39.2514 69.3776 44.3565 68.8597 45.8468 68.7871C46.0158 68.7918 46.2014 68.9019 46.2125 69.0636C46.2236 69.2229 46.0767 69.3635 45.8856 69.3729C44.4729 69.4409 39.6226 69.9306 36.5866 73.2697C35.6448 74.3054 34.9745 75.5004 34.5922 76.822C34.5534 76.9555 34.4121 77.0446 34.2542 77.0446Z" fill="#230603"/>
<path d="M16.7091 107.657C16.5568 107.657 16.4183 107.57 16.374 107.439C16.3241 107.284 16.4321 107.122 16.6205 107.08C19.975 106.314 23.058 105.039 25.7837 103.293C32.0883 99.2468 34.6394 93.7496 35.6006 90.8346C35.6505 90.6776 35.8417 90.5745 36.0245 90.6308C36.2073 90.6753 36.3153 90.8346 36.2655 90.9893C35.2849 93.9769 32.67 99.61 26.1992 103.76C23.4043 105.552 20.2436 106.858 16.7977 107.647C16.77 107.654 16.7396 107.657 16.7091 107.657Z" fill="#230603"/>
<path d="M82.1342 113.264C81.9625 113.264 81.8157 113.159 81.7908 113.013C81.7631 112.854 81.896 112.704 82.0871 112.681C84.2034 112.43 95.0398 110.755 100.652 102.624C102.707 99.6477 103.801 96.1563 103.815 92.5361C103.815 92.3744 103.97 92.2432 104.161 92.2432C104.353 92.2432 104.508 92.3767 104.508 92.5361C104.494 96.2618 103.369 99.8516 101.253 102.919C95.4774 111.282 84.353 113.002 82.1841 113.262C82.1675 113.264 82.1508 113.264 82.1342 113.264Z" fill="#230603"/>
<path d="M57.3809 113.177C55.4751 112.645 53.7937 111.935 52.2674 111.045C45.7274 107.223 43.6305 101.114 42.9657 97.8149C42.9325 97.6556 43.0599 97.5032 43.2482 97.4751C43.456 97.4494 43.6166 97.5525 43.6499 97.7142C44.298 100.924 46.3313 106.862 52.6663 110.564C54.1372 111.422 55.7632 112.111 57.4945 112.608C57.6745 112.657 57.7743 112.826 57.7106 112.978C57.6579 113.097 57.5249 113.177 57.3809 113.177Z" fill="#230603"/>
</svg>
