<svg width="125" height="180" viewBox="0 0 125 180" fill="none" xmlns="http://www.w3.org/2000/svg">
<ellipse cx="59.6105" cy="171.111" rx="54.8102" ry="8.8889" fill="#585858" fill-opacity="0.5"/>
<path d="M88.1587 64.5581C86.951 64.4714 85.7571 64.4175 84.6047 64.3988C83.771 64.3847 83.1616 64.4034 82.9871 64.4058C81.6326 64.4316 78.8071 64.3941 72.5607 64.1504C71.9541 65.1135 69.9735 68.5088 71.4001 71.7166C71.9125 72.8718 72.6327 73.474 72.7961 73.6076C74.9014 75.3158 78.0149 74.9338 78.5883 74.8542C80.6907 75.3931 82.5467 75.7727 83.9788 76.0141C85.3887 76.2531 86.7876 76.4312 88.1338 76.5436C94.2251 77.1529 99.8371 76.8225 106.352 76.3773C106.538 76.3656 107.103 76.0633 107.557 76.2929C108.161 76.5999 108.247 77.5887 108.192 78.5283C109.574 78.7392 111.061 79.2102 111.485 80.3373C112.194 82.2213 109.452 84.6746 110.094 85.476C110.399 85.8556 111.438 85.8415 114.424 84.4192C114.889 83.5639 115.335 82.4954 115.571 81.2418C116.452 76.5366 113.665 72.9515 112.939 72.0798C111.546 71.2878 110.344 70.6833 109.463 70.2591C104.048 67.6441 96.9009 65.1861 88.1587 64.5581Z" fill="#EBBEAA"/>
<path d="M7.61214 111.655C8.69522 116.882 11.6619 126.276 20.7947 134.147C35.2431 146.599 59.0653 150.015 81.7906 143.22C90.1311 135.534 98.4744 127.849 106.815 120.161C107.887 118.176 110.042 113.464 109.07 107.449C107.776 99.4536 101.846 94.6336 100.114 93.3214C96.4329 92.5177 92.7515 91.7163 89.0702 90.9126C72.9542 101.401 60.935 102.626 52.7468 101.637C39.2097 99.9996 31.4869 91.4843 13.6452 92.3771C3.54292 92.8809 1.4128 95.8216 0.980667 96.4871C-1.40155 100.147 1.23554 106.183 7.61214 111.655Z" fill="#CC0000"/>
<path d="M93.1531 98.9047C99.7762 106.961 111.264 109.89 118.812 105.449C126.357 101.009 127.108 90.8792 120.482 82.8233C113.859 74.7673 102.372 71.8383 94.8234 76.2787C87.2779 80.7191 86.5272 90.8488 93.1531 98.9047Z" fill="#CC0000"/>
<path d="M79.4469 83.1608C79.4469 86.2914 84.361 88.8314 90.4218 88.8314C96.4826 88.8314 101.399 86.2937 101.399 83.1608C101.399 80.0303 96.4854 77.4902 90.4218 77.4902C84.361 77.4902 79.4469 80.0303 79.4469 83.1608Z" fill="#CC0000"/>
<path d="M81.0228 83.2196C81.0228 85.2628 84.1197 86.9172 87.9423 86.9172C91.765 86.9172 94.8618 85.2628 94.8618 83.2196C94.8618 81.1786 91.765 79.522 87.9423 79.522C84.1225 79.5243 81.0228 81.1786 81.0228 83.2196Z" fill="#230603"/>
<path d="M92.768 78.0572C114.61 89.0961 121.089 89.3258 123.014 87.5543C125.626 85.1502 121.094 77.912 119.823 75.8828C117.394 72.0047 113.787 66.2498 107.926 65.8187C102.109 65.3922 95.4466 70.3082 92.768 78.0572Z" fill="#BFD3D8"/>
<path d="M103.538 92.2409C102.854 94.7458 106.682 97.635 112.092 98.6941C117.502 99.7532 122.444 98.5816 123.128 96.0767C123.812 93.5718 119.984 90.6826 114.574 89.6235C109.164 88.5644 104.222 89.736 103.538 92.2409Z" fill="#BFD3D8"/>
<path d="M98.857 158.877C85.0746 158.877 73.9018 149.426 73.9018 137.767C73.9018 126.109 85.0746 116.657 98.857 116.657C112.639 116.657 123.812 126.109 123.812 137.767C123.812 149.426 112.639 158.877 98.857 158.877Z" fill="#230603"/>
<path d="M83.5632 137.767C83.5632 144.912 90.4108 150.704 98.8566 150.704C107.302 150.704 114.15 144.912 114.15 137.767C114.15 130.623 107.302 124.831 98.8566 124.831C90.4108 124.831 83.5632 130.623 83.5632 137.767Z" fill="#BFD3D8"/>
<path d="M24.955 158.877C11.1727 158.877 -0.000141144 149.426 -0.000141144 137.767C-0.000141144 126.109 11.1727 116.657 24.955 116.657C38.7374 116.657 49.9102 126.109 49.9102 137.767C49.9102 149.426 38.7374 158.877 24.955 158.877Z" fill="#230603"/>
<path d="M9.66147 137.767C9.66147 144.912 16.509 150.704 24.9548 150.704C33.4006 150.704 40.248 144.912 40.248 137.767C40.248 130.623 33.4006 124.831 24.9548 124.831C16.509 124.831 9.66147 130.623 9.66147 137.767Z" fill="#BFD3D8"/>
<path d="M32.4011 83.5941C43.8357 88.0696 55.2732 92.5428 66.73 97.0418C73.2063 78.5163 79.6771 60.012 86.1756 41.51C86.7074 39.9681 87.267 38.431 87.7988 36.8892C87.0094 36.3854 86.1922 35.9003 85.4 35.4176C82.9845 33.9016 80.5857 32.43 78.1647 30.9351C78.0705 32.1371 77.7686 33.9859 76.5775 35.9706C76.0401 36.9032 75.4058 37.6531 74.8462 38.26C69.4613 40.8164 63.2786 44.3429 57.1513 49.2613C41.8386 61.514 35.2736 75.5452 32.4011 83.5941Z" fill="#EBBEAA"/>
<path d="M70.3809 24.0695C70.7936 24.6928 71.2645 25.2412 71.7382 25.6559C72.1731 26.0355 73.342 26.9728 74.5165 28.4818C74.8849 28.9551 75.2506 29.4964 75.6024 30.0775C76.6134 31.7881 77.0732 33.3346 77.3198 34.3633C80.8488 36.5495 84.0897 37.8757 86.4414 38.6865C88.1865 39.2723 90.8597 40.0901 94.1366 39.9706C97.3886 39.844 98.1199 38.9255 98.3166 38.642C98.5825 38.1968 98.6074 37.7492 98.588 37.4024C98.6683 37.0158 98.8622 36.4839 99.3636 36.3128C99.7847 36.1418 100.109 36.3972 100.48 36.2121C100.99 35.9543 101.167 35.1412 100.835 34.8389C100.599 34.6327 100.305 34.8179 99.7791 34.5929C99.3498 34.3984 99.034 34.054 99.0755 33.9532C99.1586 33.8853 99.4661 34.1149 100.059 34.1782C100.787 34.2344 101.347 33.993 101.541 33.9134C101.865 33.7821 102.156 33.6627 102.28 33.4283C102.546 32.9152 102.078 32.2989 101.912 32.0458C100.117 29.4425 101.56 25.1849 102.073 24.4046C102.156 24.2687 102.56 23.6853 102.959 22.8487C103.092 22.5933 103.211 22.3098 103.328 21.9583C104.147 19.7229 103.92 17.8132 103.787 16.7048C103.732 16.2573 103.668 15.8285 103.563 15.4325C103.067 13.2603 102.111 11.5451 101.3 10.3922C100.247 8.71447 98.1947 6.14865 94.577 4.3022C87.8763 3.85933 86.2199 1.95664 82.7795 1.95899C78.0621 3.15168 73.7713 5.65191 71.2174 9.28389C70.9958 9.55804 70.8296 9.82749 70.6717 10.0782C67.705 14.9732 68.8713 19.9361 70.3809 24.0695Z" fill="#EBBEAA"/>
<path d="M100.778 31.4929C101.017 31.3546 101.377 31.1836 101.85 31.1039C102.346 31.0195 102.54 31.1461 102.972 31.0172C103.133 30.968 103.51 30.8321 103.789 30.4994C103.834 30.4455 104.147 30.0612 104.094 29.5925C104.028 29.0161 103.446 28.6318 103.224 28.4701C102.723 28.1069 102.058 27.3219 101.385 25.4497C100.995 26.4292 100.604 27.4063 100.213 28.3858C100.402 29.4191 100.59 30.4572 100.778 31.4929Z" fill="#EBBEAA"/>
<path d="M103.192 24.6974C103.297 24.6974 103.402 24.6553 103.471 24.5779C103.585 24.4467 103.552 24.2639 103.399 24.1679C102.89 23.8515 102.05 23.4626 100.918 23.411C99.5907 23.3454 98.5215 23.814 98.0312 24.0976C97.8705 24.189 97.8317 24.3717 97.9397 24.5053C98.0477 24.6412 98.2638 24.6717 98.4217 24.5826C98.84 24.3366 99.7181 23.9242 100.882 23.9968C101.89 24.0437 102.635 24.4209 102.989 24.6389C103.048 24.6787 103.122 24.6974 103.192 24.6974Z" fill="#230603"/>
<path d="M99.9507 25.0839C99.8233 25.8923 100.247 26.607 100.895 26.6819C101.543 26.7546 102.175 26.1571 102.3 25.3487C102.427 24.5403 102.003 23.8256 101.355 23.7506C100.707 23.678 100.078 24.2755 99.9507 25.0839Z" fill="#230603"/>
<path d="M97.3887 21.7004C97.4552 21.9113 98.3083 21.7074 100.721 21.8597C102.364 21.9628 102.948 22.1198 103.037 21.9441C103.172 21.6723 102.051 20.7631 100.693 20.592C98.9759 20.3718 97.289 21.3864 97.3887 21.7004Z" fill="#230603"/>
<path d="M37.1204 151.901C35.5692 150.758 34.0152 149.612 32.464 148.468C34.5581 142.601 40.1314 130.367 54.5439 122.496C57.4496 120.91 60.3388 119.705 63.0839 118.782C64.4495 121.929 65.815 125.076 67.1807 128.225C65.1059 129.688 63.4024 130.672 62.2029 131.311C61.6379 131.611 61.07 131.937 60.2612 132.443C58.8817 133.308 57.9122 134.336 57.3859 134.894C57.253 135.035 57.1587 135.14 57.1061 135.199C55.7405 136.701 50.5245 141.19 37.1204 151.901Z" fill="#EBBEAA"/>
<path d="M41.5142 163.551L25.3179 151.268C25.401 150.509 25.6697 149.457 26.5588 148.541C27.5505 147.522 28.8108 147.196 29.6834 146.875C31.2457 146.303 33.2983 145.122 35.2595 142.418C37.5641 143.932 39.866 145.448 42.1707 146.961C41.2427 150.807 41.7579 153.672 42.4948 155.669C43.4947 158.38 45.323 160.646 44.082 162.267C43.4809 163.052 42.384 163.39 41.5142 163.551Z" fill="#EBBEAA"/>
<path d="M24.0298 150.292L43.6 165.136C44.5058 164.241 45.0681 163.369 45.4255 162.61C48.0764 157.003 42.7164 151.107 41.999 150.343C43.0876 150.395 44.1762 150.446 45.2648 150.496C45.4947 148.377 44.985 147.642 44.4449 147.379C42.9518 146.65 41.0156 149.429 37.5863 149.197C35.988 149.09 35.7913 148.443 31.905 147.215C30.4895 146.768 29.3011 146.47 28.5227 146.29C27.0269 147.625 25.5284 148.958 24.0298 150.292Z" fill="#E7CD3B"/>
<path d="M73.6721 32.0787C73.8854 32.7043 74.0433 33.8033 74.9408 34.129C76.6001 34.7335 79.9656 32.5333 81.5583 29.8315C83.8602 25.9231 81.924 21.8693 83.3118 21.4686C84.442 21.1406 85.694 23.861 87.7522 23.8329C89.8214 23.8048 91.5028 21.1125 92.7077 18.4295C98.8018 16.808 103.716 13.7923 103.932 10.4649C104.25 5.5957 94.4528 1.14359 86.2286 1.26309C79.708 1.35682 73.1846 4.35847 69.7359 9.24641C69.2817 9.8908 66.4229 14.0664 67.1819 19.1746C67.8938 23.9922 71.0295 24.3109 73.6721 32.0787Z" fill="#1C1B19"/>
<path d="M80.4336 23.0129C80.0707 25.328 81.4114 27.39 83.4307 27.6173C85.4501 27.8446 87.3835 26.1504 87.7464 23.8353C88.1093 21.5202 86.7686 19.4582 84.7492 19.2309C82.7299 19.0036 80.7964 20.6954 80.4336 23.0129Z" fill="#EBBEAA"/>
<path d="M83.7939 27.9313C84.3009 27.9313 84.7995 27.8282 85.287 27.6243C85.456 27.5517 85.528 27.3783 85.4449 27.2307C85.3563 27.0854 85.1457 27.0268 84.9795 27.0971C84.4865 27.3056 83.9768 27.383 83.4754 27.3267C82.3951 27.2049 81.4755 26.4597 81.0184 25.3303C80.9575 25.178 80.7553 25.096 80.578 25.1499C80.4007 25.2038 80.3009 25.3701 80.3646 25.5224C80.9076 26.8628 82.0377 27.7555 83.3867 27.9078C83.5225 27.9219 83.6582 27.9313 83.7939 27.9313Z" fill="#230603"/>
<path d="M80.5114 25.1638C80.7717 25.1239 80.8909 24.9693 80.8493 24.8123C80.7358 24.3507 80.697 23.8656 80.7413 23.3736C80.7551 23.2142 80.6111 23.0736 80.42 23.0596C80.2288 23.0596 80.0626 23.1697 80.0488 23.3314C80.0017 23.8773 80.0432 24.4163 80.1734 24.9318C80.2066 25.07 80.3507 25.1638 80.5114 25.1638Z" fill="#230603"/>
<path d="M80.5251 22.8558C80.6858 22.8558 80.8271 22.762 80.8631 22.6238C81.3617 20.6649 82.9876 19.3386 84.7023 19.5214C85.0735 19.5635 85.4252 19.6737 85.7493 19.8588C85.9128 19.9432 86.1261 19.908 86.2313 19.7768C86.3366 19.6409 86.2923 19.4581 86.1344 19.3691C85.7189 19.1371 85.2674 18.9941 84.7965 18.9402C82.7189 18.6942 80.7633 20.2407 80.1899 22.5019C80.1484 22.6589 80.2675 22.8159 80.4559 22.8487C80.478 22.8534 80.5029 22.8558 80.5251 22.8558Z" fill="#230603"/>
<path d="M84.5386 25.806C84.8101 25.7567 84.9237 25.5974 84.8738 25.4404L83.6466 21.3937C83.5995 21.239 83.4279 21.1359 83.2257 21.1828C83.0428 21.225 82.9293 21.382 82.9764 21.539L84.2035 25.5857C84.2422 25.7193 84.3835 25.806 84.5386 25.806Z" fill="#230603"/>
<path d="M83.9765 23.4509C84.0762 23.4509 84.1759 23.4134 84.2451 23.3431L85.3144 22.2277C85.4363 22.1012 85.4141 21.9161 85.2645 21.8153C85.1122 21.7099 84.8961 21.7333 84.777 21.8575L83.7078 22.9729C83.5859 23.0994 83.6081 23.2845 83.7576 23.3852C83.8213 23.4321 83.8989 23.4509 83.9765 23.4509Z" fill="#230603"/>
<path d="M31.9081 94.3302C36.3013 99.9305 40.653 105.498 45.0462 111.098C45.4534 111.635 45.8912 112.157 46.2983 112.694C47.3039 113.99 48.3426 115.272 49.373 116.572C50.2124 117.652 51.0683 118.758 51.927 119.864C52.3176 120.375 52.7303 120.891 53.143 121.408C53.8051 122.47 54.6555 124.176 55.2483 126.355C56.0017 129.193 55.625 130.373 56.5585 131.074C57.6 131.845 60.1983 131.857 67.1843 128.225C67.3782 127.447 67.6524 126.175 67.6607 124.576C67.7383 120.616 66.2342 118.407 64.647 112.736C64.6303 112.621 64.5916 112.502 64.55 112.38C64.2592 111.314 63.8907 109.831 63.5473 108.017C62.2232 103.338 60.1485 98.1333 56.8411 92.6689C54.3425 88.5449 51.6029 85.1003 48.9908 82.2393C43.3011 86.2555 37.5977 90.314 31.9081 94.3302Z" fill="#EBBEAA"/>
<path d="M45.0572 111.059C45.4506 111.637 45.8911 112.16 46.2983 112.697C47.3038 113.992 48.3425 115.274 49.373 116.575C50.2123 117.655 51.0682 118.761 51.9269 119.867C56.1568 117.385 60.3451 114.871 64.5527 112.383C58.057 111.904 51.5419 111.487 45.0572 111.059Z" fill="#230603"/>
<path d="M49.9099 122.852C46.5028 125.734 43.0956 128.616 39.6885 131.499C43.9349 135.562 48.1786 139.625 52.425 143.69C55.9457 141.898 67.6242 135.473 68.8458 125.12C68.9732 124.035 68.9926 122.852 68.8458 121.577C67.3333 113.475 65.8209 105.372 64.3113 97.2689C54.2034 90.6774 44.0956 84.0836 33.9878 77.4922C33.2067 77.9866 28.7469 80.9062 28.1181 86.0871C27.7192 89.3629 29.1569 91.9592 30.0045 93.4096C36.2287 104.052 48.7742 121.294 49.9099 122.852Z" fill="#E7CD3B"/>
<path d="M26.2014 80.5714C28.5006 83.6832 33.3536 89.2928 41.9241 93.5106C54.2424 99.5702 66.303 98.8461 70.5245 98.4243C75.71 80.7565 80.8956 63.0864 86.0811 45.4162C82.9121 42.2669 79.746 39.12 76.5771 35.9707C67.8211 40.9289 57.1537 47.9726 46.5334 57.7017C37.6444 65.842 31.0434 73.8019 26.2014 80.5714Z" fill="#230603"/>
<path d="M52.0897 123.476C52.2587 123.476 52.4056 123.372 52.4333 123.227C52.461 123.068 52.3308 122.918 52.1424 122.892L50.3003 122.655C50.1064 122.637 49.9347 122.742 49.907 122.902C49.8793 123.061 50.0095 123.211 50.1979 123.237L52.04 123.473C52.0538 123.476 52.0731 123.476 52.0897 123.476Z" fill="#230603"/>
<path d="M50.8049 124.657C50.8935 124.657 50.9821 124.626 51.0514 124.57C51.1871 124.453 51.1844 124.268 51.0487 124.155L50.0293 123.307C49.888 123.192 49.672 123.199 49.539 123.309C49.4033 123.426 49.4061 123.611 49.5418 123.724L50.5611 124.572C50.6276 124.628 50.719 124.657 50.8049 124.657Z" fill="#230603"/>
<path d="M104.25 30.722C107.421 30.722 109.998 28.5404 109.998 25.8598C109.998 23.1815 107.419 21 104.25 21C101.081 21 98.5048 23.1815 98.5048 25.8598C98.5048 28.5404 101.081 30.722 104.25 30.722ZM104.25 21.5858C107.039 21.5858 109.305 23.5025 109.305 25.8598C109.305 28.2194 107.039 30.1362 104.25 30.1362C101.463 30.1362 99.1973 28.2194 99.1973 25.8598C99.1973 23.5025 101.463 21.5858 104.25 21.5858Z" fill="#230603"/>
<path d="M98.8506 26.1527C99.0058 26.1527 99.1443 26.066 99.1858 25.9324C99.2357 25.7778 99.1249 25.6161 98.9365 25.5763L87.873 23.1393C87.693 23.0925 87.4991 23.1885 87.452 23.3502C87.4022 23.5049 87.513 23.6666 87.7013 23.7064L98.7648 26.1433C98.7925 26.1504 98.8202 26.1527 98.8506 26.1527Z" fill="#230603"/>
<path d="M89.4579 11.4301C89.4579 14.1459 94.3969 16.3485 100.491 16.3485C106.585 16.3485 111.524 14.1459 111.524 11.4301C111.524 8.71434 106.585 6.51172 100.491 6.51172C94.3969 6.51172 89.4579 8.71434 89.4579 11.4301Z" fill="#1C1B19"/>
<path d="M89.9561 6.14159C89.9561 8.09817 93.5155 9.68451 97.906 9.68451C102.296 9.68451 105.856 8.09817 105.856 6.14159C105.856 4.18501 102.296 2.59863 97.906 2.59863C93.5155 2.59863 89.9561 4.18501 89.9561 6.14159Z" fill="#1C1B19"/>
<path d="M82.6411 3.54292C82.6411 5.4995 86.2006 7.08588 90.5911 7.08588C94.9815 7.08588 98.541 5.4995 98.541 3.54292C98.541 1.58634 94.9815 0 90.5911 0C86.2006 0 82.6411 1.58634 82.6411 3.54292Z" fill="#1C1B19"/>
<path d="M48.392 65.5304C50.6385 61.4907 53.5499 57.1276 57.4002 52.6685C58.4556 51.5062 59.5552 50.3159 60.774 49.1044C61.0483 48.8068 61.3557 48.5444 61.666 48.2843C63.6881 46.309 65.6853 44.5258 67.7711 42.916C70.8348 42.8106 74.0646 43.9306 76.1671 45.9106C78.203 47.8204 78.3776 49.7957 78.4136 50.3534C74.9233 53.9385 71.3888 57.5494 67.8958 61.1345C64.0787 65.1086 60.2256 69.0475 56.3309 73.0122C53.6828 70.519 51.0374 68.0235 48.392 65.5304Z" fill="#EBBEAA"/>
<path d="M57.4002 52.6659C58.4556 51.5037 59.5553 50.3133 60.7741 49.1019C61.0483 48.8043 61.3558 48.5418 61.666 48.2817L68.6299 55.8269C68.4111 57.5984 68.1147 59.3628 67.8959 61.1343C64.4056 58.3247 60.8849 55.4777 57.4002 52.6659Z" fill="#230603"/>
<path d="M55.5029 48.4975C60.597 45.2334 65.6937 41.9716 70.7878 38.7075C71.8847 39.1574 76.4387 41.1539 78.2226 45.5989C79.0287 47.6071 78.9816 49.4066 78.8264 50.5548C75.267 54.1774 71.7048 57.8 68.1453 61.4226C63.9293 57.1158 59.7161 52.8066 55.5029 48.4975Z" fill="#1C1B19"/>
<path d="M63.9899 65.938C62.7822 65.8513 61.591 65.7974 60.4359 65.7787C59.6022 65.7646 58.9928 65.781 58.8183 65.7857C57.4637 65.8114 54.6383 65.774 48.3947 65.5303C47.7881 66.4933 45.8075 69.8886 47.234 73.0965C47.7465 74.254 48.4667 74.8539 48.6301 74.9875C50.7353 76.6957 53.8489 76.3137 54.4222 76.2341C56.5247 76.773 58.3806 77.1526 59.8127 77.394C61.2227 77.633 62.6243 77.8111 63.9678 77.9235C70.0591 78.5328 75.6711 78.2024 82.1862 77.7572C82.3718 77.7431 82.9369 77.4431 83.3912 77.6728C83.995 77.9774 84.0809 78.9686 84.0227 79.9082C85.405 80.1191 86.8925 80.5901 87.3163 81.7172C88.0254 83.6011 85.2831 86.0545 85.9258 86.8558C86.2305 87.2354 87.2692 87.2214 90.2553 85.799C90.7206 84.9438 91.1666 83.8776 91.4021 82.6216C92.2829 77.9165 89.4935 74.3314 88.7705 73.4597C87.3772 72.6677 86.175 72.0631 85.2941 71.639C79.876 69.024 72.7294 66.566 63.9899 65.938Z" fill="#EBBEAA"/>
<path d="M90.7458 77.0446C91.0145 76.9977 91.128 76.8384 91.0809 76.6837C90.6765 75.2801 89.9646 74.0125 88.9618 72.9135C85.7486 69.3776 80.6435 68.8597 79.1532 68.7871C78.9842 68.7918 78.7986 68.9019 78.7875 69.0636C78.7764 69.2229 78.9233 69.3635 79.1144 69.3729C80.5271 69.4409 85.3774 69.9306 88.4134 73.2697C89.3552 74.3054 90.0255 75.5004 90.4078 76.822C90.4466 76.9555 90.5879 77.0446 90.7458 77.0446Z" fill="#230603"/>
<path d="M108.291 107.657C108.443 107.657 108.582 107.57 108.626 107.439C108.676 107.284 108.568 107.122 108.38 107.08C105.025 106.314 101.942 105.039 99.2163 103.293C92.9117 99.2468 90.3606 93.7496 89.3994 90.8346C89.3495 90.6776 89.1583 90.5745 88.9755 90.6308C88.7927 90.6753 88.6847 90.8346 88.7345 90.9893C89.7151 93.9769 92.33 99.61 98.8008 103.76C101.596 105.552 104.756 106.858 108.202 107.647C108.23 107.654 108.26 107.657 108.291 107.657Z" fill="#230603"/>
<path d="M42.8658 113.264C43.0375 113.264 43.1843 113.159 43.2092 113.013C43.2369 112.854 43.104 112.704 42.9129 112.681C40.7966 112.43 29.9602 110.755 24.3482 102.624C22.2928 99.6477 21.1987 96.1563 21.1848 92.5361C21.1848 92.3744 21.0297 92.2432 20.8386 92.2432C20.6474 92.2432 20.4923 92.3767 20.4923 92.5361C20.5062 96.2618 21.6308 99.8516 23.7471 102.919C29.5226 111.282 40.647 113.002 42.8159 113.262C42.8325 113.264 42.8492 113.264 42.8658 113.264Z" fill="#230603"/>
<path d="M67.6191 113.177C69.5249 112.645 71.2063 111.935 72.7326 111.045C79.2726 107.223 81.3695 101.114 82.0343 97.8149C82.0675 97.6556 81.9401 97.5032 81.7518 97.4751C81.544 97.4494 81.3834 97.5525 81.3501 97.7142C80.702 100.924 78.6687 106.862 72.3337 110.564C70.8628 111.422 69.2368 112.111 67.5055 112.608C67.3255 112.657 67.2257 112.826 67.2894 112.978C67.3421 113.097 67.4751 113.177 67.6191 113.177Z" fill="#230603"/>
</svg>
