<svg width="140" height="215" viewBox="0 0 140 215" fill="none" xmlns="http://www.w3.org/2000/svg">
<path d="M58.923 47.9216C56.39 49.925 57.495 51.7142 54.5175 54.8634C51.7562 57.7832 49.8953 57.2071 47.8368 59.414C44.7053 62.7664 43.9778 69.4841 46.4695 72.238C51.3174 77.5962 73.1006 73.2023 80.5045 60.24C85.3861 51.6944 85.5505 36.7429 81.4891 25.1731C80.1483 21.352 77.9714 16.84 80.0477 14.3603C83.1047 10.7076 92.4616 14.9211 93.2323 13.1248C93.9682 11.4085 86.8774 4.17355 81.1145 5.55535C73.7036 7.33112 67.2934 23.6413 69.0533 35.5536C69.4814 38.4454 70.505 42.6902 68.1445 44.978C65.7535 47.2893 62.3138 45.2351 58.923 47.9216Z" fill="#230603"/>
<path d="M50.8949 74.6346C48.1316 74.428 46.0086 73.6436 44.838 72.3459C42.2569 69.4922 42.9744 62.5566 46.2089 59.0878C47.2136 58.0148 48.1658 57.574 49.1722 57.1088C50.2952 56.5903 51.4617 56.0517 52.8922 54.5374C54.3397 53.0062 54.7938 51.8016 55.1981 50.7381C55.6097 49.6466 56.0008 48.6182 57.3343 47.5621C59.1658 46.1139 61.0219 45.9838 62.6568 45.8707C64.1601 45.7659 65.4607 45.6743 66.5306 44.6399C68.5129 42.7168 67.9537 39.267 67.5039 36.4899C67.4485 36.1444 67.3924 35.8093 67.3456 35.4903C65.5543 23.3662 72.2242 6.90997 79.6537 5.13042C83.8615 4.12624 88.6116 7.49893 90.7781 10.0139C91.4527 10.7987 92.5307 12.2497 92.1473 13.139C91.7351 14.0986 90.0102 13.8403 87.6199 13.4781C84.4993 13.0069 80.6169 12.4245 78.9146 14.4563C77.2524 16.4421 78.5504 19.9239 79.8044 23.2938C80.0137 23.8576 80.2207 24.4161 80.4133 24.9579C84.6407 37.0056 84.216 51.8652 79.4039 60.2868C74.5223 68.8324 63.4208 73.6627 55.1688 74.5326C53.6215 74.7014 52.1867 74.7312 50.8949 74.6346ZM81.7833 5.61541C81.1166 5.56557 80.451 5.60635 79.8003 5.76198C72.6349 7.47594 66.2327 23.541 67.986 35.4011C68.0331 35.7175 68.0868 36.0499 68.1423 36.3928C68.6154 39.3139 69.2052 42.9496 66.9833 45.1004C65.741 46.303 64.2642 46.4046 62.7002 46.5152C61.0838 46.6271 59.412 46.7452 57.7391 48.0681C56.5451 49.0106 56.2187 49.8731 55.8043 50.967C55.3828 52.0861 54.9003 53.3558 53.3673 54.9789C51.8489 56.5823 50.5737 57.1748 49.448 57.6931C48.4606 58.1494 47.606 58.5458 46.6893 59.5271C43.6459 62.7878 42.9308 69.2711 45.3232 71.9168C46.8809 73.6416 50.5367 74.3803 55.0933 73.8961C63.1843 73.0425 74.0604 68.3195 78.8275 59.9747C83.5557 51.6943 83.961 37.0582 79.7897 25.1725C79.5995 24.6334 79.3922 24.0774 79.1852 23.519C77.8654 19.9786 76.5021 16.3187 78.403 14.0483C80.3386 11.7339 84.4227 12.3495 87.7091 12.846C89.4032 13.0968 91.3223 13.3851 91.5372 12.8918C91.6735 12.5761 91.3351 11.6717 90.2699 10.4362C88.5545 8.43845 85.1456 5.86676 81.7833 5.61541Z" fill="#230603"/>
<path d="M35.8601 93.0512C45.9172 98.5841 55.9717 104.117 66.0451 109.677C73.4132 90.431 80.7744 71.2079 88.1587 51.9918C88.7655 50.39 89.3956 48.7926 90.0049 47.1936C89.3261 46.605 88.6225 46.0327 87.9393 45.467C85.8591 43.6902 83.7934 41.9637 81.7087 40.2124C81.5272 41.484 81.1069 43.4281 79.8632 45.4554C79.2994 46.4114 78.6642 47.1655 78.1057 47.7702C73.001 50.1217 67.0903 53.4447 61.1208 58.2553C46.2062 70.2295 39.1171 84.6918 35.8601 93.0512Z" fill="#EBBEAA"/>
<path d="M78.3297 33.0691C78.5795 33.7911 78.8948 34.4431 79.2389 34.9549C79.5548 35.4233 80.4228 36.6 81.1833 38.3738C81.422 38.9295 81.6447 39.559 81.8463 40.2257C82.4201 42.1846 82.5315 43.8814 82.5501 44.9999C85.2923 47.8708 87.9428 49.7962 89.8957 51.0334C91.3499 51.9359 93.5891 53.2333 96.5541 53.6489C99.4991 54.0526 100.335 53.2101 100.567 52.9456C100.892 52.5225 101.002 52.0602 101.053 51.6942C101.2 51.3018 101.478 50.777 101.962 50.6813C102.373 50.5724 102.614 50.8929 102.985 50.7604C103.494 50.5735 103.809 49.7515 103.573 49.3796C103.401 49.1237 103.102 49.2694 102.675 48.9479C102.327 48.671 102.114 48.2595 102.171 48.1603C102.256 48.1047 102.489 48.3935 103.011 48.5567C103.655 48.7367 104.204 48.5734 104.394 48.523C104.709 48.438 104.995 48.3637 105.153 48.135C105.494 47.6433 105.192 46.9174 105.093 46.6256C103.989 43.603 106.117 39.3793 106.729 38.6468C106.831 38.5199 107.306 37.9736 107.83 37.1621C108.001 36.9162 108.16 36.6385 108.336 36.2896C109.509 34.0838 109.677 32.0433 109.776 30.8612C109.814 30.3831 109.838 29.9221 109.823 29.4917C109.8 27.1344 109.279 25.1793 108.774 23.8384C108.156 21.9072 106.814 18.8797 103.928 16.3498C97.9983 14.7816 96.8843 12.516 93.7918 11.9487C89.3251 12.4215 84.9839 14.3337 81.9785 17.7162C81.7266 17.9688 81.5243 18.2226 81.3339 18.4566C77.7027 23.0981 77.7816 28.4902 78.3297 33.0691Z" fill="#EBBEAA"/>
<path d="M104.174 45.8563C104.412 45.7525 104.772 45.6321 105.213 45.6262C105.674 45.6193 105.824 45.7857 106.238 45.7209C106.391 45.6962 106.756 45.6149 107.072 45.3127C107.123 45.2648 107.479 44.9139 107.524 44.413C107.578 43.7965 107.128 43.2974 106.963 43.0937C106.587 42.6286 106.14 41.6979 105.9 39.6243C105.359 40.5846 104.816 41.5472 104.275 42.5075C104.239 43.6244 104.208 44.7417 104.174 45.8563Z" fill="#EBBEAA"/>
<path d="M103.381 39.3681C103.318 39.3634 103.257 39.3407 103.205 39.3006C103.061 39.1916 103.035 38.988 103.147 38.8464C103.48 38.4214 104.221 37.6622 105.433 37.3494C106.429 37.0955 107.295 37.2533 107.844 37.4366C108.015 37.4934 108.109 37.6736 108.052 37.8426C107.995 38.009 107.814 38.1144 107.641 38.0472C107.173 37.8959 106.44 37.7557 105.601 37.9723C104.576 38.2369 103.949 38.8779 103.665 39.242C103.593 39.3348 103.488 39.376 103.381 39.3681Z" fill="#230603"/>
<path d="M104.991 38.9974C104.754 39.7166 104.962 40.4303 105.459 40.5889C105.955 40.7501 106.546 40.2953 106.784 39.5735C107.021 38.8543 106.812 38.1406 106.316 37.9794C105.822 37.8235 105.228 38.2782 104.991 38.9974Z" fill="#230603"/>
<path d="M102.089 33.2137C102.159 33.4387 102.929 33.1937 105.135 33.2811C106.637 33.3416 107.178 33.4906 107.253 33.2997C107.366 33.0057 106.307 32.0732 105.064 31.9285C103.487 31.7512 101.988 32.8829 102.089 33.2137Z" fill="#230603"/>
<path d="M102.049 48.8569C102.002 48.8534 101.953 48.8394 101.911 48.8129C101.694 48.6908 101.497 48.5312 101.325 48.3451C101.049 48.0478 100.843 47.6782 100.732 47.2768C100.684 47.1026 100.787 46.9266 100.96 46.8802C101.137 46.8313 101.312 46.9375 101.362 47.1067C101.447 47.4104 101.602 47.6883 101.808 47.9132C101.936 48.052 102.082 48.169 102.238 48.2582C102.396 48.3476 102.447 48.5453 102.356 48.6989C102.291 48.8077 102.169 48.8658 102.049 48.8569Z" fill="#230603"/>
<path d="M40.3646 99.6717C55.0607 94.7196 69.9251 116.067 80.6386 110.191C87.1684 106.61 83.9214 97.4228 92.1774 87.0401C95.684 82.6298 107.038 73.0502 109.425 71.9176C115.972 68.8077 125.15 75.728 129.358 82.2898C132.175 86.6842 135.835 95.739 131.657 100.58C126.677 106.349 113.308 102.942 112.344 102.239C112.292 102.202 112.025 102.029 111.698 102.023C111.052 102.011 110.471 102.557 110.616 103.287C112.586 113.361 113.294 128.036 104.478 138.307C84.815 161.213 32.2012 145.391 26.515 125.707C23.8064 116.325 30.8377 102.882 40.3646 99.6717Z" fill="#9D65FF"/>
<path d="M108.091 76.55C109.12 78.2042 113.255 77.5462 117.326 75.0786C121.397 72.611 123.862 69.2709 122.833 67.6167C121.805 65.9625 117.67 66.6205 113.599 69.0881C109.528 71.5557 107.062 74.8958 108.091 76.55Z" fill="#9D65FF"/>
<path d="M87.928 176.325V176.325C87.6503 178.746 89.7819 180.8 92.1353 180.168C94.6162 179.501 96.9891 178.733 99.2518 177.897C102.139 176.83 104.109 174.162 104.389 171.097C104.405 170.919 104.421 170.739 104.437 170.559C104.966 164.74 105.283 157.979 105.06 150.554C104.946 146.89 104.716 143.473 104.413 140.319C103.864 134.597 97.9609 131.21 92.5728 133.214V133.214C87.9654 134.928 85.5842 139.972 86.5919 144.783C87.6409 149.791 88.5425 156.292 88.5896 164.041C88.6075 168.496 88.3465 172.618 87.928 176.325Z" fill="#5B3B93"/>
<path d="M25.0739 165.721C25.0649 165.842 25.0563 165.962 25.0479 166.081C24.8301 169.185 26.4045 172.16 29.1219 173.675C31.2311 174.85 33.4571 175.984 35.8007 177.042C38.0032 178.036 40.4291 176.373 40.5125 173.958V173.958C40.6576 170.441 41.0183 166.563 41.656 162.446C42.8338 154.962 44.6605 148.796 46.4214 144.077C48.1481 139.451 46.5312 134.076 42.1992 131.705V131.705C37.1903 128.964 30.9017 131.421 29.5068 136.958C28.7436 139.988 28.0134 143.284 27.3604 146.837C26.0864 153.754 25.3981 160.123 25.0739 165.721Z" fill="#5B3B93"/>
<path d="M4.48053 154.336C6.73767 156.899 13.7836 164.351 24.7825 171.193C29.3507 174.022 34.5595 176.759 40.421 178.963C47.195 181.538 54.7962 183.454 63.1538 184.078C66.2427 184.309 69.4417 184.362 72.7475 184.214C76.8103 184.029 80.6844 183.53 84.3633 182.804C90.5022 181.613 96.0532 179.773 100.989 177.681C110.107 173.783 117.036 168.956 121.394 165.447C122.395 164.64 122.529 163.161 121.71 162.172C120.888 161.182 119.416 161.048 118.415 161.855C114.708 164.854 108.971 168.865 101.554 172.332C96.7481 174.576 91.2321 176.579 85.0577 177.93C81.1324 178.798 76.9448 179.392 72.5061 179.596C60.3648 180.152 49.6018 177.721 40.5103 174.021C34.6357 171.676 29.4841 168.803 25.0651 165.872C15.8902 159.818 10.0012 153.567 8.02805 151.305C7.16034 150.335 5.68189 150.247 4.70306 151.079C3.72423 151.911 3.63645 153.366 4.48053 154.336Z" fill="#322F2A"/>
<path d="M14.0987 115.997C14.2884 117.348 14.8012 120.999 16.7265 121.52C20.051 122.418 22.4904 112.593 32.4506 107.3C37.8207 104.446 41.5222 104.96 41.7287 103.249C42.0473 100.599 33.6392 95.3933 26.0994 97.1414C17.8907 99.0437 13.0662 108.649 14.0987 115.997Z" fill="#5B3B93"/>
<path d="M119.74 84.1931C119.673 85.0983 120.141 85.8703 120.787 85.9186C121.433 85.9668 122.011 85.2731 122.079 84.368C122.147 83.4628 121.678 82.6909 121.032 82.6426C120.386 82.5943 119.808 83.288 119.74 84.1931Z" fill="#230603"/>
<path d="M109.41 87.8729C110.837 87.9796 112.079 86.924 112.185 85.5152C112.29 84.1065 111.218 82.8779 109.792 82.7713C108.365 82.6646 107.123 83.7202 107.017 85.129C106.912 86.5377 107.983 87.7662 109.41 87.8729Z" fill="#230603"/>
<path d="M94.7761 164.246C94.6708 165.655 95.7418 166.883 97.169 166.99C98.5963 167.097 99.838 166.042 99.9433 164.632C100.049 163.223 98.9776 161.995 97.5504 161.888C96.1258 161.782 94.8814 162.837 94.7761 164.246Z" fill="#230603"/>
<path d="M41.5969 105.018C47.4268 109.291 53.2058 113.545 59.0358 117.818C59.5837 118.231 60.1517 118.62 60.6968 119.036C62.0369 120.028 63.3997 120.996 64.761 121.985C65.8779 122.811 67.0192 123.659 68.1631 124.507C68.6837 124.9 69.2306 125.293 69.775 125.683C70.7319 126.545 72.0902 127.994 73.3992 129.998C75.0893 132.614 75.1991 133.913 76.26 134.331C77.4385 134.786 79.6708 134.004 84.3347 128.229C84.2167 127.39 83.9831 126.031 83.4039 124.426C82.0133 120.43 79.9105 118.675 76.4651 113.474C76.4079 113.363 76.3296 113.254 76.2512 113.147C75.6096 112.166 74.7484 110.793 73.7871 109.079C70.9308 104.791 67.2376 100.207 62.3913 95.7382C58.7306 92.3668 55.1131 89.7485 51.8214 87.6769C48.41 93.4415 45.0056 99.2532 41.5969 105.018Z" fill="#EBBEAA"/>
<path d="M59.034 117.771C59.5837 118.231 60.1517 118.62 60.6996 119.033C62.0397 120.025 63.4025 120.994 64.7638 121.982C65.8806 122.808 67.022 123.656 68.1659 124.504C70.8843 120.723 73.5567 116.925 76.2514 113.144C70.5001 114.651 64.757 116.223 59.034 117.771Z" fill="#230603"/>
<path d="M60.2545 124.213C66.225 120.09 72.1982 115.965 78.1688 111.84C75.6103 107.248 73.0517 102.656 70.493 98.0659C59.3953 94.5419 48.2974 91.0205 37.197 87.4963C36.7074 88.2303 33.9538 92.5185 35.3161 97.9082C36.2622 101.648 38.6751 103.879 39.6266 104.674C46.5017 111.187 53.3768 117.7 60.2545 124.213Z" fill="#938000"/>
<path d="M93.2389 156.645C91.4472 157.279 89.658 157.916 87.8664 158.55C83.0285 153.828 73.467 143.032 71.9936 127.498C71.6959 124.367 71.7677 121.446 72.0502 118.788C75.9794 120.915 79.9058 123.044 83.8351 125.171C83.8632 125.915 83.946 126.946 84.1993 128.146C84.646 130.264 85.3756 131.751 85.5312 132.086C86.4104 133.954 88.5478 140.43 93.2389 156.645Z" fill="#EBBEAA"/>
<path d="M108.779 160.093L87.9436 167.151C87.1695 166.646 86.166 165.81 85.6081 164.515C84.9853 163.072 85.2331 161.79 85.3034 160.848C85.4293 159.164 85.1364 156.706 83.1661 153.459C85.8805 152.322 88.595 151.186 91.3094 150.049C94.99 153.05 98.3084 154.239 100.796 154.738C104.176 155.417 107.472 155.121 108.621 157.125C109.174 158.097 109.018 159.244 108.779 160.093Z" fill="#EBBEAA"/>
<path d="M86.2855 167.712L111.463 159.183C110.934 157.885 110.264 156.898 109.62 156.155C104.865 150.648 96.0049 151.941 94.8464 152.128C94.1875 150.572 93.5289 149.012 92.8702 147.453C88.025 151.063 87.0433 153.72 87.1328 155.536C87.1717 156.313 87.3857 157.652 86.7161 159.112C86.1249 160.4 84.9551 161.124 84.1213 161.522C84.8446 163.583 85.5651 165.646 86.2855 167.712Z" fill="#938000"/>
<path d="M30.4568 89.4152C34.2493 91.5139 38.739 93.6415 43.9135 95.4711C54.5461 99.2267 64.1607 100.344 71.3525 100.553C76.8225 85.7472 82.2952 70.9416 87.7652 56.1359C85.1322 52.575 82.4966 49.0139 79.8636 45.453C71.4975 50.1258 61.2262 56.8825 50.7856 66.4994C42.047 74.5447 35.4011 82.5524 30.4568 89.4152Z" fill="#CC0000"/>
<path d="M78.7596 87.8879C76.6139 83.6239 74.5742 78.6774 72.9819 73.0016C72.5976 71.486 72.2117 69.9213 71.8778 68.2569C71.7812 67.867 71.7346 67.4757 71.6879 67.0843C71.1645 64.3457 70.7871 61.7575 70.605 59.2176C72.2515 56.9877 75.0299 55.45 77.8974 55.279C80.6653 55.1084 82.436 56.2958 82.9288 56.6404C83.9811 61.482 85.0352 66.3703 86.0901 71.2121C87.2892 76.5431 88.4385 81.873 89.5871 87.2493C85.9778 87.463 82.3688 87.6742 78.7596 87.8879Z" fill="#EBBEAA"/>
<path d="M72.9825 73.0019C72.5982 71.4864 72.2123 69.9216 71.8784 68.2572C71.7819 67.8673 71.7352 67.476 71.6885 67.0846L82.0189 67.1742C83.3939 68.5052 84.7184 69.8816 86.0936 71.2101C81.738 71.8076 77.3354 72.4042 72.9825 73.0019Z" fill="#230603"/>
<path d="M68.3803 71.5746C68.5071 65.8153 68.6338 60.0559 68.7606 54.2965C69.7626 53.8207 74.0339 51.9317 78.8052 53.6201C80.9611 54.3837 82.4566 55.61 83.3422 56.4804C84.3891 61.394 85.4359 66.3102 86.4828 71.2238C80.4475 71.3441 74.4126 71.4593 68.3803 71.5746Z" fill="#CC0000"/>
<path d="M86.6353 79.9334C85.6882 80.2711 84.7688 80.6239 83.89 80.9926C83.4663 81.16 83.0699 81.3476 82.6709 81.5349C80.9383 82.2897 79.3675 83.1239 77.9147 83.9539C77.2758 86.3342 77.8903 88.7306 79.1369 90.0623C79.4121 90.3751 79.7112 90.6121 80.0355 90.7941C81.6145 91.6723 83.2253 90.8308 83.491 90.6749C85.2917 90.3751 86.8411 90.0384 88.0207 89.7439C89.1791 89.453 90.3065 89.1209 91.3683 88.7555C96.2075 87.1883 100.314 85.0828 105.057 82.5982C105.193 82.5282 105.499 82.1192 105.932 82.1361C106.509 82.1611 106.968 82.86 107.297 83.5724C108.425 83.2714 109.735 83.1237 110.5 83.8119C111.781 84.9626 110.683 87.6731 111.488 88.0513C111.867 88.2297 112.645 87.8741 114.337 85.8415C114.351 85.0591 114.264 84.1268 113.946 83.1256C112.747 79.3745 109.221 77.6604 108.329 77.2601C106.963 77.1399 105.817 77.093 104.983 77.072C99.8544 76.9421 93.4849 77.5028 86.6353 79.9334Z" fill="#EBBEAA"/>
<path d="M84.7517 63.5465C84.5981 63.535 84.4707 63.4169 84.451 63.2602L83.7728 57.3373C83.7521 57.1599 83.8819 56.999 84.0613 56.9813C84.2458 56.9667 84.4016 57.0895 84.4224 57.2669L85.1005 63.1899C85.1213 63.3673 84.9914 63.5282 84.812 63.5458C84.791 63.5468 84.77 63.5478 84.7517 63.5465Z" fill="#230603"/>
<path d="M72.4895 71.4292C72.3359 71.4177 72.2109 71.3023 72.1886 71.1455L70.4217 57.3994C70.3982 57.2244 70.5255 57.0632 70.7051 57.043C70.878 57.0068 71.0459 57.1435 71.0691 57.3237L72.8359 71.0698C72.8595 71.2448 72.7322 71.4059 72.5526 71.4261C72.5314 71.4297 72.5104 71.4307 72.4895 71.4292Z" fill="#230603"/>
<path d="M97.8825 155.49C97.6095 155.392 97.535 155.198 97.6072 155.038L99.0807 151.758C99.1529 151.598 99.3524 151.522 99.512 151.594C99.6769 151.665 99.7514 151.86 99.6792 152.02L98.2057 155.3C98.149 155.427 98.0153 155.5 97.8825 155.49Z" fill="#230603"/>
<path d="M95.7957 155.021C95.7514 155.018 95.7077 155.007 95.6676 154.983C95.5087 154.901 95.4474 154.705 95.5298 154.549L96.8822 152.012C96.9675 151.853 97.1611 151.785 97.3245 151.877C97.4834 151.959 97.5447 152.155 97.4622 152.312L96.1098 154.848C96.0461 154.965 95.9233 155.031 95.7957 155.021Z" fill="#230603"/>
<path d="M79.7183 42.0027C79.7871 42.6931 79.7149 43.8694 80.4586 44.3619C81.8286 45.2685 85.2802 43.52 87.2374 40.9513C90.0685 37.2377 89.1188 32.6701 90.4454 32.477C91.5257 32.3199 92.1169 35.3765 93.969 35.6857C95.8313 35.9981 97.8677 33.456 99.4749 30.8404C105.265 30.1458 110.262 27.7966 111.109 24.3459C112.346 19.2978 104.419 13.0191 97.0126 11.788C91.1403 10.8138 84.6949 12.8815 80.6437 17.4321C80.1091 18.0309 76.7294 21.9361 76.4115 27.4149C76.112 32.5769 78.8663 33.4292 79.7183 42.0027Z" fill="#230603"/>
<path d="M87.5628 33.6167C86.7835 35.9838 87.5878 38.3634 89.3548 38.9351C91.1217 39.5067 93.1896 38.0504 93.9689 35.6832C94.7482 33.316 93.944 30.9365 92.177 30.3648C90.4072 29.7955 88.342 31.252 87.5628 33.6167Z" fill="#EBBEAA"/>
<path d="M89.9294 39.3741C89.6976 39.3568 89.4731 39.3115 89.2532 39.2408C88.0691 38.8601 87.2259 37.7369 86.9977 36.2356C86.9715 36.0604 87.0937 35.8963 87.2737 35.8709C87.4513 35.8429 87.6175 35.9665 87.6435 36.1442C87.8327 37.397 88.5098 38.3242 89.456 38.6302C89.8959 38.7717 90.3567 38.7725 90.8432 38.6408C91.0196 38.5945 91.1981 38.6932 91.2457 38.8622C91.2959 39.0315 91.196 39.2128 91.0222 39.2592C90.6556 39.3637 90.2862 39.4008 89.9294 39.3741Z" fill="#230603"/>
<path d="M87.2431 35.8969C87.0764 35.8845 86.945 35.7505 86.939 35.5846C86.9234 35.0223 86.9897 34.4506 87.142 33.8854C87.1889 33.7131 87.3609 33.6199 87.5415 33.6567C87.7161 33.7034 87.8182 33.8791 87.7738 34.0516C87.639 34.5586 87.5773 35.0686 87.5921 35.5714C87.5973 35.7476 87.4552 35.8972 87.2741 35.9018C87.2639 35.8985 87.2535 35.8977 87.2431 35.8969Z" fill="#230603"/>
<path d="M87.7085 33.4834C87.4404 33.3909 87.363 33.2015 87.4302 33.0385C88.3888 30.7597 90.4652 29.4695 92.2751 30.0625C92.6922 30.1945 93.0682 30.4191 93.3958 30.7307C93.5254 30.8541 93.5311 31.0588 93.4061 31.1891C93.2815 31.3142 93.0768 31.3196 92.9445 31.1985C92.6901 30.9571 92.3969 30.7801 92.0747 30.6759C90.5974 30.1879 88.8574 31.3223 88.0348 33.288C87.9779 33.4182 87.844 33.4935 87.7085 33.4834Z" fill="#230603"/>
<path d="M90.7334 37.236C90.5745 37.2241 90.4425 37.0979 90.4336 36.9369L90.1213 32.4971C90.1083 32.3203 90.2456 32.1651 90.4246 32.1526C90.5938 32.1316 90.7585 32.2758 90.7715 32.4526L91.0838 36.8925C91.0968 37.0693 90.9595 37.2245 90.7805 37.237C90.762 37.2382 90.749 37.2372 90.7334 37.236Z" fill="#230603"/>
<path d="M90.6889 34.6755C90.6055 34.6693 90.5247 34.6296 90.4642 34.563C90.3486 34.4277 90.3638 34.2246 90.5008 34.1081L91.6772 33.1204C91.8143 33.0039 92.0198 33.0218 92.138 33.1574C92.2536 33.2927 92.2384 33.4959 92.1014 33.6123L90.925 34.6001C90.8553 34.6569 90.7722 34.6817 90.6889 34.6755Z" fill="#230603"/>
<path d="M124.602 102.76C123.328 102.176 122.309 101.438 121.45 100.531C119.266 98.2161 118.778 95.4593 118.681 94.0222C118.668 93.8454 118.806 93.6901 118.985 93.6777C119.157 93.6543 119.319 93.8009 119.332 93.9777C119.424 95.3292 119.883 97.9182 121.928 100.088C122.729 100.937 123.686 101.629 124.768 102.147C124.93 102.223 124.999 102.417 124.919 102.577C124.86 102.702 124.729 102.769 124.602 102.76Z" fill="#230603"/>
<path d="M128.264 94.2984C127.535 94.2439 127.234 93.1535 127.312 92.1069C127.391 91.0604 127.85 90.0294 128.579 90.0839C129.306 90.1382 129.61 91.2263 129.531 92.2728C129.45 93.3192 128.991 94.3527 128.264 94.2984ZM128.531 90.7242C128.414 90.7154 128.035 91.1913 127.964 92.153C127.892 93.1147 128.195 93.6443 128.312 93.653C128.43 93.6618 128.808 93.1833 128.88 92.2216C128.95 91.2597 128.649 90.7329 128.531 90.7242Z" fill="#230603"/>
<path d="M111.587 196.84C111.587 201.721 88.8147 205.679 60.7233 205.679C32.6319 205.679 9.85938 201.721 9.85938 196.84C9.85938 191.958 32.6319 188 60.7233 188C88.8147 188 111.587 191.958 111.587 196.84Z" fill="#585858" fill-opacity="0.5"/>
</svg>
