<svg width="260" height="397" viewBox="0 0 260 397" fill="none" xmlns="http://www.w3.org/2000/svg">
<path d="M150.039 88.7121C154.728 92.4207 152.682 95.7329 158.194 101.563C163.306 106.968 166.751 105.901 170.562 109.987C176.359 116.193 177.705 128.629 173.093 133.727C164.118 143.645 123.793 135.512 110.087 111.516C101.05 95.6963 100.746 68.0181 108.265 46.6002C110.747 39.5265 114.776 31.174 110.933 26.5836C105.274 19.8217 87.9523 27.6218 86.5255 24.2964C85.1632 21.1193 98.2897 7.72595 108.958 10.2839C122.677 13.5712 134.543 43.7645 131.286 65.8165C130.493 71.1699 128.598 79.0278 132.968 83.2629C137.394 87.5416 143.762 83.7388 150.039 88.7121Z" fill="#230603"/>
<path d="M164.9 138.163C170.015 137.78 173.946 136.328 176.112 133.926C180.891 128.643 179.562 115.804 173.575 109.383C171.715 107.396 169.952 106.58 168.089 105.719C166.01 104.759 163.851 103.762 161.203 100.959C158.523 98.1245 157.682 95.8945 156.934 93.9257C156.172 91.9052 155.448 90.0015 152.979 88.0464C149.589 85.3656 146.153 85.1246 143.126 84.9152C140.344 84.7212 137.936 84.5518 135.955 82.6367C132.286 79.0769 133.321 72.6906 134.153 67.5496C134.256 66.9101 134.36 66.2896 134.447 65.6991C137.762 43.2551 125.415 12.7914 111.662 9.49712C103.872 7.63819 95.079 13.8817 91.0684 18.5374C89.8195 19.9902 87.8241 22.6763 88.5338 24.3226C89.2968 26.0989 92.49 25.6209 96.9148 24.9502C102.692 24.078 109.879 22.9998 113.03 26.7612C116.107 30.4372 113.704 36.8826 111.383 43.121C110.995 44.1647 110.612 45.1986 110.256 46.2017C102.43 68.5042 103.216 96.0123 112.124 111.602C121.161 127.422 141.712 136.364 156.988 137.974C159.853 138.287 162.509 138.342 164.9 138.163ZM107.719 10.3949C108.954 10.3027 110.186 10.3781 111.39 10.6663C124.655 13.8391 136.507 43.5787 133.261 65.534C133.174 66.1197 133.074 66.7351 132.972 67.3699C132.096 72.7774 131.004 79.5078 135.117 83.4892C137.417 85.7155 140.151 85.9036 143.046 86.1084C146.038 86.3155 149.133 86.5341 152.23 88.9832C154.44 90.7279 155.045 92.3246 155.812 94.3494C156.592 96.4212 157.485 98.7717 160.323 101.776C163.134 104.745 165.495 105.841 167.578 106.801C169.406 107.646 170.988 108.379 172.685 110.196C178.319 116.232 179.643 128.234 175.214 133.132C172.331 136.325 165.563 137.692 157.128 136.796C142.15 135.216 122.016 126.472 113.191 111.025C104.438 95.696 103.688 68.6016 111.41 46.5989C111.762 45.6008 112.146 44.5717 112.529 43.5379C114.972 36.9841 117.496 30.2088 113.977 26.0059C110.394 21.7215 102.833 22.8611 96.7497 23.7802C93.6137 24.2444 90.061 24.7781 89.6631 23.8649C89.4109 23.2806 90.0372 21.6062 92.0092 19.3191C95.1847 15.6209 101.495 10.8602 107.719 10.3949Z" fill="#230603"/>
<path d="M192.733 172.256C174.115 182.498 155.502 192.74 136.854 203.033C123.214 167.405 109.587 131.82 95.9178 96.2467C94.7943 93.2815 93.6279 90.3244 92.5 87.3643C93.7567 86.2747 95.0592 85.2152 96.3239 84.1681C100.175 80.879 103.999 77.6827 107.858 74.4408C108.194 76.7947 108.972 80.3937 111.274 84.1467C112.318 85.9163 113.494 87.3123 114.528 88.4317C123.978 92.7849 134.919 98.9364 145.97 107.842C173.58 130.008 186.703 156.781 192.733 172.256Z" fill="#EBBEAA"/>
<path d="M114.113 61.2174C113.65 62.554 113.067 63.7608 112.43 64.7083C111.845 65.5753 110.238 67.7537 108.83 71.0374C108.388 72.066 107.976 73.2314 107.603 74.4655C106.541 78.0919 106.334 81.233 106.3 83.3035C101.224 88.6181 96.3172 92.1824 92.7019 94.4727C90.01 96.1435 85.8649 98.5452 80.376 99.3145C74.9242 100.062 73.3774 98.5022 72.9481 98.0125C72.3465 97.2294 72.142 96.3735 72.0477 95.696C71.7752 94.9696 71.2614 93.998 70.3658 93.8209C69.6041 93.6193 69.1588 94.2127 68.4714 93.9673C67.5292 93.6213 66.9452 92.0997 67.3834 91.4112C67.7019 90.9374 68.2553 91.2071 69.0447 90.612C69.69 90.0995 70.0839 89.3377 69.9781 89.1541C69.8201 89.051 69.3898 89.5858 68.4233 89.8878C67.2313 90.2211 66.2149 89.9188 65.8637 89.8254C65.2798 89.668 64.7507 89.5305 64.4573 89.1073C63.8268 88.197 64.3858 86.8533 64.5684 86.3131C66.613 80.7177 62.6735 72.8987 61.5395 71.5426C61.3522 71.3077 60.4718 70.2965 59.5014 68.7942C59.1861 68.3391 58.8907 67.825 58.5661 67.1792C56.3943 63.0957 56.0828 59.3183 55.8998 57.1301C55.8288 56.2451 55.7844 55.3915 55.8122 54.5949C55.8544 50.231 56.8201 46.6118 57.7545 44.1295C58.8981 40.5544 61.3832 34.95 66.7249 30.2665C77.7026 27.3637 79.7647 23.1695 85.4895 22.1193C93.7582 22.9946 101.795 26.5344 107.358 32.796C107.825 33.2638 108.199 33.7336 108.551 34.1667C115.274 42.7591 115.128 52.7408 114.113 61.2174Z" fill="#EBBEAA"/>
<path d="M66.27 84.8887C65.829 84.6967 65.1627 84.4737 64.3474 84.4628C63.4931 84.4501 63.2155 84.7581 62.4502 84.6382C62.1656 84.5924 61.4902 84.4419 60.9054 83.8824C60.8115 83.7937 60.152 83.1442 60.0682 82.217C59.9683 81.0757 60.801 80.1518 61.1073 79.7747C61.8041 78.9136 62.6305 77.1908 63.0756 73.3521C64.0763 75.1298 65.0822 76.9118 66.0829 78.6895C66.1502 80.7571 66.2079 82.8255 66.27 84.8887Z" fill="#EBBEAA"/>
<path d="M67.7384 72.8781C67.8541 72.8694 67.9673 72.8275 68.0636 72.7533C68.3297 72.5515 68.3791 72.1744 68.1704 71.9124C67.5541 71.1256 66.1836 69.7202 63.9392 69.1412C62.0957 68.6711 60.4933 68.9633 59.4763 69.3026C59.1593 69.4076 58.9856 69.7413 59.0914 70.0541C59.1968 70.3622 59.5313 70.5574 59.8517 70.4329C60.718 70.1527 62.0755 69.8933 63.6278 70.2942C65.5262 70.7842 66.6864 71.9707 67.2119 72.6446C67.3459 72.8165 67.5407 72.8928 67.7384 72.8781Z" fill="#230603"/>
<path d="M64.7579 72.1915C65.1969 73.5229 64.8108 74.8441 63.8922 75.1377C62.9739 75.4362 61.8784 74.5942 61.4391 73.258C61.0002 71.9266 61.3862 70.6054 62.3045 70.307C63.2186 70.0184 64.319 70.86 64.7579 72.1915Z" fill="#230603"/>
<path d="M70.1294 61.4847C70.0006 61.9012 68.5752 61.4476 64.4905 61.6094C61.7111 61.7214 60.7088 61.9974 60.5709 61.6439C60.3605 61.0996 62.3211 59.3734 64.6234 59.1056C67.5417 58.7773 70.3164 60.8723 70.1294 61.4847Z" fill="#230603"/>
<path d="M70.2045 90.4436C70.2913 90.4372 70.3814 90.4113 70.4602 90.3623C70.8602 90.1361 71.226 89.8407 71.5445 89.4962C72.056 88.9458 72.4363 88.2616 72.6426 87.5186C72.73 87.1961 72.5409 86.8704 72.2193 86.7843C71.8926 86.6939 71.5679 86.8905 71.4749 87.2038C71.3182 87.766 71.0318 88.2804 70.6508 88.6966C70.4131 88.9537 70.1432 89.1702 69.8549 89.3353C69.5619 89.5008 69.468 89.8668 69.6347 90.1511C69.7565 90.3526 69.9827 90.4602 70.2045 90.4436Z" fill="#230603"/>
<path d="M184.394 184.512C157.189 175.345 129.672 214.863 109.839 203.986C97.7509 197.355 103.762 180.349 88.4782 161.128C81.9869 152.964 60.9676 135.23 56.5493 133.134C44.4298 127.376 27.4392 140.187 19.6495 152.335C14.4349 160.469 7.65931 177.232 15.3932 186.194C24.6129 196.873 49.362 190.566 51.1459 189.265C51.2425 189.195 51.7373 188.876 52.3425 188.864C53.5384 188.842 54.6127 189.853 54.3452 191.204C50.6972 209.853 49.3876 237.02 65.7076 256.033C102.107 298.437 199.506 269.146 210.032 232.708C215.046 215.34 202.03 190.455 184.394 184.512Z" fill="#9D65FF"/>
<path d="M59.0188 141.709C57.1145 144.771 49.4602 143.553 41.9239 138.985C34.3877 134.417 29.8238 128.234 31.7281 125.172C33.6324 122.109 41.2867 123.328 48.823 127.896C56.3593 132.464 60.9231 138.647 59.0188 141.709Z" fill="#9D65FF"/>
<path d="M101.662 329.378C102.032 332.577 102.476 335.597 102.947 338.401C91.5832 336.196 81.3072 332.79 72.1696 328.917C71.8092 325.846 71.4295 322.519 71.1239 319.014C70.1635 308.503 69.5994 296.286 70.0364 282.87C70.5529 267.6 72.2018 254.7 74.012 244.542C85.4802 248.72 96.9882 252.847 108.452 257.026C105.596 265.459 100.673 282.949 100.478 307.184C100.43 315.234 100.9 322.681 101.662 329.378Z" fill="#9D65FF"/>
<path d="M212.72 307.051C212.979 310.516 213.095 313.82 213.239 316.906C204.782 322.143 195.14 327.211 184.289 331.291C184.291 328.409 184.238 325.359 184.128 322.141C183.866 315.708 183.205 308.616 182.031 301.088C178.239 277.15 170.766 260.587 166.689 252.673C177.408 246.836 188.174 241.043 198.889 235.207C202.19 244.983 205.738 257.494 208.519 272.517C210.866 285.166 212.129 296.813 212.72 307.051Z" fill="#9D65FF"/>
<path d="M250.822 285.706C246.644 290.451 233.6 304.245 213.239 316.911C204.783 322.148 195.14 327.215 184.289 331.295C171.749 336.062 157.678 339.608 142.206 340.765C136.488 341.192 130.566 341.29 124.447 341.015C116.926 340.673 109.754 339.749 102.943 338.406C91.5792 336.201 81.3032 332.795 72.1655 328.921C55.2875 321.706 42.4601 312.77 34.3919 306.275C32.5397 304.781 32.2914 302.043 33.8077 300.211C35.3288 298.379 38.0545 298.132 39.9067 299.626C46.7699 305.177 57.3899 312.602 71.1199 319.019C80.0168 323.174 90.228 326.882 101.658 329.383C108.924 330.989 116.677 332.09 124.893 332.466C147.369 333.495 167.294 328.995 184.124 322.146C194.999 317.805 204.535 312.487 212.716 307.06C229.7 295.853 240.602 284.283 244.255 280.094C245.861 278.298 248.598 278.137 250.41 279.677C252.222 281.217 252.385 283.909 250.822 285.706Z" fill="#322F2A"/>
<path d="M233.017 214.733C232.666 217.234 231.717 223.992 228.153 224.957C221.998 226.619 217.483 208.432 199.044 198.633C189.103 193.35 182.251 194.302 181.869 191.133C181.279 186.228 196.844 176.592 210.802 179.828C225.997 183.349 234.929 201.13 233.017 214.733Z" fill="#9D65FF"/>
<path d="M37.4537 155.858C37.579 157.533 36.7114 158.963 35.5157 159.052C34.32 159.141 33.2495 157.857 33.1242 156.182C32.999 154.506 33.8666 153.077 35.0623 152.988C36.258 152.898 37.3285 154.182 37.4537 155.858Z" fill="#230603"/>
<path d="M56.577 162.67C53.9356 162.867 51.6362 160.913 51.4413 158.305C51.2463 155.697 53.2296 153.423 55.871 153.226C58.5125 153.028 60.8119 154.982 61.0068 157.59C61.2018 160.198 59.2185 162.472 56.577 162.67Z" fill="#230603"/>
<path d="M83.6675 304.051C83.8625 306.66 81.8798 308.933 79.2377 309.131C76.5956 309.328 74.2969 307.375 74.1019 304.766C73.9069 302.158 75.8896 299.884 78.5317 299.687C81.1689 299.489 83.4725 301.443 83.6675 304.051Z" fill="#230603"/>
<path d="M182.113 194.409C171.32 202.319 160.622 210.194 149.83 218.104C148.816 218.869 147.764 219.589 146.755 220.359C144.274 222.195 141.751 223.988 139.231 225.818C137.164 227.346 135.051 228.916 132.933 230.487C131.97 231.214 130.957 231.941 129.95 232.663C128.178 234.26 125.664 236.942 123.241 240.651C120.112 245.494 119.909 247.898 117.945 248.672C115.763 249.515 111.631 248.067 102.997 237.377C103.215 235.824 103.648 233.308 104.72 230.336C107.294 222.94 111.187 219.691 117.565 210.062C117.671 209.857 117.816 209.655 117.961 209.458C119.149 207.641 120.743 205.1 122.523 201.927C127.81 193.988 134.647 185.502 143.618 177.23C150.395 170.989 157.092 166.142 163.185 162.307C169.5 172.978 175.802 183.737 182.113 194.409Z" fill="#EBBEAA"/>
<path d="M149.833 218.017C148.815 218.868 147.764 219.588 146.749 220.353C144.269 222.19 141.746 223.983 139.226 225.813C137.158 227.341 135.046 228.911 132.928 230.482C127.896 223.481 122.949 216.451 117.96 209.452C128.607 212.242 139.239 215.152 149.833 218.017Z" fill="#230603"/>
<path d="M147.574 229.942C136.521 222.31 125.464 214.674 114.411 207.037C119.147 198.536 123.883 190.035 128.62 181.539C149.164 175.015 169.709 168.496 190.257 161.972C191.164 163.331 196.261 171.269 193.739 181.247C191.988 188.17 187.521 192.3 185.76 193.772C173.033 205.829 160.306 217.885 147.574 229.942Z" fill="#938000"/>
<path d="M86.5135 289.98C89.8301 291.153 93.1423 292.332 96.459 293.506C105.415 284.766 123.115 264.779 125.843 236.023C126.394 230.228 126.261 224.819 125.738 219.899C118.464 223.837 111.195 227.778 103.922 231.716C103.87 233.094 103.716 235.001 103.247 237.223C102.421 241.143 101.07 243.896 100.782 244.516C99.1544 247.974 95.1976 259.964 86.5135 289.98Z" fill="#EBBEAA"/>
<path d="M57.7457 296.362L96.3158 309.428C97.7489 308.493 99.6065 306.947 100.639 304.548C101.792 301.877 101.334 299.504 101.203 297.761C100.97 294.643 101.513 290.094 105.16 284.082C100.135 281.978 95.11 279.874 90.0851 277.77C83.2716 283.325 77.1286 285.526 72.5239 286.45C66.2667 287.707 60.1654 287.158 58.038 290.869C57.0139 292.669 57.3034 294.792 57.7457 296.362Z" fill="#EBBEAA"/>
<path d="M99.3851 310.466L52.7768 294.679C53.7558 292.275 54.9962 290.449 56.1878 289.073C64.9914 278.879 81.3926 281.272 83.5372 281.619C84.7568 278.737 85.9761 275.851 87.1954 272.964C96.1648 279.646 97.9821 284.565 97.8166 287.928C97.7446 289.365 97.3483 291.845 98.5879 294.548C99.6823 296.931 101.848 298.272 103.391 299.009C102.052 302.824 100.719 306.643 99.3851 310.466Z" fill="#938000"/>
<path d="M202.735 165.525C195.714 169.41 187.403 173.349 177.824 176.736C158.141 183.688 140.343 185.756 127.029 186.143C116.903 158.735 106.772 131.327 96.646 103.919C101.52 97.3266 106.399 90.7343 111.274 84.1424C126.761 92.7927 145.775 105.301 165.102 123.103C181.279 137.997 193.582 152.821 202.735 165.525Z" fill="#CC0000"/>
<path d="M113.317 162.697C117.289 154.804 121.065 145.647 124.013 135.14C124.724 132.334 125.439 129.438 126.057 126.357C126.235 125.635 126.322 124.91 126.408 124.186C127.377 119.116 128.076 114.325 128.413 109.623C125.365 105.495 120.221 102.648 114.913 102.332C109.789 102.016 106.511 104.214 105.599 104.852C103.651 113.815 101.7 122.864 99.7469 131.827C97.5272 141.696 95.3995 151.563 93.2733 161.515C99.9547 161.911 106.636 162.302 113.317 162.697Z" fill="#EBBEAA"/>
<path d="M124.011 135.14C124.723 132.335 125.437 129.438 126.055 126.357C126.234 125.635 126.32 124.911 126.407 124.186L107.283 124.352C104.738 126.816 102.286 129.364 99.7404 131.823C107.803 132.93 115.953 134.034 124.011 135.14Z" fill="#230603"/>
<path d="M132.531 132.499C132.297 121.837 132.062 111.175 131.828 100.513C129.973 99.6325 122.066 96.1357 113.233 99.2612C109.242 100.675 106.474 102.945 104.834 104.556C102.896 113.652 100.958 122.753 99.0202 131.849C110.193 132.072 121.365 132.285 132.531 132.499Z" fill="#CC0000"/>
<path d="M98.7378 147.972C100.491 148.598 102.193 149.251 103.82 149.933C104.604 150.243 105.338 150.59 106.077 150.937C109.284 152.334 112.192 153.879 114.881 155.415C116.064 159.821 114.927 164.258 112.619 166.723C112.109 167.302 111.556 167.741 110.955 168.078C108.032 169.703 105.051 168.146 104.559 167.857C101.225 167.302 98.3569 166.679 96.1732 166.133C94.0288 165.595 91.9418 164.98 89.9761 164.304C81.0179 161.403 73.4153 157.505 64.6355 152.905C64.3834 152.776 63.8178 152.019 63.0153 152.05C61.9473 152.096 61.0986 153.39 60.4893 154.709C58.4017 154.152 55.9765 153.878 54.5591 155.152C52.1876 157.282 54.2208 162.3 52.7314 163C52.0288 163.33 50.5882 162.672 47.4561 158.909C47.4303 157.461 47.5921 155.735 48.1808 153.882C50.4009 146.938 56.9271 143.765 58.5783 143.024C61.107 142.801 63.2288 142.714 64.7725 142.675C74.2668 142.435 86.0578 143.473 98.7378 147.972Z" fill="#EBBEAA"/>
<path d="M102.225 117.637C102.509 117.616 102.745 117.397 102.782 117.107L104.037 106.142C104.075 105.814 103.835 105.516 103.503 105.483C103.161 105.456 102.873 105.684 102.834 106.012L101.579 116.977C101.541 117.305 101.781 117.603 102.113 117.636C102.152 117.637 102.191 117.639 102.225 117.637Z" fill="#230603"/>
<path d="M124.924 132.229C125.209 132.208 125.44 131.994 125.482 131.704L128.752 106.257C128.796 105.933 128.56 105.635 128.228 105.598C127.908 105.531 127.597 105.784 127.554 106.117L124.283 131.564C124.24 131.888 124.475 132.186 124.808 132.224C124.847 132.23 124.886 132.232 124.924 132.229Z" fill="#230603"/>
<path d="M77.917 287.842C78.4222 287.661 78.5602 287.301 78.4265 287.005L75.6988 280.933C75.5652 280.637 75.1959 280.497 74.9004 280.629C74.5952 280.762 74.4572 281.122 74.5909 281.418L77.3186 287.49C77.4235 287.726 77.6711 287.861 77.917 287.842Z" fill="#230603"/>
<path d="M81.7801 286.974C81.8621 286.968 81.943 286.948 82.0173 286.904C82.3114 286.753 82.4249 286.39 82.2723 286.1L79.7687 281.404C79.6109 281.11 79.2524 280.984 78.95 281.155C78.6559 281.306 78.5424 281.668 78.695 281.959L81.1986 286.654C81.3166 286.87 81.5439 286.992 81.7801 286.974Z" fill="#230603"/>
<path d="M111.542 77.7551C111.415 79.0331 111.549 81.2107 110.172 82.1225C107.636 83.8008 101.246 80.5639 97.623 75.8087C92.3821 68.9342 94.1401 60.4786 91.6844 60.1213C89.6846 59.8304 88.5901 65.4888 85.1616 66.061C81.7141 66.6395 77.9442 61.9335 74.969 57.0915C64.2504 55.8057 54.9997 51.4569 53.4313 45.0689C51.1424 35.724 65.8171 24.1009 79.5273 21.8218C90.398 20.0183 102.33 23.8461 109.829 32.2702C110.819 33.3786 117.075 40.608 117.664 50.7502C118.218 60.3062 113.119 61.884 111.542 77.7551Z" fill="#230603"/>
<path d="M97.0207 62.231C98.4633 66.6131 96.9745 71.0182 93.7034 72.0764C90.4324 73.1347 86.6044 70.4387 85.1617 66.0566C83.7191 61.6744 85.2078 57.2695 88.4789 56.2112C91.7551 55.1573 95.5783 57.8536 97.0207 62.231Z" fill="#EBBEAA"/>
<path d="M92.6397 72.8888C93.0688 72.8567 93.4843 72.773 93.8915 72.642C96.0835 71.9373 97.6444 69.858 98.0669 67.0788C98.1154 66.7545 97.8891 66.4507 97.5559 66.4038C97.2271 66.3518 96.9194 66.5806 96.8713 66.9097C96.521 69.2288 95.2676 70.9451 93.5161 71.5117C92.7018 71.7736 91.8486 71.7752 90.948 71.5314C90.6216 71.4457 90.291 71.6283 90.2029 71.9412C90.11 72.2545 90.2951 72.5901 90.6166 72.6762C91.2953 72.8696 91.9792 72.9381 92.6397 72.8888Z" fill="#230603"/>
<path d="M97.6126 66.4522C97.9211 66.4291 98.1644 66.1812 98.1754 65.874C98.2042 64.8331 98.0815 63.7748 97.7997 62.7284C97.7128 62.4094 97.3944 62.237 97.0601 62.3051C96.7369 62.3915 96.5479 62.7167 96.63 63.0361C96.8795 63.9748 96.9938 64.9188 96.9664 65.8495C96.9568 66.1757 97.2199 66.4528 97.5551 66.4612C97.574 66.455 97.5933 66.4536 97.6126 66.4522Z" fill="#230603"/>
<path d="M96.7509 61.9842C97.2472 61.8131 97.3906 61.4625 97.2662 61.1607C95.4915 56.9422 91.6477 54.5537 88.2972 55.6515C87.5252 55.8959 86.8291 56.3118 86.2225 56.8884C85.9827 57.117 85.9722 57.4959 86.2036 57.737C86.4342 57.9687 86.8131 57.9787 87.0581 57.7545C87.529 57.3077 88.0717 56.98 88.6682 56.787C91.4029 55.8837 94.624 57.9836 96.1469 61.6226C96.2522 61.8636 96.5002 62.003 96.7509 61.9842Z" fill="#230603"/>
<path d="M91.1514 68.9309C91.4455 68.9089 91.6899 68.6753 91.7064 68.3773L92.2846 60.1583C92.3087 59.831 92.0544 59.5436 91.723 59.5205C91.4099 59.4817 91.105 59.7486 91.081 60.0759L90.5027 68.295C90.4787 68.6223 90.7329 68.9096 91.0643 68.9327C91.0984 68.9349 91.1225 68.9331 91.1514 68.9309Z" fill="#230603"/>
<path d="M91.2336 64.1911C91.3879 64.1795 91.5376 64.1061 91.6496 63.9828C91.8635 63.7323 91.8355 63.3563 91.5818 63.1407L89.404 61.3122C89.1503 61.0966 88.7697 61.1298 88.5509 61.3807C88.337 61.6313 88.3651 62.0074 88.6188 62.2229L90.7965 64.0514C90.9256 64.1567 91.0793 64.2026 91.2336 64.1911Z" fill="#230603"/>
<path d="M28.4546 190.228C30.8125 189.147 32.6981 187.781 34.2889 186.102C38.332 181.817 39.2353 176.714 39.4146 174.053C39.4386 173.726 39.1844 173.438 38.853 173.415C38.5346 173.372 38.2349 173.643 38.2109 173.971C38.0392 176.473 37.1902 181.265 33.4034 185.282C31.9209 186.853 30.1502 188.134 28.1468 189.093C27.8471 189.235 27.7188 189.594 27.8669 189.889C27.9763 190.12 28.2184 190.246 28.4546 190.228Z" fill="#230603"/>
<path d="M21.6748 174.565C23.0248 174.464 23.5818 172.445 23.4369 170.508C23.2921 168.571 22.4415 166.662 21.0916 166.763C19.7464 166.863 19.1843 168.878 19.3292 170.815C19.4788 172.752 20.3297 174.665 21.6748 174.565ZM21.1802 167.948C21.3971 167.932 22.0982 168.813 22.2313 170.593C22.3643 172.374 21.8025 173.354 21.5855 173.37C21.3685 173.386 20.6672 172.5 20.5341 170.72C20.4059 168.939 20.9632 167.964 21.1802 167.948Z" fill="#230603"/>
<ellipse cx="94.1591" cy="16.3636" rx="94.1591" ry="16.3636" transform="matrix(-1 -4.44338e-09 -4.44338e-09 1 240.865 348.024)" fill="#585858" fill-opacity="0.5"/>
</svg>
