<svg width="284" height="336" viewBox="0 0 284 336" fill="none" xmlns="http://www.w3.org/2000/svg">
<path d="M237.289 118.173C237.241 115.876 237.19 113.553 237.162 111.278C236.286 102.665 234.119 94.4787 230.894 86.8222C230.799 86.5869 230.709 86.3504 230.603 86.1226C224.314 71.5167 214.154 58.8316 201.694 48.9187C201.3 48.5882 200.895 48.3011 200.497 47.9897C194.986 43.7305 189.052 39.9932 182.803 36.857C173.302 32.0927 163.081 28.7205 152.63 26.9599C151.996 26.8556 151.371 26.771 150.745 26.6644C150.313 26.6136 149.873 26.5787 149.444 26.5542C135.427 25.1679 122.998 25.6035 112.213 27.0419C96.7408 29.0688 84.703 33.1157 76.3543 36.7599C70.8138 39.1946 66.9087 41.4434 64.7157 42.8029C61.878 44.6584 59.1176 46.6684 56.4946 48.8394C56.3292 48.96 56.1889 49.0739 56.052 49.2004C46.0933 57.3911 37.7371 67.5751 31.6039 78.9302C30.7305 80.5702 29.8952 82.218 29.1131 83.8966C27.3609 87.6094 25.835 91.446 24.584 95.3528C22.2312 102.632 21.0315 110.174 20.7936 117.75C20.7588 118.645 20.7475 119.56 20.751 120.48C20.7648 128.51 21.8129 136.561 23.7324 144.391C23.9161 145.128 24.104 145.864 24.3014 146.602C25.7188 152.001 27.5482 157.295 29.6968 162.404C30.1173 163.388 30.5397 164.362 30.9668 165.304C31.3382 166.121 31.7182 166.887 32.1187 167.678C34.7377 173.035 37.7878 178.087 41.1177 182.943C41.5555 183.572 41.9925 184.215 42.4428 184.84C50.6082 196.333 60.2701 206.752 69.4631 217.602C75.6702 224.933 81.9192 232.252 87.829 239.815C88.1112 240.198 88.4056 240.559 88.6539 240.933C89.0388 241.414 89.4186 241.911 89.7976 242.42C90.1595 242.917 90.5048 243.368 90.8228 243.817C91.2088 244.37 91.5573 244.816 91.877 245.306C94.0553 248.309 96.1418 251.372 98.1666 254.457C99.5109 256.492 100.976 258.625 102.327 260.87C102.455 261.047 102.556 261.24 102.673 261.442C102.945 261.886 103.196 262.34 103.433 262.789C104.455 264.61 105.302 266.482 105.89 268.396C105.906 268.472 105.943 268.561 105.944 268.633C106.035 268.869 106.073 269.048 106.126 269.227C106.114 269.1 106.075 268.989 106.062 268.871C105.998 268.632 105.945 268.399 105.891 268.148C105.428 265.998 105.02 263.816 104.527 261.688C104.526 261.585 104.501 261.524 104.476 261.432C104.449 261.345 104.435 261.227 104.412 261.139C104.449 261.228 104.49 261.316 104.503 261.429C105.289 263.578 105.788 265.696 106.055 267.821C106.122 268.271 106.165 268.735 106.182 269.185C106.203 269.363 153.179 269.091 153.179 269.091C153.65 268.87 153.889 268.622 154.076 268.262C154.339 267.666 154.497 266.963 154.972 265.884C155.671 264.313 156.434 262.765 157.269 261.252C158.47 259.021 159.737 256.957 161.039 254.937C161.244 254.626 161.45 254.324 161.649 254.01C162.953 252.03 164.281 250.057 165.597 248.124C168.078 244.481 170.721 240.907 173.454 237.368C187.144 219.61 203.187 202.971 215.813 184.676C215.968 184.419 216.141 184.175 216.311 183.918C220.086 178.379 223.537 172.702 226.487 166.782C226.708 166.381 226.895 165.989 227.098 165.589C230.171 159.339 232.682 152.817 234.44 145.953C234.563 145.507 234.688 145.033 234.788 144.584C236.178 138.843 237.054 132.848 237.294 126.588C237.37 124.824 237.379 123.042 237.349 121.266C237.343 120.239 237.315 119.208 237.289 118.173Z" fill="#E23C0A"/>
<path d="M102.56 261.436C102.736 261.758 102.904 262.068 103.092 262.368C103.181 262.533 103.257 262.697 103.349 262.874C104.406 265.045 105.781 268.47 106.145 269.361L124.525 269.252C125.166 268.626 125.808 267.987 126.449 267.358C126.987 266.832 127.551 266.303 128.081 265.766C129.629 264.265 131.193 262.736 132.725 261.257C133.394 260.616 134.034 259.986 134.702 259.358C135.403 259.948 136.123 260.573 136.897 261.233C139.617 263.539 142.769 266.236 146.129 269.121L153.178 269.082C153.649 268.861 153.888 268.613 154.075 268.253C154.338 267.657 154.496 266.954 154.971 265.875C155.669 264.304 156.433 262.756 157.268 261.243C158.469 259.012 159.736 256.948 161.038 254.928C161.242 254.617 161.449 254.315 161.648 254.001C150.883 244.699 141.831 237.128 141.184 236.591L133.839 230.468L126.87 237.019C119.014 244.418 110.006 253.226 102.33 260.86C102.458 261.037 102.559 261.23 102.676 261.432L102.56 261.436Z" fill="#FFA300"/>
<path d="M237.344 121.267C224.551 109.17 215.657 101.637 210.209 97.2621C202.066 104.9 189.661 116.207 184.899 120.527L177.53 127.23L170.284 120.434C159.091 109.984 142.384 97.8547 133.448 91.5597C115.504 105.189 99.1042 122.611 98.9255 122.816L91.2025 131.033L83.3439 122.972C73.6059 113.041 57.1863 100.102 48.3913 93.3606C41.5316 98.2376 29.9056 107.62 20.7354 120.489C20.7319 119.569 20.7432 118.653 20.778 117.759C21.0159 110.182 22.2156 102.641 24.5684 95.3614C25.8236 91.4535 27.3453 87.618 29.0975 83.9052C29.8754 82.2278 30.7149 80.5788 31.5883 78.9388C38.1967 73.8954 42.952 71.0956 43.4372 70.8266L49.5472 67.2959L55.2164 71.4904C56.1936 72.204 75.7508 86.6754 90.8046 100.303C99.0475 92.1978 112.897 79.3357 127.143 69.4858L129.233 68.0417L131.529 66.4478L133.195 65.3012L139.292 69.3991C140.302 70.0817 160.936 83.9952 177.534 98.054C188.981 87.5962 199.75 77.598 201.334 75.8758L207.483 69.149L215.187 74.0481C215.517 74.2564 220.318 77.4206 230.596 86.129C230.707 86.3599 230.797 86.5963 230.886 86.8286C234.116 94.4839 236.283 102.67 237.154 111.285C237.183 113.56 237.234 115.883 237.282 118.179C237.315 119.208 237.343 120.239 237.344 121.267Z" fill="#F2F2F2"/>
<path d="M237.345 121.267C237.374 123.039 237.367 124.824 237.29 126.588C237.051 132.848 236.174 138.843 234.785 144.584C234.685 145.034 234.559 145.503 234.437 145.954C225.921 137.232 219.537 130.919 214.942 126.492C213.999 125.603 213.15 124.765 212.355 124.025C212.283 124.093 212.216 124.147 212.143 124.225C206.619 129.36 199.356 136.003 193.455 141.338C193.22 141.554 192.97 141.778 192.739 141.988C189.533 144.886 186.804 147.368 185.027 148.971L177.952 155.362L177.684 155.618L170.452 148.84C169.348 147.823 168.205 146.772 167.015 145.684C166.733 145.404 166.427 145.167 166.119 144.872C160.352 139.706 153.777 134.109 147.668 129.058C147.343 128.785 147.043 128.52 146.733 128.27C146.604 128.156 146.495 128.051 146.369 127.967C145.954 127.607 145.554 127.269 145.158 126.948C140.981 123.513 137.117 120.404 134.028 117.897C117.37 133.662 98.9112 151.415 98.7083 151.631L90.9964 159.05L83.5185 151.403C74.0029 141.682 57.7782 128.112 48.4692 120.524C42.6244 126.037 33.5494 135.146 24.3004 146.611C24.1029 145.873 23.915 145.137 23.7313 144.4C21.8118 136.57 20.7637 128.519 20.7499 120.489C20.7464 119.569 20.7577 118.654 20.7925 117.759C31.9364 105.819 40.5764 98.5602 41.1895 98.0637L47.9149 92.4499L54.7997 97.8962C55.7868 98.6971 76.0739 114.789 91.2639 128.891C99.8467 120.646 114.213 106.896 126.051 95.7669L132.811 89.4249L140.109 95.1425C141.103 95.9327 161.472 111.962 177.831 126.421C190.493 114.915 202.521 103.843 204.204 102.022L211.147 94.4992L219.078 100.969C219.384 101.206 224.569 105.557 237.299 118.188C237.316 119.208 237.344 120.238 237.345 121.267Z" fill="#E23C0A"/>
<path d="M234.785 144.585C234.685 145.034 234.558 145.504 234.436 145.954C232.677 152.814 230.166 159.336 227.094 165.59C226.892 165.991 226.704 166.382 226.483 166.783C220.445 160.67 215.846 156.211 212.524 153.065C203.728 161.25 190.345 173.372 185.195 178.021L177.856 184.666L170.625 177.892C167.856 175.303 164.786 172.526 161.57 169.643C161.37 169.467 161.152 169.288 160.954 169.102C151.454 160.617 140.897 151.588 134.038 145.784C133.924 145.878 133.836 145.987 133.734 146.077C117.315 161.895 99.3037 180.247 99.0797 180.451L91.3824 188.311L83.6851 180.449C76.9292 173.552 66.864 164.347 58.224 156.656C57.8124 156.276 57.4534 155.959 57.1081 155.642C54.1465 153.02 51.3902 150.594 49.0295 148.538C44.7758 153.163 39.0073 159.599 32.1138 167.675C31.7145 166.888 31.3333 166.118 30.9619 165.301C30.5348 164.359 30.1124 163.385 29.6919 162.401C27.5433 157.292 25.7139 151.998 24.2966 146.599C24.0992 145.861 23.9112 145.125 23.7275 144.388C33.8034 132.94 40.0909 126.495 40.5393 126.038L47.5797 118.83L55.2609 125.389C56.2466 126.235 76.2538 143.363 91.2745 157.673C99.9009 149.003 114.336 134.618 126.201 123.46L133.172 116.913L140.515 123.032C140.787 123.242 142.478 124.695 145.155 126.94C145.551 127.261 145.951 127.599 146.367 127.959C146.489 128.048 146.597 128.149 146.731 128.262C147.039 128.508 147.34 128.777 147.665 129.05C152.459 133.115 159.177 138.826 166.117 144.864C166.429 145.158 166.731 145.396 167.012 145.676C170.684 148.886 174.404 152.177 177.95 155.354C183.255 150.646 188.416 145.971 192.736 141.98C192.967 141.77 193.218 141.546 193.452 141.331C199.21 136.03 203.412 132.088 204.363 131.056L211.306 123.533L212.14 124.218L214.939 126.484L219.236 129.998C219.534 130.238 223.995 133.982 234.785 144.585Z" fill="#FFD524"/>
<path d="M227.092 165.586C226.889 165.986 226.702 166.378 226.481 166.779C223.531 172.699 220.08 178.376 216.305 183.915C216.135 184.172 215.961 184.412 215.807 184.673C214.754 183.661 213.777 182.713 212.909 181.871C202.61 191.29 186.285 206.019 185.364 206.858L178.022 213.477L170.787 206.723C160.429 197.06 145.542 184.242 136.021 176.163L135.085 175.366C134.788 175.113 134.484 174.867 134.202 174.619C117.681 190.514 99.4671 209.064 99.2463 209.28L91.5449 217.141L83.8484 209.265C74.4562 199.686 58.6363 185.63 49.194 177.359C47.278 179.435 45.0124 181.951 42.4339 184.842C41.9824 184.213 41.5508 183.573 41.1088 182.946C37.7799 178.094 34.7299 173.041 32.1097 167.681C31.7104 166.893 31.3293 166.124 30.9579 165.306C36.8405 158.826 40.3609 155.206 40.7021 154.886L47.7445 147.669L48.9149 148.668L55.4257 154.227C55.5636 154.357 56.1657 154.861 57.1041 155.648C57.4494 155.964 57.8042 156.283 58.22 156.661C64.4239 161.998 79.5105 175.126 91.4371 186.503C100.071 177.827 114.499 163.466 126.367 152.284L133.342 145.755L133.725 146.079L140.677 151.876C141.307 152.417 150.258 159.894 160.941 169.11C161.139 169.295 161.357 169.471 161.558 169.651C166.981 174.32 172.797 179.414 178.182 184.278C187.283 176.038 202.089 162.637 205.504 159.36L212.602 152.536L220.034 158.987C220.237 159.157 222.311 160.983 227.092 165.586Z" fill="#F2F2F2"/>
<path d="M173.448 237.365L170.956 235.035C169.958 234.111 168.914 233.145 167.851 232.181C167.734 232.095 167.632 231.983 167.515 231.898C156.744 222.036 142.785 210.048 134.369 202.944C134.22 203.074 134.104 203.213 133.951 203.344C117.559 219.115 99.633 237.399 99.412 237.597L91.8753 245.302L88.648 240.93C88.3997 240.556 88.1053 240.195 87.8231 239.812C81.9175 232.248 75.6685 224.929 69.4572 217.599C60.2642 206.749 50.5982 196.331 42.437 184.837C41.9855 184.207 41.5538 183.568 41.1118 182.94L47.9132 175.981L55.5921 182.531C56.577 183.391 76.5872 200.514 91.606 214.833C100.238 206.152 114.668 191.778 126.539 180.609L133.509 174.062L134.176 174.639L135.085 175.366L136.021 176.163L140.844 180.184C141.822 181.001 162.109 197.95 178.356 212.575C187.455 204.344 202.263 190.934 205.677 187.657L212.776 180.869L216.301 183.916C216.131 184.173 215.957 184.413 215.802 184.674C203.176 202.965 187.134 219.608 173.57 237.198L173.448 237.365Z" fill="#E23C0A"/>
<path d="M173.449 237.365C170.72 240.903 168.073 244.478 165.592 248.121C164.276 250.054 162.948 252.027 161.644 254.007C161.444 254.317 161.242 254.622 161.034 254.934C151.639 246.573 141.287 237.737 134.537 232.007C123.361 242.752 111.407 254.739 104.768 261.43C104.7 261.48 104.627 261.558 104.574 261.63C104.13 262.068 103.772 262.429 103.433 262.789C103.257 262.702 103.177 262.539 103.088 262.374C102.9 262.074 102.736 261.763 102.556 261.442C102.556 261.24 102.45 261.048 102.322 260.871C100.971 258.627 99.5065 256.493 98.1622 254.458C96.1344 251.379 94.0478 248.315 91.8726 245.307L88.6454 240.936C89.7198 241.929 89.8677 242.918 90.8775 243.888C99.5112 235.212 114.832 220.828 126.701 209.669L133.676 203.121L134.85 203.346L141.91 209.244C142.668 209.877 154.325 220.365 167.514 231.907C167.627 231.994 167.733 232.105 167.85 232.19C169.76 233.854 171.676 235.543 173.577 237.205L173.449 237.365Z" fill="#FFD524"/>
<path d="M230.895 86.8269C219.855 78.4974 212.8 73.3887 208.435 70.3237C199.488 79.0706 185.223 93.0861 185.052 93.2668L178.456 99.7536L171.033 94.2086C154.5 81.8398 139.621 71.7875 131.538 66.4461C130.68 66.9182 129.959 67.4839 129.241 68.04C113.249 80.6351 97.8542 94.4901 97.6538 94.665L90.8404 100.824L83.6797 95.0512C70.5772 84.5192 56.123 74.5779 48.2776 69.3031C44.3561 72.0955 38.1267 76.6915 29.1058 83.9035C29.8837 82.2261 30.7232 80.5771 31.5966 78.9371C37.7309 67.5862 46.086 57.3981 56.0447 49.2073C56.1805 49.0766 56.3208 48.9627 56.4873 48.8463C61.936 52.4347 75.8313 61.7481 90.0248 72.6129C97.9669 65.685 111.617 54.0581 124.449 44.5146L130.414 40.0924C130.529 40.1695 136.668 44.0677 136.668 44.0677C137.157 44.3682 143.949 48.68 154.288 55.7323C154.347 55.7702 154.411 55.8071 154.466 55.8599C160.699 60.1145 168.223 65.3809 176.419 71.3617C176.887 71.0118 177.294 70.6156 177.727 70.2031C185.372 62.7031 196.338 51.9426 199.676 48.767L200.496 47.986C200.894 48.2974 201.299 48.5845 201.693 48.915C214.154 58.8321 224.313 71.513 230.602 86.1189C230.71 86.3551 230.8 86.5915 230.895 86.8269Z" fill="#FFA300"/>
<path d="M201.689 48.9193C193.424 56.3337 183.301 65.2736 182.658 65.8412L177.728 70.2063L176.421 71.3649L176.097 71.6356L169.073 66.3884C163.97 62.5637 159.055 59.0392 154.467 55.8631C154.412 55.8103 154.348 55.7734 154.289 55.7355C144.233 48.747 135.839 43.4033 130.543 40.1514C113.679 53.0651 97.0198 67.3168 96.8454 67.4713L90.4082 73.0036L83.5271 68.0415C72.966 60.4422 63.2946 53.935 56.05 49.2094C56.1858 49.0787 56.3261 48.9648 56.4926 48.8484C59.1198 46.6763 61.8759 44.6674 64.7136 42.8119C66.9066 41.4525 70.8118 39.2036 76.3522 36.7689C80.3127 39.4299 84.6596 42.4099 89.2611 45.6363C94.7766 41.0426 103.174 34.1051 112.209 27.0467C122.995 25.6083 135.425 25.177 149.441 26.559C156.228 30.9035 165.013 36.7673 174.892 43.8976C177.252 41.8015 180.021 39.3397 182.805 36.8607C189.053 39.9969 194.99 43.7289 200.498 47.9934C200.894 48.2964 201.295 48.5889 201.689 48.9193Z" fill="#FFD524"/>
<path d="M144.011 316.854L117.435 317.012C114.749 317.029 112.455 315.055 112.07 312.39L107.761 282.458L153.275 282.195L149.32 312.176C148.972 314.839 146.699 316.84 144.011 316.854Z" fill="#804929"/>
<path d="M126.983 25.8224C127.957 30.7741 128.786 35.7691 129.457 40.7973C130.622 49.4541 131.384 58.0481 131.875 66.6517C132.917 84.7552 132.773 102.964 132.638 120.852L132.583 127.18C132.44 150.934 132.154 170.39 131.865 189.2C131.494 214.654 131.149 238.862 131.198 269.583C131.226 274.239 131.237 279.049 131.264 284.056L132.597 284.05C132.564 279.04 132.55 274.231 132.526 269.574C132.472 238.886 132.845 214.666 133.211 189.226C133.501 170.403 133.791 150.963 133.943 127.176L133.982 120.87C134.108 103.304 134.259 85.3891 133.265 67.5966C132.778 58.4527 131.985 49.3412 130.746 40.3087C130.09 35.4203 129.283 30.5902 128.342 25.778L126.983 25.8224Z" fill="#804929"/>
<path d="M102.102 28.7261C100.936 31.707 99.8491 34.6982 98.8427 37.7219C95.0943 48.8883 92.3192 60.3337 90.5482 72.1395C90.4811 72.4091 90.4508 72.6823 90.4292 72.9711C89.166 81.334 88.4067 89.9171 88.1565 98.674C87.7733 111.704 88.4343 125.16 90.1757 139.144C93.3553 164.871 98.8044 191.775 105.927 216.924C108.287 225.293 110.831 232.3 113.281 239.054C116.969 249.233 120.289 258.419 121.999 269.631C122.683 274.188 123.119 279.091 123.177 284.548L124.514 284.541C124.461 279.086 124.038 274.181 123.368 269.624C121.659 258.214 118.279 248.923 114.557 238.601C112.102 231.861 109.566 224.865 107.216 216.552C100.133 191.469 94.6953 164.657 91.5039 138.986C89.8199 125.418 89.1467 112.37 89.4774 99.7316C89.7263 90.1303 90.553 80.7743 91.9909 71.6368C92.025 71.3445 92.0607 71.0744 92.1108 70.7914C94.014 58.8918 96.9189 47.3443 100.828 36.1078C101.708 33.5359 102.662 30.9532 103.682 28.4159L102.102 28.7261Z" fill="#804929"/>
<path d="M68.0272 40.8748C64.8744 44.1895 62.1276 47.8628 59.7522 51.6481C53.0752 62.2635 49.2251 73.8391 47.1659 81.7455C41.0443 105.104 42.2222 133.712 50.3045 158.298C54.9194 172.291 63.4407 184.426 71.6882 196.176C76.5797 203.158 81.6354 210.383 85.8603 217.929C87.9998 221.778 90.3827 225.899 92.7934 230.107C97.8766 238.947 103.129 248.083 107.259 256.266C112.039 265.789 116.082 274.467 116.901 284.533L115.547 284.644C114.751 274.801 110.949 266.584 106.051 256.872C101.945 248.715 96.6921 239.592 91.6263 230.783C89.1974 226.558 86.8354 222.431 84.6758 218.574C80.4898 211.089 75.455 203.908 70.5777 196.963C62.2898 185.13 53.6997 172.905 49.0248 158.721C40.8504 133.908 39.675 105.007 45.8475 81.4196C47.9445 73.4358 51.8467 61.7024 58.6571 50.93C60.3262 48.2504 62.2014 45.6189 64.2674 43.1297L68.0272 40.8748Z" fill="#804929"/>
<path d="M152.424 26.9294C153.512 28.0897 154.565 29.2907 155.55 30.519C164.123 41.117 169.741 54.4777 173.064 68.9154C173.115 69.0904 173.154 69.2867 173.179 69.4642C175.324 78.8746 176.494 88.7569 176.877 98.589C177.463 112.604 176.461 126.581 174.452 139.174C171.594 157.062 166.463 173.272 161.052 190.437C159.319 195.915 157.542 201.571 155.83 207.263C154.792 210.79 153.602 214.555 152.369 218.461C147.533 233.895 141.78 252.248 139.761 269.525C139.176 274.579 138.902 279.519 139.071 284.282L140.42 284.235C140.246 279.501 140.531 274.554 141.13 269.519C143.153 252.424 148.845 234.196 153.668 218.868C154.905 214.943 156.068 211.194 157.129 207.653C158.82 201.979 160.594 196.315 162.33 190.845C167.769 173.619 172.923 157.363 175.776 139.404C176.981 131.915 178.832 117.001 178.338 99.6674C178.066 90.5021 177.126 80.6392 175.061 70.8526C175.023 70.6606 174.984 70.4822 174.929 70.2767C172.082 57.0642 167.196 43.9884 159.085 32.8848C157.695 30.9471 156.207 29.0942 154.597 27.3096L152.424 26.9294Z" fill="#804929"/>
<path d="M193.063 42.7303C194.84 45.2428 196.449 47.8139 197.905 50.4665C198.137 50.8807 198.381 51.2737 198.595 51.6882C202.085 58.2495 204.712 65.1313 206.626 72.1007C215.047 102.487 210.333 134.334 208.008 146.203C202.388 174.931 187.835 197.273 174.345 215.323C164.428 228.625 151.851 247.671 147.859 269.484C146.952 274.324 146.476 279.331 146.56 284.417L147.888 284.408C147.809 279.325 148.294 274.337 149.214 269.477C153.222 248.046 165.616 229.255 175.434 216.119C189.004 197.945 203.657 175.458 209.326 146.461C211.681 134.418 216.495 101.907 207.743 71.02C205.778 64.1093 203.128 57.2784 199.622 50.789C199.403 50.3577 199.166 49.9225 198.926 49.4969C198.024 47.8871 197.053 46.291 196.044 44.7366L193.063 42.7303Z" fill="#804929"/>
<path d="M65.301 63.6866C65.301 66.0689 63.3695 68 60.9877 68C58.605 68 56.6743 66.0694 56.6743 63.6866C56.6743 61.3044 58.605 59.3733 60.9877 59.3733C63.3691 59.3733 65.301 61.3044 65.301 63.6866Z" fill="#FFFEFD"/>
</svg>
