<svg width="551" height="357" viewBox="0 0 551 357" fill="none" xmlns="http://www.w3.org/2000/svg">
<path d="M405.968 300.89H372.58V355.986H405.968V300.89Z" fill="#D8D8D7"/>
<path d="M405.968 330.947H372.58V332.297H405.968V330.947Z" fill="#CCCCCC"/>
<path d="M405.968 354.859H372.58V356.209H405.968V354.859Z" fill="#CCCCCC"/>
<path d="M405.968 314.259H372.58V315.607H405.968V314.259Z" fill="#CCCCCC"/>
<path d="M405.968 300.496H372.58V301.847H405.968V300.496Z" fill="#CCCCCC"/>
<path d="M251.753 300.89H210.976V355.986H251.753V300.89Z" fill="#D8D8D7"/>
<path d="M251.753 330.947H210.976V332.297H251.753V330.947Z" fill="#CCCCCC"/>
<path d="M251.753 354.859H210.976V356.209H251.753V354.859Z" fill="#CCCCCC"/>
<path d="M251.753 314.259H210.976V315.607H251.753V314.259Z" fill="#CCCCCC"/>
<path d="M251.753 300.496H210.976V301.847H251.753V300.496Z" fill="#CCCCCC"/>
<path d="M550.77 141.745C550.77 185.102 515.624 220.248 472.266 220.248C428.909 220.248 393.76 185.102 393.76 141.745C393.76 98.3882 428.909 63.2412 472.266 63.2412C515.624 63.2412 550.77 98.3882 550.77 141.745Z" fill="#78BC3C"/>
<path d="M432.228 78.505C432.228 121.86 397.08 157.006 353.722 157.006C310.364 157.006 275.218 121.86 275.218 78.505C275.218 35.148 310.364 0 353.722 0C397.08 0 432.228 35.147 432.228 78.505Z" fill="#8BD346"/>
<path d="M156.108 183.167C199.465 183.167 234.612 148.02 234.612 104.663C234.612 61.3066 199.465 26.1592 156.108 26.1592C112.751 26.1592 77.604 61.3066 77.604 104.663C77.604 148.02 112.751 183.167 156.108 183.167Z" fill="#70AA39"/>
<path d="M301.384 137.149C301.384 180.506 266.238 215.652 222.881 215.652C179.523 215.652 144.376 180.506 144.376 137.149C144.376 93.7915 179.523 58.6445 222.881 58.6445C266.238 58.6435 301.384 93.7905 301.384 137.149Z" fill="#78BC3C"/>
<path d="M157.01 175.046C157.01 218.404 121.863 253.55 78.504 253.55C35.148 253.55 0 218.404 0 175.046C0 131.689 35.148 96.542 78.504 96.542C121.863 96.541 157.01 131.689 157.01 175.046Z" fill="#78BC3C"/>
<path d="M52.787 125.891C52.787 127.636 51.375 129.05 49.631 129.05C47.885 129.05 46.469 127.635 46.469 125.891C46.469 124.146 47.885 122.732 49.631 122.732C51.375 122.732 52.787 124.146 52.787 125.891Z" fill="#E5237B"/>
<path d="M69.933 137.172C69.933 138.916 68.518 140.331 66.775 140.331C65.031 140.331 63.615 138.916 63.615 137.172C63.615 135.427 65.031 134.013 66.775 134.013C68.518 134.012 69.933 135.427 69.933 137.172Z" fill="#E5237B"/>
<path d="M78.7321 120.252C78.7321 121.997 77.3161 123.412 75.5731 123.412C73.8271 123.412 72.4141 121.997 72.4141 120.252C72.4141 118.508 73.8271 117.093 75.5731 117.093C77.3161 117.093 78.7321 118.508 78.7321 120.252Z" fill="#E5237B"/>
<path d="M48.277 147.547C48.277 149.292 46.863 150.706 45.118 150.706C43.374 150.706 41.959 149.292 41.959 147.547C41.959 145.802 43.374 144.388 45.118 144.388C46.863 144.388 48.277 145.802 48.277 147.547Z" fill="#E5237B"/>
<path d="M31.8112 136.944C31.8112 138.689 30.3942 140.102 28.6522 140.102C26.9072 140.102 25.4932 138.688 25.4932 136.944C25.4932 135.199 26.9072 133.785 28.6522 133.785C30.3942 133.785 31.8112 135.199 31.8112 136.944Z" fill="#E5237B"/>
<path d="M36.7741 120.252C36.7741 121.997 35.3601 123.412 33.6151 123.412C31.8711 123.412 30.4551 121.997 30.4551 120.252C30.4551 118.508 31.8711 117.093 33.6151 117.093C35.3601 117.093 36.7741 118.508 36.7741 120.252Z" fill="#E5237B"/>
<path d="M62.4901 107.619C62.4901 109.363 61.0731 110.778 59.3311 110.778C57.5861 110.778 56.1721 109.363 56.1721 107.619C56.1721 105.874 57.5861 104.46 59.3311 104.46C61.0731 104.46 62.4901 105.874 62.4901 107.619Z" fill="#E5237B"/>
<path d="M91.816 142.135C91.816 143.879 90.401 145.294 88.656 145.294C86.912 145.294 85.498 143.879 85.498 142.135C85.498 140.39 86.912 138.975 88.656 138.975C90.401 138.975 91.816 140.389 91.816 142.135Z" fill="#E5237B"/>
<path d="M71.5131 174.165C71.5131 175.91 70.0991 177.325 68.3531 177.325C66.6091 177.325 65.1951 175.91 65.1951 174.165C65.1951 172.42 66.6091 171.006 68.3531 171.006C70.0991 171.006 71.5131 172.421 71.5131 174.165Z" fill="#E5237B"/>
<path d="M33.389 175.971C33.389 177.716 31.972 179.13 30.23 179.13C28.485 179.13 27.071 177.716 27.071 175.971C27.071 174.226 28.485 172.812 30.23 172.812C31.972 172.812 33.389 174.226 33.389 175.971Z" fill="#E5237B"/>
<path d="M22.7872 159.729C22.7872 161.473 21.3732 162.888 19.6262 162.888C17.8842 162.888 16.4702 161.473 16.4702 159.729C16.4702 157.983 17.8842 156.57 19.6262 156.57C21.3722 156.57 22.7872 157.984 22.7872 159.729Z" fill="#E5237B"/>
<path d="M46.0192 165.596C46.0192 167.341 44.6072 168.755 42.8622 168.755C41.1182 168.755 39.7012 167.34 39.7012 165.596C39.7012 163.851 41.1182 162.437 42.8622 162.437C44.6072 162.437 46.0192 163.851 46.0192 165.596Z" fill="#E5237B"/>
<path d="M67.6762 157.474C67.6762 159.219 66.2632 160.633 64.5182 160.633C62.7742 160.633 61.3572 159.219 61.3572 157.474C61.3572 155.729 62.7742 154.315 64.5182 154.315C66.2632 154.315 67.6762 155.729 67.6762 157.474Z" fill="#E5237B"/>
<path d="M95.8751 167.173C95.8751 168.918 94.4621 170.332 92.7141 170.332C90.9721 170.332 89.5571 168.918 89.5571 167.173C89.5571 165.428 90.9721 164.014 92.7141 164.014C94.4621 164.014 95.8751 165.428 95.8751 167.173Z" fill="#E5237B"/>
<path d="M127.23 124.538C127.23 126.283 125.816 127.697 124.074 127.697C122.329 127.697 120.912 126.283 120.912 124.538C120.912 122.793 122.329 121.379 124.074 121.379C125.816 121.379 127.23 122.793 127.23 124.538Z" fill="#E5237B"/>
<path d="M38.8021 214.77C38.8021 216.516 37.3871 217.929 35.6441 217.929C33.8991 217.929 32.4861 216.515 32.4861 214.77C32.4861 213.026 33.8991 211.611 35.6441 211.611C37.3871 211.612 38.8021 213.026 38.8021 214.77Z" fill="#E5237B"/>
<path d="M92.493 98.8201C92.493 100.565 91.078 101.979 89.332 101.979C87.589 101.979 86.175 100.564 86.175 98.8201C86.175 97.0751 87.589 95.6611 89.332 95.6611C91.078 95.6611 92.493 97.0751 92.493 98.8201Z" fill="#E5237B"/>
<path d="M109.412 129.5C109.412 131.245 107.996 132.659 106.251 132.659C104.508 132.659 103.094 131.245 103.094 129.5C103.094 127.755 104.508 126.341 106.251 126.341C107.996 126.341 109.412 127.755 109.412 129.5Z" fill="#E5237B"/>
<path d="M98.805 111.68C98.805 113.425 97.393 114.839 95.649 114.839C93.904 114.839 92.488 113.425 92.488 111.68C92.488 109.936 93.904 108.521 95.649 108.521C97.393 108.522 98.805 109.936 98.805 111.68Z" fill="#E5237B"/>
<path d="M121.365 109.649C121.365 111.394 119.951 112.808 118.206 112.808C116.463 112.808 115.047 111.394 115.047 109.649C115.047 107.905 116.463 106.49 118.206 106.49C119.951 106.49 121.365 107.905 121.365 109.649Z" fill="#E5237B"/>
<path d="M111.215 152.737C111.215 154.482 109.799 155.896 108.056 155.896C106.311 155.896 104.897 154.482 104.897 152.737C104.897 150.992 106.311 149.578 108.056 149.578C109.799 149.578 111.215 150.992 111.215 152.737Z" fill="#E5237B"/>
<path d="M69.483 195.596C69.483 197.342 68.068 198.755 66.322 198.755C64.579 198.755 63.165 197.341 63.165 195.596C63.165 193.852 64.579 192.438 66.322 192.438C68.068 192.438 69.483 193.853 69.483 195.596Z" fill="#E5237B"/>
<path d="M45.1192 191.312C45.1192 193.056 43.7062 194.472 41.9592 194.472C40.2172 194.472 38.8032 193.056 38.8032 191.312C38.8032 189.567 40.2172 188.153 41.9592 188.153C43.7062 188.152 45.1192 189.567 45.1192 191.312Z" fill="#E5237B"/>
<path d="M56.1351 236.604C56.1351 238.35 54.7201 239.763 52.9771 239.763C51.2321 239.763 49.8191 238.349 49.8191 236.604C49.8191 234.86 51.2321 233.445 52.9771 233.445C54.7201 233.445 56.1351 234.86 56.1351 236.604Z" fill="#E5237B"/>
<path d="M86.816 217.43C86.816 219.176 85.401 220.589 83.655 220.589C81.912 220.589 80.498 219.175 80.498 217.43C80.498 215.686 81.912 214.271 83.655 214.271C85.401 214.271 86.816 215.686 86.816 217.43Z" fill="#E5237B"/>
<path d="M80.816 241.43C80.816 243.176 79.401 244.589 77.655 244.589C75.912 244.589 74.498 243.175 74.498 241.43C74.498 239.686 75.912 238.271 77.655 238.271C79.401 238.271 80.816 239.686 80.816 241.43Z" fill="#E5237B"/>
<path d="M62.4522 213.145C62.4522 214.889 61.0392 216.305 59.2922 216.305C57.5502 216.305 56.1362 214.889 56.1362 213.145C56.1362 211.4 57.5502 209.986 59.2922 209.986C61.0392 209.986 62.4522 211.4 62.4522 213.145Z" fill="#E5237B"/>
<path d="M19.4042 199.433C19.4042 201.178 17.9882 202.592 16.2432 202.592C14.5002 202.592 13.0862 201.178 13.0862 199.433C13.0862 197.688 14.5002 196.273 16.2432 196.273C17.9882 196.273 19.4042 197.688 19.4042 199.433Z" fill="#E5237B"/>
<path d="M11.2821 175.069C11.2821 176.813 9.86809 178.228 8.12109 178.228C6.37909 178.228 4.96509 176.813 4.96509 175.069C4.96509 173.325 6.37909 171.91 8.12109 171.91C9.86809 171.91 11.2821 173.325 11.2821 175.069Z" fill="#E5237B"/>
<path d="M394.107 47.8501C392.486 47.953 391.089 46.7351 390.987 45.128C390.885 43.5191 392.117 42.1308 393.738 42.028C395.36 41.9251 396.757 43.1467 396.859 44.7556C396.961 46.3627 395.729 47.7472 394.107 47.8501Z" fill="#E5237B"/>
<path d="M384.625 64.3149C383.005 64.4177 381.607 63.1972 381.505 61.591C381.403 59.9839 382.635 58.5956 384.256 58.4928C385.878 58.39 387.275 59.6115 387.377 61.2186C387.479 62.8247 386.247 64.2121 384.625 64.3149Z" fill="#E5237B"/>
<path d="M400.864 71.4262C399.243 71.5291 397.845 70.3076 397.743 68.7015C397.641 67.0925 398.873 65.707 400.495 65.6042C402.116 65.5014 403.513 66.7201 403.616 68.329C403.717 69.9352 402.485 71.3235 400.864 71.4262Z" fill="#E5237B"/>
<path d="M373.718 44.9702C372.096 45.073 370.699 43.8534 370.597 42.2453C370.495 40.6382 371.727 39.251 373.349 39.1481C374.97 39.0453 376.367 40.2658 376.469 41.873C376.571 43.481 375.34 44.8673 373.718 44.9702Z" fill="#E5237B"/>
<path d="M382.609 29.1714C380.988 29.2742 379.592 28.0517 379.49 26.4465C379.388 24.8384 380.619 23.4521 382.24 23.3493C383.862 23.2464 385.259 24.4661 385.361 26.0741C385.462 27.6794 384.231 29.0685 382.609 29.1714Z" fill="#E5237B"/>
<path d="M398.412 32.7621C396.791 32.865 395.393 31.6453 395.291 30.0373C395.189 28.4302 396.421 27.042 398.043 26.9391C399.664 26.8363 401.062 28.0578 401.163 29.6649C401.265 31.2729 400.033 32.6593 398.412 32.7621Z" fill="#E5237B"/>
<path d="M411.656 55.7143C410.035 55.8171 408.637 54.5947 408.535 52.9895C408.433 51.3814 409.666 49.995 411.286 49.8922C412.908 49.7894 414.305 51.0091 414.407 52.6171C414.509 54.2224 413.277 55.6115 411.656 55.7143Z" fill="#E5237B"/>
<path d="M381.293 84.773C379.672 84.8758 378.274 83.6552 378.172 82.0472C378.07 80.4401 379.303 79.0537 380.924 78.9509C382.545 78.848 383.943 80.0677 384.045 81.6748C384.147 83.2828 382.915 84.6701 381.293 84.773Z" fill="#E5237B"/>
<path d="M350.338 67.9516C348.716 68.0545 347.319 66.8349 347.217 65.2259C347.115 63.6188 348.347 62.2324 349.969 62.1296C351.591 62.0267 352.987 63.2464 353.089 64.8535C353.191 66.4624 351.959 67.8488 350.338 67.9516Z" fill="#E5237B"/>
<path d="M346.432 32.9272C344.81 33.0301 343.413 31.8076 343.311 30.2024C343.209 28.5943 344.441 27.208 346.062 27.1051C347.684 27.0023 349.081 28.222 349.183 29.83C349.285 31.4353 348.053 32.8244 346.432 32.9272Z" fill="#E5237B"/>
<path d="M360.907 22.1988C359.286 22.3016 357.888 21.082 357.786 19.4721C357.684 17.8668 358.917 16.4804 360.538 16.3776C362.16 16.2747 363.556 17.4944 363.658 19.0997C363.76 20.7086 362.528 22.0959 360.907 22.1988Z" fill="#E5237B"/>
<path d="M356.813 43.9536C355.191 44.0564 353.794 42.8386 353.692 41.2306C353.591 39.6235 354.823 38.2343 356.444 38.1315C358.065 38.0287 359.462 39.2511 359.564 40.8582C359.666 42.4662 358.435 43.8507 356.813 43.9536Z" fill="#E5237B"/>
<path d="M365.626 63.4321C364.004 63.5349 362.607 62.3162 362.505 60.7081C362.404 59.101 363.635 57.7119 365.257 57.609C366.878 57.5062 368.275 58.7286 368.377 60.3357C368.479 61.9438 367.248 63.3292 365.626 63.4321Z" fill="#E5237B"/>
<path d="M358.26 89.9897C356.638 90.0926 355.242 88.8738 355.14 87.263C355.038 85.6578 356.269 84.2705 357.891 84.1676C359.513 84.0648 360.909 85.2854 361.011 86.8907C361.113 88.5015 359.882 89.8869 358.26 89.9897Z" fill="#E5237B"/>
<path d="M399.716 116.371C398.094 116.473 396.697 115.254 396.595 113.648C396.493 112.04 397.725 110.651 399.346 110.548C400.968 110.446 402.365 111.668 402.467 113.276C402.569 114.881 401.337 116.268 399.716 116.371Z" fill="#E5237B"/>
<path d="M310.69 40.2018C309.067 40.3047 307.672 39.084 307.57 37.4778C307.468 35.8698 308.699 34.4844 310.321 34.3815C311.942 34.2787 313.339 35.4974 313.441 37.1055C313.542 38.7117 312.311 40.099 310.69 40.2018Z" fill="#E5237B"/>
<path d="M421.586 82.8432C419.965 82.9461 418.568 81.7255 418.466 80.1165C418.364 78.5103 419.596 77.1239 421.217 77.0212C422.839 76.9183 424.236 78.138 424.338 79.7441C424.44 81.3531 423.208 82.7404 421.586 82.8432Z" fill="#E5237B"/>
<path d="M394.063 100.244C392.441 100.347 391.044 99.125 390.942 97.5169C390.84 95.9108 392.072 94.5244 393.694 94.4215C395.315 94.3187 396.712 95.5384 396.814 97.1446C396.916 98.7526 395.685 100.141 394.063 100.244Z" fill="#E5237B"/>
<path d="M410.005 89.4185C408.383 89.5213 406.987 88.3035 406.885 86.6964C406.783 85.0884 408.014 83.7002 409.636 83.5973C411.256 83.4945 412.654 84.716 412.756 86.324C412.857 87.9312 411.626 89.3157 410.005 89.4185Z" fill="#E5237B"/>
<path d="M413.21 110.088C411.588 110.191 410.191 108.972 410.089 107.364C409.987 105.757 411.219 104.369 412.841 104.266C414.461 104.163 415.859 105.385 415.961 106.991C416.063 108.599 414.831 109.986 413.21 110.088Z" fill="#E5237B"/>
<path d="M372.573 103.275C370.951 103.378 369.554 102.156 369.452 100.55C369.35 98.942 370.582 97.5556 372.203 97.4528C373.825 97.3499 375.222 98.5696 375.324 100.178C375.426 101.784 374.194 103.172 372.573 103.275Z" fill="#E5237B"/>
<path d="M330.303 67.3442C328.68 67.4471 327.284 66.2265 327.182 64.6175C327.08 63.0113 328.312 61.625 329.933 61.5221C331.554 61.4193 332.952 62.6389 333.054 64.2451C333.156 65.8541 331.922 67.2415 330.303 67.3442Z" fill="#E5237B"/>
<path d="M332.86 44.6393C331.239 44.7421 329.841 43.5234 329.739 41.9135C329.637 40.3083 330.87 38.9218 332.491 38.819C334.113 38.7162 335.509 39.9358 335.611 41.5411C335.714 43.1509 334.482 44.5364 332.86 44.6393Z" fill="#E5237B"/>
<path d="M291.412 57.4615C289.789 57.5644 288.393 56.3438 288.291 54.7376C288.189 53.1296 289.421 51.7441 291.042 51.6413C292.663 51.5385 294.061 52.7572 294.163 54.3652C294.265 55.9714 293.032 57.3587 291.412 57.4615Z" fill="#E5237B"/>
<path d="M311.024 84.603C309.402 84.7059 308.006 83.4852 307.904 81.8763C307.802 80.2701 309.033 78.8838 310.655 78.7809C312.276 78.6781 313.673 79.8977 313.775 81.5039C313.877 83.1129 312.645 84.5002 311.024 84.603Z" fill="#E5237B"/>
<path d="M288.369 80.4887C286.746 80.5917 285.35 79.371 285.248 77.762C285.146 76.1559 286.378 74.7695 287.999 74.6667C289.62 74.5639 291.018 75.7835 291.12 77.3897C291.222 78.9986 289.99 80.386 288.369 80.4887Z" fill="#E5237B"/>
<path d="M313.582 61.9C311.962 62.0028 310.563 60.7841 310.461 59.1743C310.359 57.569 311.593 56.1825 313.213 56.0797C314.835 55.9769 316.232 57.1965 316.334 58.8018C316.436 60.4117 315.204 61.7971 313.582 61.9Z" fill="#E5237B"/>
<path d="M323.81 21.4214C322.188 21.5243 320.791 20.3028 320.689 18.6947C320.587 17.0886 321.819 15.7022 323.441 15.5993C325.062 15.4965 326.46 16.7161 326.562 18.3223C326.664 19.9303 325.432 21.3186 323.81 21.4214Z" fill="#E5237B"/>
<path d="M345.978 12.5015C344.357 12.6043 342.96 11.3847 342.857 9.77481C342.756 8.16954 343.988 6.78313 345.609 6.68033C347.23 6.57754 348.627 7.79716 348.729 9.40243C348.831 11.0123 347.599 12.3987 345.978 12.5015Z" fill="#E5237B"/>
<path d="M504.234 184.886H89.5251V300.319H504.234V184.886Z" fill="#90523D"/>
<path d="M372.432 184.886H89.5251V300.319H372.432V184.886Z" fill="#BF7459"/>
<path d="M372.432 276.345H89.5251V300.319H372.432V276.345Z" fill="#90523D"/>
<path d="M453.105 97.2256H140.654L89.5251 186.295H504.234L453.105 97.2256Z" fill="#895E4A"/>
<path d="M91.7363 182.44H502.017L485.713 154.035H108.039L91.7363 182.44Z" fill="#895E4A"/>
<path opacity="0.28" d="M108.039 154.036H485.713L469.409 125.628H124.342L108.039 154.036Z" fill="#6E4836"/>
<path opacity="0.57" d="M469.407 125.628L453.105 97.2256H140.654L124.347 125.628H469.407Z" fill="#6E4836"/>
<path opacity="0.25" d="M453.105 97.2256H323.658L374.786 186.295H504.234L453.105 97.2256Z" fill="#895E4A"/>
<path d="M81.6262 182.074L511.249 181.868V189.146C511.249 193.659 507.593 197.499 503.089 197.499H89.8052C85.2822 197.499 81.6262 193.846 81.6262 189.349V182.074Z" fill="#E6E3D5"/>
<path d="M89.8053 197.5H503.089C507.082 197.5 510.4 194.64 511.103 190.844H81.7793C82.4853 194.629 85.8003 197.5 89.8053 197.5Z" fill="#DAD7C9"/>
<path d="M81.6262 186.656H511.25V181.868L81.6262 182.074V186.656Z" fill="#6E4836"/>
<path d="M305.112 186.981H156.836V300.318H305.112V186.981Z" fill="#D99878"/>
<path d="M284.661 183.574H262.506V234.703H284.661V183.574Z" fill="#E6E3D5"/>
<path d="M281.54 186.981H265.627V231.295H281.54V186.981Z" fill="#DAD7C9"/>
<path d="M278.981 189.538H268.184V228.737H278.981V189.538Z" fill="#895E4A"/>
<path d="M281.677 186.981H279.12V231.295H281.677V186.981Z" fill="#DAD7C9"/>
<path d="M281.466 200.831H265.699V203.387H281.466V200.831Z" fill="#DAD7C9"/>
<path d="M281.466 215.529H265.699V218.085H281.466V215.529Z" fill="#DAD7C9"/>
<path d="M248.871 189.539H213.08V266.66H248.871V189.539Z" fill="#E6E3D5"/>
<path d="M245.749 192.949H216.203V263.251H245.749V192.949Z" fill="#DAD7C9"/>
<path d="M243.192 195.506H218.759V260.696H243.192V195.506Z" fill="#A46254"/>
<path d="M199.228 183.574H177.003V234.703H199.228V183.574Z" fill="#E6E3D5"/>
<path d="M196.106 186.981H180.133V231.295H196.106V186.981Z" fill="#DAD7C9"/>
<path d="M193.549 189.538H182.69V228.737H193.549V189.538Z" fill="#895E4A"/>
<path d="M182.614 186.981H180.057V231.295H182.614V186.981Z" fill="#DAD7C9"/>
<path d="M196.038 200.831H180.199V203.387H196.038V200.831Z" fill="#DAD7C9"/>
<path d="M196.038 215.529H180.199V218.085H196.038V215.529Z" fill="#DAD7C9"/>
<path d="M305.112 265.381H156.836V300.32H305.112V265.381Z" fill="#B39260"/>
<path d="M149.797 264.454L312.418 264.245V268.109C312.418 272.622 308.762 276.468 304.259 276.468H157.977C153.454 276.468 149.797 272.812 149.797 268.316V264.454Z" fill="#E6E3D5"/>
<path d="M157.977 276.468H304.259C308.25 276.468 311.568 273.605 312.268 269.805H149.953C150.659 273.594 153.972 276.468 157.977 276.468Z" fill="#DAD7C9"/>
<path d="M171.61 186.417H156.836V265.38H171.61V186.417Z" fill="#E6E3D5"/>
<path d="M171.611 186.417H164.224V264.243H171.611V186.417Z" fill="#DAD7C9"/>
<path d="M305.112 186.417H290.338V265.38H305.112V186.417Z" fill="#E6E3D5"/>
<path d="M305.113 186.417H297.723V264.243H305.113V186.417Z" fill="#DAD7C9"/>
<path d="M142.066 205.73H106.277V256.859H142.066V205.73Z" fill="#E6E3D5"/>
<path d="M138.943 209.137H109.404V253.451H138.943V209.137Z" fill="#DAD7C9"/>
<path d="M136.386 211.695H111.96V250.894H136.386V211.695Z" fill="#895E4A"/>
<path d="M125.448 209.137H122.891V253.451H125.448V209.137Z" fill="#DAD7C9"/>
<path d="M138.869 222.987H109.47V225.543H138.869V222.987Z" fill="#DAD7C9"/>
<path d="M138.869 237.686H109.47V240.242H138.869V237.686Z" fill="#DAD7C9"/>
<path d="M163.076 126.354H137.16V153.197H163.076V126.354Z" fill="#E6E3D5"/>
<path d="M160.812 128.823H139.421V151.193H160.812V128.823Z" fill="#DAD7C9"/>
<path d="M158.961 130.674H141.273V149.343H158.961V130.674Z" fill="#895E4A"/>
<path d="M151.043 128.823H149.191V150.574H151.043V128.823Z" fill="#DAD7C9"/>
<path d="M160.762 138.851H139.472V140.702H160.762V138.851Z" fill="#DAD7C9"/>
<path d="M325.887 126.354H299.971V153.197H325.887V126.354Z" fill="#E6E3D5"/>
<path d="M323.623 128.823H302.233V151.193H323.623V128.823Z" fill="#DAD7C9"/>
<path d="M321.772 130.674H304.08V149.343H321.772V130.674Z" fill="#895E4A"/>
<path d="M313.853 128.823H312.002V150.574H313.853V128.823Z" fill="#DAD7C9"/>
<path d="M323.573 138.851H302.283V140.702H323.573V138.851Z" fill="#DAD7C9"/>
<path d="M357.234 205.73H321.443V256.859H357.234V205.73Z" fill="#E6E3D5"/>
<path d="M354.109 209.137H324.573V253.451H354.109V209.137Z" fill="#DAD7C9"/>
<path d="M351.552 211.695H327.129V250.894H351.552V211.695Z" fill="#895E4A"/>
<path d="M340.617 209.137H338.06V253.451H340.617V209.137Z" fill="#DAD7C9"/>
<path d="M354.038 222.987H324.638V225.543H354.038V222.987Z" fill="#DAD7C9"/>
<path d="M354.038 237.686H324.638V240.242H354.038V237.686Z" fill="#DAD7C9"/>
<path d="M486.898 205.73H438.461V256.859H486.898V205.73Z" fill="#CFCCBE"/>
<path d="M483.776 209.137H441.59V253.451H483.776V209.137Z" fill="#DAD7C9"/>
<path d="M481.219 211.695H444.147V250.894H481.219V211.695Z" fill="#895E4A"/>
<path d="M457.923 208.572H455.367V252.884H457.923V208.572Z" fill="#DAD7C9"/>
<path d="M470.704 208.572H468.148V252.884H470.704V208.572Z" fill="#DAD7C9"/>
<path d="M456.219 222.979H441.658V225.535H456.219V222.979Z" fill="#DAD7C9"/>
<path d="M149.665 174.98L312.286 174.771V178.633C312.286 183.148 308.626 186.992 304.125 186.992H157.84C153.319 186.992 149.665 183.339 149.665 178.842V174.98Z" fill="#DAD7C9"/>
<path d="M155.274 186.993H304.126C323.147 186.993 311.434 184.13 312.137 180.334H149.818C150.524 184.122 151.274 186.993 155.274 186.993Z" fill="#DAD7C9"/>
<path d="M230.977 125.201L268.855 150.054L306.734 174.905H230.977H155.213L193.093 150.054L230.977 125.201Z" fill="#D99878"/>
<path d="M231.458 121.162V135.667L307.177 185.049C310.964 187.519 316.02 186.453 318.479 182.685L320.59 179.453L231.458 121.162Z" fill="#E6E3D5"/>
<path d="M231.458 127.714V135.668L307.177 185.05C310.526 187.236 314.871 186.636 317.536 183.855L231.458 127.714Z" fill="#DAD7C9"/>
<path d="M231.458 121.343L142.602 179.454L144.711 182.686C147.169 186.454 152.224 187.519 156.012 185.05L231.458 135.848V121.343Z" fill="#E6E3D5"/>
<path d="M231.458 127.893L145.653 183.855C148.315 186.636 152.661 187.236 156.011 185.05L231.457 135.848L231.458 127.893Z" fill="#DAD7C9"/>
<path d="M208.255 239.816H168.414V243.652H208.255V239.816Z" fill="#E6E3D5"/>
<path d="M210.384 236.408H204.844V265.379H210.384V236.408Z" fill="#E6E3D5"/>
<path d="M201.437 241.521H198.88V264.528H201.437V241.521Z" fill="#E6E3D5"/>
<path d="M195.472 241.521H192.915V264.528H195.472V241.521Z" fill="#E6E3D5"/>
<path d="M189.507 241.521H186.95V264.528H189.507V241.521Z" fill="#E6E3D5"/>
<path d="M183.544 241.521H180.984V264.528H183.544V241.521Z" fill="#E6E3D5"/>
<path d="M177.578 241.521H175.021V264.528H177.578V241.521Z" fill="#E6E3D5"/>
<path d="M297.088 239.816H254.054V243.652H297.088V239.816Z" fill="#E6E3D5"/>
<path d="M257.461 236.408H251.921V265.379H257.461V236.408Z" fill="#E6E3D5"/>
<path d="M263.425 241.521H260.871V264.528H263.425V241.521Z" fill="#E6E3D5"/>
<path d="M269.392 241.521H266.836V264.528H269.392V241.521Z" fill="#E6E3D5"/>
<path d="M275.359 241.521H272.802V264.528H275.359V241.521Z" fill="#E6E3D5"/>
<path d="M281.322 241.521H278.765V264.528H281.322V241.521Z" fill="#E6E3D5"/>
<path d="M287.287 241.521H284.73V264.528H287.287V241.521Z" fill="#E6E3D5"/>
<path d="M290.338 186.981H171.464V211.717H290.338V186.981Z" fill="#DAD7C9"/>
<path d="M226.402 198.062H221.315V218.086H226.402V198.062Z" fill="#6E4836"/>
<path d="M233.446 198.062H228.36V218.086H233.446V198.062Z" fill="#6E4836"/>
<path d="M240.489 198.062H235.402V218.086H240.489V198.062Z" fill="#6E4836"/>
<path d="M240.489 220.217H221.105V257.711H240.489V220.217Z" fill="#92584A"/>
<path d="M418.022 205.73H382.232V282.85H418.022V205.73Z" fill="#CFCCBE"/>
<path d="M414.9 209.137H385.353V279.441H414.9V209.137Z" fill="#DAD7C9"/>
<path d="M412.344 211.695H387.91V276.883H412.344V211.695Z" fill="#A46254"/>
<path d="M395.553 214.253H390.466V234.278H395.553V214.253Z" fill="#6E4836"/>
<path d="M402.597 214.253H397.511V234.278H402.597V214.253Z" fill="#6E4836"/>
<path d="M409.64 214.253H404.554V234.278H409.64V214.253Z" fill="#6E4836"/>
<path d="M409.64 236.408H390.253V273.901H409.64V236.408Z" fill="#92584A"/>
<path d="M251.994 263.678H209.958V300.606H251.994V263.678Z" fill="#E6E3D5"/>
<path d="M251.994 272.764H209.958V300.605H251.994V272.764Z" fill="#DAD7C9"/>
<path d="M251.994 282.277H209.958V300.604H251.994V282.277Z" fill="#E6E3D5"/>
<path d="M251.994 291.444H209.958V300.604H251.994V291.444Z" fill="#DAD7C9"/>
<path d="M429.811 282.711H372.432V300.319H429.811V282.711Z" fill="#CFCCBE"/>
<path d="M437.193 291.231H372.432V300.319H437.193V291.231Z" fill="#DAD7C9"/>
<path d="M209.958 269.927H192.489V300.319H209.958V269.927Z" fill="#A48253"/>
<path d="M269.462 269.927H251.994V300.319H269.462V269.927Z" fill="#A48253"/>
<path d="M80.6495 273.625V270.791C80.6495 268.703 78.9571 267.011 76.8697 267.011H70.3635C68.2759 267.011 66.5837 268.703 66.5837 270.791V273.625" stroke="#48455C" stroke-width="1.23254" stroke-miterlimit="10"/>
<path d="M41.5767 339.001C41.5545 339.001 41.5324 339 41.5099 338.999C40.6976 338.963 40.0683 338.275 40.1045 337.462L40.8764 320.187C40.9129 319.374 41.605 318.753 42.4131 318.781C43.2255 318.817 43.8547 319.506 43.8185 320.318L43.0462 337.594C43.0114 338.384 42.3597 339.001 41.5767 339.001Z" fill="#3A374A"/>
<path d="M106.353 339C105.57 339 104.918 338.383 104.883 337.593L104.111 320.317C104.075 319.505 104.704 318.817 105.516 318.78C106.331 318.749 107.017 319.373 107.053 320.186L107.825 337.461C107.862 338.274 107.233 338.962 106.42 338.998C106.398 338.999 106.375 339 106.353 339Z" fill="#3A374A"/>
<path d="M46.5052 337.461C46.4863 337.461 46.4674 337.461 46.4485 337.46C45.7597 337.429 45.2262 336.845 45.2569 336.157L45.9115 321.509C45.9425 320.821 46.5293 320.294 47.2146 320.318C47.9034 320.349 48.4368 320.932 48.4062 321.621L47.7515 336.268C47.7212 336.938 47.1689 337.461 46.5052 337.461Z" fill="#302E3E"/>
<path d="M101.424 337.461C100.76 337.461 100.208 336.938 100.178 336.268L99.5235 321.621C99.4928 320.933 100.026 320.349 100.715 320.318C101.406 320.292 101.987 320.821 102.018 321.51L102.672 336.157C102.703 336.846 102.17 337.429 101.481 337.46C101.462 337.461 101.443 337.461 101.424 337.461Z" fill="#302E3E"/>
<path d="M39.5253 327.202C38.8293 327.202 38.1812 326.925 37.7003 326.422C37.2193 325.919 36.9714 325.259 37.0026 324.564L39.2317 274.684C39.2923 273.331 40.4006 272.271 41.7548 272.271H106.305C107.66 272.271 108.768 273.331 108.828 274.684L111.057 324.564C111.088 325.259 110.84 325.919 110.359 326.422C109.878 326.925 109.23 327.202 108.534 327.202H39.5253Z" fill="url(#paint0_linear_589_10673)"/>
<path d="M107.008 325.418H41.0517C40.1797 325.418 39.484 324.69 39.5228 323.819L41.6535 276.146C41.69 275.328 42.3635 274.684 43.182 274.684H104.877C105.696 274.684 106.369 275.328 106.406 276.146L108.536 323.819C108.576 324.69 107.88 325.418 107.008 325.418Z" fill="url(#paint1_linear_589_10673)"/>
<path d="M104.664 276.437L106.775 323.665H41.2845L43.395 276.437H104.664ZM104.877 275.862H43.1822C42.9932 275.862 42.8388 276.01 42.8303 276.199L40.6996 323.872C40.6937 324.003 40.7582 324.091 40.797 324.132C40.8358 324.172 40.9205 324.241 41.0515 324.241H107.008C107.139 324.241 107.223 324.172 107.262 324.132C107.301 324.091 107.366 324.003 107.36 323.872L105.229 276.199C105.221 276.01 105.066 275.862 104.877 275.862Z" fill="white"/>
<g opacity="0.2">
<path d="M59.7881 284.629V296.94H58.3829V284.629H59.7881ZM63.851 284.629V294H62.4458V284.629H63.851ZM72.2822 288.509V294H70.8694V288.494C70.8694 287.567 70.681 286.908 70.3042 286.516C69.9326 286.124 69.2783 285.928 68.3415 285.928H65.4777V284.629H68.3568C69.2936 284.629 70.0497 284.762 70.625 285.027C71.2003 285.286 71.6203 285.701 71.8851 286.271C72.1498 286.836 72.2822 287.582 72.2822 288.509ZM82.2027 288.509V294H80.7898V288.494C80.7898 287.557 80.5989 286.895 80.2171 286.508C79.8403 286.121 79.1861 285.928 78.2544 285.928H74.6955V284.629H78.2773C79.2141 284.629 79.9701 284.762 80.5455 285.027C81.1208 285.286 81.5408 285.701 81.8056 286.271C82.0703 286.836 82.2027 287.582 82.2027 288.509ZM76.2535 287.913V294H74.8483V287.913H76.2535ZM91.2983 292.793V294H84.089V292.702H89.5495L83.5239 284.629H85.2804L88.1901 288.585C88.5821 288.417 88.8672 288.17 89.0454 287.845C89.2236 287.514 89.3433 287.01 89.4044 286.332L89.58 284.629H91.031L90.8783 286.302C90.8121 287.005 90.7077 287.544 90.5652 287.921C90.4226 288.293 90.2215 288.601 89.9619 288.845C89.7022 289.089 89.3356 289.306 88.8621 289.494L91.2983 292.793Z" fill="#211915"/>
<path d="M57.2832 306.549C57.1101 307.063 56.8351 307.435 56.4584 307.664C56.0816 307.888 55.4885 308 54.6789 308H54.5949V306.702H54.7248C55.0761 306.702 55.3561 306.636 55.5648 306.503C55.7685 306.371 55.9136 306.17 56.0001 305.9C56.0867 305.625 56.13 305.21 56.13 304.655V299.928H54.6789V298.629H59.7423C61.1475 298.629 62.1556 298.93 62.7665 299.531C63.3775 300.126 63.683 301.119 63.683 302.509V308H62.2778V302.494C62.2778 301.557 62.0868 300.895 61.705 300.508C61.3282 300.121 60.6689 299.928 59.727 299.928H57.5352V304.372C57.5352 305.309 57.4512 306.035 57.2832 306.549ZM67.3564 298.629V303.555H65.9511V298.629H67.3564ZM76.2611 302.792C76.2611 301.829 76.0498 301.111 75.6272 300.638C75.2046 300.164 74.5402 299.928 73.634 299.928H71.5262V302.57H73.3819V303.868H70.098V298.629H73.6492C75.0137 298.629 76.0269 298.971 76.6888 299.653C77.3557 300.33 77.6892 301.386 77.6892 302.822V303.448C77.6892 306.483 76.2535 308 73.3819 308H70.182V306.702H73.4201C74.3875 306.702 75.1028 306.434 75.5661 305.9C76.0294 305.36 76.2611 304.548 76.2611 303.464V302.792ZM81.2862 298.629V308H79.881V298.629H81.2862ZM85.3491 298.629V303.555H83.9439V298.629H85.3491ZM94.0324 303.448C94.0324 306.483 92.5966 308 89.7251 308H87.2889V306.702H89.7557C90.7281 306.702 91.446 306.432 91.9093 305.892C92.3726 305.353 92.6043 304.543 92.6043 303.464V303.166C92.6043 302.081 92.3701 301.272 91.9017 300.737C91.4384 300.198 90.723 299.928 89.7557 299.928H87.2889V298.629H89.7251C92.5966 298.629 94.0324 300.147 94.0324 303.181V303.448Z" fill="#211915"/>
</g>
<path d="M58.7881 283.629V295.94H57.3829V283.629H58.7881ZM62.851 283.629V293H61.4458V283.629H62.851ZM71.2822 287.509V293H69.8694V287.494C69.8694 286.567 69.681 285.908 69.3042 285.516C68.9326 285.124 68.2783 284.928 67.3415 284.928H64.4777V283.629H67.3568C68.2936 283.629 69.0497 283.762 69.625 284.027C70.2003 284.286 70.6203 284.701 70.8851 285.271C71.1498 285.836 71.2822 286.582 71.2822 287.509ZM81.2027 287.509V293H79.7898V287.494C79.7898 286.557 79.5989 285.895 79.2171 285.508C78.8403 285.121 78.1861 284.928 77.2544 284.928H73.6955V283.629H77.2773C78.2141 283.629 78.9701 283.762 79.5455 284.027C80.1208 284.286 80.5408 284.701 80.8056 285.271C81.0703 285.836 81.2027 286.582 81.2027 287.509ZM75.2535 286.913V293H73.8483V286.913H75.2535ZM90.2983 291.793V293H83.089V291.702H88.5495L82.5239 283.629H84.2804L87.1901 287.585C87.5821 287.417 87.8672 287.17 88.0454 286.845C88.2236 286.514 88.3433 286.01 88.4044 285.332L88.58 283.629H90.031L89.8783 285.302C89.8121 286.005 89.7077 286.544 89.5652 286.921C89.4226 287.293 89.2215 287.601 88.9619 287.845C88.7022 288.089 88.3356 288.306 87.8621 288.494L90.2983 291.793Z" fill="white"/>
<path d="M56.2832 305.549C56.1101 306.063 55.8351 306.435 55.4584 306.664C55.0816 306.888 54.4885 307 53.6789 307H53.5949V305.702H53.7248C54.0761 305.702 54.3561 305.636 54.5648 305.503C54.7685 305.371 54.9136 305.17 55.0001 304.9C55.0867 304.625 55.13 304.21 55.13 303.655V298.928H53.6789V297.629H58.7423C60.1475 297.629 61.1556 297.93 61.7665 298.531C62.3775 299.126 62.683 300.119 62.683 301.509V307H61.2778V301.494C61.2778 300.557 61.0868 299.895 60.705 299.508C60.3282 299.121 59.6689 298.928 58.727 298.928H56.5352V303.372C56.5352 304.309 56.4512 305.035 56.2832 305.549ZM66.3564 297.629V302.555H64.9511V297.629H66.3564ZM75.2611 301.792C75.2611 300.829 75.0498 300.111 74.6272 299.638C74.2046 299.164 73.5402 298.928 72.634 298.928H70.5262V301.57H72.3819V302.868H69.098V297.629H72.6492C74.0137 297.629 75.0269 297.971 75.6888 298.653C76.3557 299.33 76.6892 300.386 76.6892 301.822V302.448C76.6892 305.483 75.2535 307 72.3819 307H69.182V305.702H72.4201C73.3875 305.702 74.1028 305.434 74.5661 304.9C75.0294 304.36 75.2611 303.548 75.2611 302.464V301.792ZM80.2862 297.629V307H78.881V297.629H80.2862ZM84.3491 297.629V302.555H82.9439V297.629H84.3491ZM93.0324 302.448C93.0324 305.483 91.5966 307 88.7251 307H86.2889V305.702H88.7557C89.7281 305.702 90.446 305.432 90.9093 304.892C91.3726 304.353 91.6043 303.543 91.6043 302.464V302.166C91.6043 301.081 91.3701 300.272 90.9017 299.737C90.4384 299.198 89.723 298.928 88.7557 298.928H86.2889V297.629H88.7251C91.5966 297.629 93.0324 299.147 93.0324 302.181V302.448Z" fill="white"/>
<g opacity="0.2">
<path d="M92.7277 315.937L81.9997 310.652V313.301H54V318.573H81.9997V321.222L92.7277 315.937Z" fill="#211915"/>
</g>
<path d="M93.0534 315.285L82.3254 310V312.649H54.3257V317.921H82.3254V320.57L93.0534 315.285Z" fill="white"/>
<path d="M55.4534 271.727H52.4292C52.1285 271.727 51.8848 271.97 51.8848 272.271H55.9976C55.9979 271.97 55.7542 271.727 55.4534 271.727Z" fill="#43415B"/>
<path d="M93.9102 271.727H90.886C90.5853 271.727 90.3416 271.97 90.3416 272.271H94.4544C94.4547 271.97 94.211 271.727 93.9102 271.727Z" fill="#43415B"/>
<path d="M74.86 242.366L73.1519 242.393C72.8707 242.398 72.6765 242.114 72.783 241.853L73.4699 240.175C73.5292 240.03 73.6693 239.934 73.8261 239.931L74.1063 239.927C74.263 239.924 74.4064 240.015 74.4703 240.158L75.2112 241.814C75.3263 242.071 75.1412 242.361 74.86 242.366Z" fill="#E1194E"/>
<path d="M82.1994 225.404C82.7376 231.051 79.502 239.729 74.5355 240.202C69.5689 240.676 64.7523 232.765 64.2143 227.118C63.676 221.471 67.2659 216.51 72.2324 216.036C77.1989 215.563 81.6614 219.757 82.1994 225.404Z" fill="#E1194E"/>
<path d="M79.1266 220.782C79.6633 222.477 79.1325 224.156 77.9415 224.533C76.7506 224.91 75.3498 223.843 74.8131 222.148C74.2764 220.454 74.8072 218.774 75.9985 218.397C77.1895 218.02 78.59 219.088 79.1266 220.782Z" fill="white"/>
<path opacity="0.35" d="M74.2464 237.168C69.7207 237.599 65.3212 231.069 64.1683 225.634C64.153 226.121 64.1667 226.617 64.2146 227.118C64.7529 232.765 69.5695 240.676 74.5357 240.203C79.5023 239.729 82.7379 231.051 82.1996 225.404C82.1517 224.903 82.0719 224.414 81.9647 223.938C81.8588 229.493 78.7721 236.736 74.2464 237.168Z" fill="#E1194E"/>
<path d="M74.5862 240.489L73.4731 240.47C73.3529 240.468 73.2561 240.368 73.2581 240.247C73.26 240.127 73.3604 240.03 73.4806 240.032L74.5937 240.051C74.714 240.053 74.8107 240.154 74.8085 240.274C74.8065 240.394 74.7065 240.491 74.5862 240.489Z" fill="#303047"/>
<path d="M78.7225 255.34L77.2034 254.558C76.9532 254.43 76.9161 254.087 77.1331 253.908L78.5306 252.752C78.6515 252.652 78.8203 252.634 78.9598 252.705L79.209 252.834C79.3485 252.905 79.4316 253.053 79.4208 253.21L79.2931 255.019C79.2729 255.299 78.9725 255.468 78.7225 255.34Z" fill="#35E1D8"/>
<path d="M93.1962 243.847C91.0065 249.079 84.0592 255.205 79.4569 253.279C74.8547 251.353 74.3402 242.105 76.5299 236.872C78.7196 231.64 84.2254 228.959 88.8276 230.885C93.4298 232.81 95.3859 238.614 93.1962 243.847Z" fill="#35E1D8"/>
<path d="M92.3438 235.729C92.753 237.459 92.0994 239.094 90.8833 239.382C89.6676 239.67 88.3499 238.501 87.9406 236.772C87.5314 235.042 88.185 233.406 89.4011 233.119C90.6168 232.831 91.9345 234 92.3438 235.729Z" fill="white"/>
<path opacity="0.35" d="M80.6339 250.467C76.4403 248.712 75.6416 240.878 77.1897 235.542C76.946 235.965 76.7244 236.408 76.5299 236.873C74.3402 242.105 74.8547 251.353 79.4569 253.279C84.0592 255.205 91.0065 249.08 93.1962 243.847C93.3904 243.382 93.5507 242.913 93.6807 242.443C90.9671 247.291 84.8275 252.221 80.6339 250.467Z" fill="#35E1D8"/>
<path d="M79.3665 253.555L78.3942 253.013C78.2893 252.954 78.2511 252.82 78.3098 252.715C78.3684 252.611 78.5024 252.572 78.6073 252.631L79.5796 253.173C79.6845 253.232 79.7227 253.366 79.664 253.471C79.6053 253.576 79.4718 253.613 79.3665 253.555Z" fill="#393947"/>
<path d="M70.1248 254.508L68.5145 255.078C68.2492 255.171 67.9746 254.964 67.9928 254.683L68.1098 252.873C68.1199 252.717 68.2222 252.581 68.3701 252.529L68.6344 252.436C68.7823 252.383 68.9469 252.424 69.0531 252.539L70.2825 253.873C70.4728 254.079 70.39 254.414 70.1248 254.508Z" fill="#E7D519"/>
<path d="M71.6835 236.091C73.9911 241.273 73.6861 250.53 69.1285 252.559C64.5709 254.589 57.4867 248.622 55.1794 243.44C52.8718 238.258 54.6959 232.412 59.2535 230.383C63.8107 228.354 69.3758 230.909 71.6835 236.091Z" fill="#E7D519"/>
<path d="M67.7391 233.342C68.7375 234.813 68.7089 236.574 67.6753 237.276C66.6417 237.978 64.9942 237.355 63.9958 235.884C62.9974 234.414 63.0261 232.652 64.0597 231.95C65.0933 231.249 66.7407 231.872 67.7391 233.342Z" fill="white"/>
<path opacity="0.35" d="M67.8885 249.775C63.7356 251.625 57.4862 246.834 54.6631 242.049C54.8039 242.516 54.9746 242.981 55.1792 243.441C57.4869 248.623 64.5711 254.589 69.1283 252.56C73.6859 250.53 73.9909 241.273 71.6833 236.092C71.4783 235.632 71.2466 235.194 70.9935 234.776C72.6621 240.076 72.0414 247.926 67.8885 249.775Z" fill="#E7D519"/>
<path d="M69.2676 252.816L68.2064 253.151C68.0917 253.188 67.9682 253.124 67.932 253.009C67.8958 252.894 67.9597 252.771 68.0744 252.735L69.1357 252.399C69.2504 252.363 69.3739 252.426 69.41 252.541C69.4465 252.656 69.3823 252.779 69.2676 252.816Z" fill="#393947"/>
<path d="M73.5803 267.009L78.9867 253.344" stroke="#393947" stroke-width="0.30258" stroke-miterlimit="10" stroke-linecap="round"/>
<path d="M74.0332 240.261L73.5803 267.009" stroke="#393947" stroke-width="0.30258" stroke-miterlimit="10" stroke-linecap="round" stroke-linejoin="round"/>
<path d="M68.6709 252.775L73.5804 267.009" stroke="#393947" stroke-width="0.30258" stroke-miterlimit="10" stroke-linecap="round" stroke-linejoin="round"/>
<path d="M38.1915 325.97C38.4493 326.228 38.8409 326.265 39.1404 326.087L38.0749 325.021C37.897 325.321 37.9341 325.713 38.1915 325.97Z" fill="#6B678A"/>
<path d="M39.2946 324.867C39.0368 324.61 38.6452 324.573 38.3457 324.751L39.4112 325.816C39.5891 325.517 39.552 325.125 39.2946 324.867Z" fill="#6B678A"/>
<path d="M38.1916 324.868C38.1447 324.915 38.1075 324.967 38.075 325.021L39.1405 326.087C39.1949 326.054 39.2473 326.017 39.2943 325.97C39.3412 325.923 39.3783 325.871 39.4109 325.816L38.3454 324.751C38.291 324.784 38.2385 324.821 38.1916 324.868Z" fill="#2F2D40"/>
<path d="M40.1481 274.956C40.4058 275.213 40.7978 275.251 41.0969 275.072L40.0314 274.007C39.8532 274.306 39.8903 274.698 40.1481 274.956Z" fill="#7D78A1"/>
<path d="M41.2506 273.853C40.9932 273.595 40.6012 273.558 40.3018 273.736L41.3673 274.802C41.5455 274.503 41.5084 274.111 41.2506 273.853Z" fill="#7D78A1"/>
<path d="M40.1481 273.853C40.1011 273.9 40.064 273.952 40.0317 274.007L41.0973 275.072C41.1517 275.04 41.2041 275.003 41.2511 274.956C41.298 274.909 41.3351 274.856 41.3677 274.802L40.3022 273.736C40.2474 273.769 40.195 273.806 40.1481 273.853Z" fill="#403D57"/>
<path d="M106.878 273.791C106.591 274.016 106.508 274.401 106.65 274.719L107.834 273.788C107.558 273.575 107.164 273.565 106.878 273.791Z" fill="#7D78A1"/>
<path d="M107.842 275.016C108.129 274.791 108.212 274.406 108.07 274.088L106.886 275.019C107.162 275.232 107.556 275.242 107.842 275.016Z" fill="#7D78A1"/>
<path d="M107.973 273.921C107.932 273.869 107.884 273.826 107.834 273.787L106.65 274.719C106.675 274.777 106.706 274.833 106.747 274.885C106.788 274.937 106.836 274.98 106.886 275.019L108.07 274.088C108.045 274.03 108.014 273.973 107.973 273.921Z" fill="#403D57"/>
<path d="M108.834 324.806C108.547 325.031 108.464 325.415 108.606 325.734L109.79 324.802C109.514 324.59 109.12 324.58 108.834 324.806Z" fill="#7D78A1"/>
<path d="M109.798 326.031C110.084 325.806 110.168 325.421 110.026 325.103L108.842 326.034C109.118 326.247 109.512 326.256 109.798 326.031Z" fill="#7D78A1"/>
<path d="M109.929 324.937C109.888 324.885 109.84 324.842 109.79 324.803L108.606 325.734C108.631 325.792 108.662 325.849 108.703 325.901C108.744 325.953 108.792 325.996 108.842 326.035L110.026 325.103C110 325.045 109.97 324.989 109.929 324.937Z" fill="#403D57"/>
<path d="M73.2384 267.711C73.1475 267.711 73.0732 267.636 73.0732 267.546V266.466C73.0732 266.375 73.1475 266.301 73.2384 266.301C73.3294 266.301 73.4037 266.375 73.4037 266.466V267.546C73.4037 267.636 73.3294 267.711 73.2384 267.711Z" fill="#393947"/>
<path d="M73.5805 267.711C73.4896 267.711 73.4153 267.636 73.4153 267.546V266.466C73.4153 266.375 73.4896 266.301 73.5805 266.301C73.6714 266.301 73.7457 266.375 73.7457 266.466V267.546C73.7457 267.636 73.6714 267.711 73.5805 267.711Z" fill="#393947"/>
<path d="M73.9108 267.711C73.8199 267.711 73.7456 267.636 73.7456 267.546V266.466C73.7456 266.375 73.8199 266.301 73.9108 266.301C74.0017 266.301 74.076 266.375 74.076 266.466V267.546C74.0757 267.636 74.0014 267.711 73.9108 267.711Z" fill="#393947"/>
<defs>
<linearGradient id="paint0_linear_589_10673" x1="74.0298" y1="327.202" x2="74.0298" y2="272.271" gradientUnits="userSpaceOnUse">
<stop offset="0.0475" stop-color="#474557"/>
<stop offset="0.8352" stop-color="#6B6680"/>
</linearGradient>
<linearGradient id="paint1_linear_589_10673" x1="74.0298" y1="325.418" x2="74.0298" y2="274.684" gradientUnits="userSpaceOnUse">
<stop stop-color="#C43556"/>
<stop offset="0.8966" stop-color="#E13453"/>
</linearGradient>
</defs>
</svg>
