<svg width="1906" height="711" viewBox="0 0 1906 711" fill="none" xmlns="http://www.w3.org/2000/svg">
<path d="M1538.16 619.771L1487.59 619.771C1487.59 619.771 1315.9 107.522 26 79.9278L26 65.7715C1365.02 85.5518 1538.16 619.771 1538.16 619.771Z" fill="#2C95FF"/>
<path d="M26 36.9756L26 26.9042C1696.84 -16.5965 1739.99 619.771 1739.99 619.771L1689.5 619.771C1689.5 619.771 1583 32.7672 26 36.9756Z" fill="#FFA500"/>
<g filter="url(#filter0_d_598_12235)">
<path d="M1487.86 619.771L1409.81 619.771C1409.81 619.771 1285.38 164.771 26 90.2013L26 79.7715C1316.16 107.362 1487.86 619.771 1487.86 619.771Z" fill="#C7A9FB"/>
</g>
<g filter="url(#filter1_d_598_12235)">
<path d="M26 27.1133L26 16.1828C1780.74 -28.228 1815.12 619.769 1815.12 619.769L1739.99 619.768C1739.99 619.768 1680.14 -17.3384 26 27.1133Z" fill="#FA5F57"/>
</g>
<path d="M26 54.4031L26 45.7715C1454.63 54.4775 1634.3 619.771 1634.3 619.771L1591.13 619.771C1591.13 619.771 1349.66 73.3361 26 54.4031Z" fill="#8BCB51"/>
<path d="M26 46.2014L26 35.7715C1604.91 35.7745 1690.33 619.771 1690.33 619.771L1634.3 619.771C1634.3 619.771 1446.92 53.2716 26 46.2014Z" fill="#FCEC7B"/>
<path d="M26 66.3592L26 53.7715C1403.64 66.3592 1591 619.771 1591 619.771L1536.82 619.771C1536.82 619.771 1363.69 85.7715 26 66.3592Z" fill="#1AD6FD"/>
<path d="M1796.75 577.298C1796.75 577.298 1750.48 519.772 1637.94 553.722C1599.81 545.702 1562.59 565.976 1550.81 584.843C1517.22 566.453 1443.7 569.756 1418.3 594.273C1387.42 573.524 1323.01 576.818 1303.02 602.759C1283.06 628.699 1332.05 649.917 1351.13 649.451C1343.87 675.855 1425.54 692.83 1460.05 676.79C1470.02 703.674 1553.53 712.641 1598.89 692.83C1646.99 717.355 1731.93 720.441 1804.26 680.82C1804.26 680.82 1879.84 696.278 1903.77 653.972C1912.41 637.048 1895.16 613.651 1864.5 613.157C1874.09 586.772 1823.85 573.305 1796.75 577.298Z" fill="white"/>
<path d="M1808.64 602.168C1828.51 598.279 1845.84 604.389 1856.49 613.035C1870.01 624.009 1858.16 637.707 1843.99 646.552C1841.48 648.105 1837.01 644.499 1838.41 643.152C1844.9 637.03 1851.9 631.998 1854.85 625.003C1860.83 610.811 1832.57 602.252 1809.73 603.272C1809.01 603.3 1807.81 602.331 1808.64 602.168Z" fill="#C7DFE9"/>
<path d="M1563.77 601.305C1575.8 599.463 1591.88 600.808 1603.51 602.889C1615.36 605.003 1621.88 609.37 1632.57 612.256C1633.53 612.509 1635.21 614.422 1633.14 614.141C1627.09 613.332 1622.93 610.945 1617.49 609.224C1606.4 605.725 1592.19 605.425 1579.81 604.832C1556.46 603.72 1527.58 615.781 1518.31 626.148C1516.83 627.802 1512.81 624.32 1513.02 623.382C1515.75 611.672 1544.31 604.27 1563.77 601.305Z" fill="#C7DFE9"/>
<path d="M1619.86 551.833C1642.08 548.486 1672.57 558.637 1680.65 569.305C1681.23 570.066 1680.12 570.454 1679.06 569.813C1672.44 565.775 1665.88 562.226 1656.8 559.643C1645.7 556.483 1633.99 556.189 1621.92 554.984C1619.99 554.793 1617.07 552.252 1619.86 551.833Z" fill="#C7DFE9"/>
<path d="M1357.7 635.193C1358.55 634.62 1360.33 635.943 1359.73 636.443C1352.96 642.033 1351.71 650.823 1354.98 657.096C1355.96 658.98 1351.8 658.011 1351.02 656.882C1346.46 650.247 1349.34 640.773 1357.7 635.193Z" fill="#C7DFE9"/>
<path d="M1351.13 649.454C1343.88 675.858 1425.55 692.833 1460.05 676.793C1470.02 703.677 1553.54 712.643 1598.9 692.833C1647 717.358 1731.94 720.444 1804.26 680.822C1804.26 680.822 1879.84 696.281 1903.78 653.975C1912.41 637.051 1895.16 613.654 1864.5 613.16C1874.09 586.772 1823.85 573.305 1796.75 577.298C1796.75 577.298 1750.48 519.772 1637.94 553.722C1599.81 545.702 1562.59 565.976 1550.81 584.843C1517.22 566.453 1443.7 569.756 1418.3 594.273C1387.42 573.524 1323.01 576.818 1303.02 602.759C1283.06 628.705 1332.05 649.92 1351.13 649.454ZM1396.6 619.677C1426.68 583.942 1518.03 600.695 1508.37 617.442C1503.25 626.299 1510.5 634.198 1510.5 634.198C1537.37 603.489 1615.82 604.606 1639.47 618.565C1641.62 602.374 1595.39 590.65 1572.83 593.998C1604 539.277 1686.75 572.774 1686.75 572.774C1686.75 572.774 1688.9 559.38 1671.69 554.351C1757.67 541.507 1785.62 586.177 1785.62 586.177C1785.62 586.177 1797.45 601.259 1778.09 610.742C1802.81 601.254 1833.97 614.098 1832.89 628.062C1831.83 642.021 1810.34 648.165 1810.34 648.165C1852.25 655.977 1811.4 678.309 1794.22 667.698C1758.74 712.93 1606.14 699.527 1601.85 678.871C1552.41 701.201 1475.03 681.659 1471.81 657.65C1437.43 673.283 1366.5 655.421 1396.6 619.677ZM1328.51 629.371C1313.29 623.403 1305.74 612.831 1313.01 603.323C1317.17 597.881 1325.75 593.253 1336.08 590.923C1345.15 588.876 1365.94 587.797 1374.24 591.529C1379.31 593.807 1385.73 598.802 1382.76 602.467C1378.07 608.26 1364.3 610.484 1357.97 615.822C1352.21 620.677 1351.32 628.868 1344.9 631.415C1341.5 632.765 1336.55 632.532 1328.51 629.371Z" fill="#E6F4FA"/>
<path d="M1775.35 611.287C1790.77 603.73 1817.09 606.432 1826.37 616.223C1837.7 628.2 1827.84 642.195 1804.62 647.522C1801.46 648.244 1797.07 644.621 1799.85 643.509C1814.5 637.685 1823 632.485 1823.49 622.499C1824.11 609.113 1793.63 610.124 1777.41 613.034C1775.96 613.292 1774.21 611.84 1775.35 611.287Z" fill="white"/>
<path d="M1807.1 648.904C1814.36 648.696 1820.32 649.954 1822.9 653.644C1824.93 656.53 1824.32 660.287 1820.64 662.736C1818.88 663.941 1815.75 661.318 1816.19 660.411C1817.09 658.656 1818.16 656.828 1818.34 655.011C1818.64 652.049 1813.29 651.436 1808.49 651.057C1807.22 650.962 1805.19 648.963 1807.1 648.904Z" fill="white"/>
<path d="M1694.1 551.895C1724.44 548.849 1753.66 555.804 1774.86 566.817C1789.29 574.301 1802.57 592.014 1790 601.606C1787.67 603.378 1782.73 599.545 1783.54 598.214C1800.59 570.319 1739.7 554.76 1695.79 553.942C1694.35 553.923 1692.14 552.098 1694.1 551.895Z" fill="white"/>
<path d="M1626.31 677.756C1651.99 694.677 1687.49 695.511 1724.66 689.496C1753.07 684.902 1775.59 674.072 1786.7 660.217C1787.24 659.526 1789.48 660.978 1789.17 661.523C1785.44 668.223 1782.77 673.833 1772.72 679.121C1759.16 686.267 1742.31 692.369 1723.39 694.981C1684.86 700.319 1645.71 698.215 1623.04 679.5C1620.94 677.77 1623.3 675.768 1626.31 677.756Z" fill="white"/>
<path d="M1614.05 673.705C1616.65 673.705 1619.61 677.052 1616.81 677.052C1614.18 677.055 1611.24 673.705 1614.05 673.705Z" fill="white"/>
<path d="M1481.83 656.396C1493.28 668.033 1504.37 674.312 1528.2 678.65C1548.83 682.399 1568.67 680.164 1583.85 672.136C1584.68 671.712 1586.5 673.102 1585.83 673.545C1554.1 695.024 1490.02 679.021 1478.65 656.228C1477.86 654.625 1481.08 655.65 1481.83 656.396Z" fill="white"/>
<path d="M1619.63 566.279C1639.76 563.159 1657.58 566.105 1673.57 572.614C1674.72 573.08 1675.65 575.346 1673.34 574.546C1645.64 565.083 1606.01 567.624 1597.94 586.612C1597.13 588.519 1592.59 585.677 1592.64 584.658C1592.84 576.197 1603.86 568.731 1619.63 566.279Z" fill="white"/>
<defs>
<filter id="filter0_d_598_12235" x="0.3" y="66.0715" width="1489.26" height="567.4" filterUnits="userSpaceOnUse" color-interpolation-filters="sRGB">
<feFlood flood-opacity="0" result="BackgroundImageFix"/>
<feColorMatrix in="SourceAlpha" type="matrix" values="0 0 0 0 0 0 0 0 0 0 0 0 0 0 0 0 0 0 127 0" result="hardAlpha"/>
<feOffset dx="-12"/>
<feGaussianBlur stdDeviation="6.85"/>
<feComposite in2="hardAlpha" operator="out"/>
<feColorMatrix type="matrix" values="0 0 0 0 0 0 0 0 0 0 0 0 0 0 0 0 0 0 0.25 0"/>
<feBlend mode="normal" in2="BackgroundImageFix" result="effect1_dropShadow_598_12235"/>
<feBlend mode="normal" in="SourceGraphic" in2="effect1_dropShadow_598_12235" result="shape"/>
</filter>
<filter id="filter1_d_598_12235" x="23.2" y="0.2" width="1814.72" height="631.37" filterUnits="userSpaceOnUse" color-interpolation-filters="sRGB">
<feFlood flood-opacity="0" result="BackgroundImageFix"/>
<feColorMatrix in="SourceAlpha" type="matrix" values="0 0 0 0 0 0 0 0 0 0 0 0 0 0 0 0 0 0 127 0" result="hardAlpha"/>
<feOffset dx="10" dy="-1"/>
<feGaussianBlur stdDeviation="6.4"/>
<feComposite in2="hardAlpha" operator="out"/>
<feColorMatrix type="matrix" values="0 0 0 0 0 0 0 0 0 0 0 0 0 0 0 0 0 0 0.25 0"/>
<feBlend mode="normal" in2="BackgroundImageFix" result="effect1_dropShadow_598_12235"/>
<feBlend mode="normal" in="SourceGraphic" in2="effect1_dropShadow_598_12235" result="shape"/>
</filter>
</defs>
</svg>
