<svg width="151" height="136" viewBox="0 0 151 136" fill="none" xmlns="http://www.w3.org/2000/svg">
<path d="M41.6377 63.1374C40.2927 72.3844 41.7537 82.0254 46.4297 90.1144C50.7157 97.5294 58.6797 103.328 66.5677 106.502C74.2087 109.577 82.9637 110.523 91.1017 109.334C99.8767 108.053 108.27 103.962 114.039 97.2514C120.393 89.8594 123.792 80.5284 124.511 70.7634C125.085 62.9714 123.969 55.1204 119.898 48.3424C111.547 34.4404 94.2957 27.1484 78.4587 27.9824C70.9037 28.3804 63.3547 30.7294 57.3057 35.3604C48.6587 41.9794 43.2157 52.2874 41.6377 63.1374Z" fill="#FFEB47"/>
<path d="M83.1177 64.6999C83.4847 64.8109 83.8497 64.8239 84.2147 64.7389C84.5767 64.7179 84.9137 64.6079 85.2257 64.4089C85.5517 64.2339 85.8127 63.9939 86.0087 63.6889C86.2607 63.4119 86.4287 63.0869 86.5117 62.7129C86.5417 62.4659 86.5717 62.2199 86.6027 61.9729C86.5937 61.4839 86.4667 61.0279 86.2217 60.6049C86.0767 60.4169 85.9317 60.2299 85.7867 60.0419C85.4307 59.6889 85.0097 59.4479 84.5247 59.3199C84.1577 59.2089 83.7917 59.1959 83.4277 59.2809C83.0657 59.3019 82.7287 59.4119 82.4167 59.6109C82.0907 59.7859 81.8297 60.0259 81.6337 60.3309C81.3817 60.6079 81.2137 60.9329 81.1307 61.3069C81.1007 61.5539 81.0697 61.7999 81.0397 62.0469C81.0487 62.5359 81.1757 62.9919 81.4217 63.4149C81.5667 63.6029 81.7117 63.7899 81.8567 63.9779C82.2117 64.3309 82.6327 64.5719 83.1177 64.6999Z" fill="white"/>
<path d="M56.1297 71.5802C56.9507 71.8282 57.7707 71.8582 58.5867 71.6682C59.3977 71.6202 60.1527 71.3742 60.8517 70.9292C61.5817 70.5372 62.1667 69.9992 62.6047 69.3162C63.1697 68.6962 63.5447 67.9682 63.7307 67.1302C63.7987 66.5772 63.8667 66.0252 63.9347 65.4722C63.9157 64.3762 63.6307 63.3552 63.0807 62.4082C62.7567 61.9882 62.4317 61.5672 62.1077 61.1472C61.3107 60.3562 60.3687 59.8172 59.2817 59.5292C58.4607 59.2812 57.6407 59.2522 56.8247 59.4412C56.0137 59.4892 55.2587 59.7352 54.5597 60.1802C53.8297 60.5722 53.2447 61.1102 52.8067 61.7942C52.2417 62.4132 51.8667 63.1422 51.6807 63.9802C51.6127 64.5332 51.5447 65.0852 51.4767 65.6382C51.4957 66.7342 51.7807 67.7552 52.3307 68.7022C52.6547 69.1222 52.9796 69.5432 53.3036 69.9632C54.1006 70.7532 55.0427 71.2922 56.1297 71.5802Z" fill="#FFD4F4"/>
<path d="M103.285 83.9093C104.106 84.1573 104.926 84.1873 105.742 83.9973C106.553 83.9493 107.308 83.7033 108.007 83.2583C108.737 82.8663 109.322 82.3283 109.76 81.6453C110.325 81.0263 110.7 80.2973 110.886 79.4593C110.954 78.9063 111.022 78.3543 111.09 77.8013C111.071 76.7053 110.786 75.6843 110.236 74.7373C109.912 74.3173 109.587 73.8963 109.263 73.4763C108.466 72.6853 107.524 72.1463 106.437 71.8583C105.616 71.6103 104.796 71.5813 103.98 71.7703C103.169 71.8183 102.414 72.0643 101.715 72.5093C100.985 72.9013 100.4 73.4393 99.9616 74.1223C99.3966 74.7413 99.0216 75.4703 98.8356 76.3083C98.7676 76.8613 98.6996 77.4133 98.6316 77.9663C98.6506 79.0623 98.9356 80.0833 99.4856 81.0303C99.8096 81.4503 100.135 81.8713 100.459 82.2913C101.256 83.0823 102.198 83.6223 103.285 83.9093Z" fill="#FFD4F4"/>
<path d="M67.5556 63.5819C67.3846 66.4819 70.2506 69.7409 72.3056 71.4749C74.7036 73.4969 77.6077 74.8789 80.6557 75.5919C83.6897 76.3009 86.8927 76.3859 89.9367 75.6859C92.3277 75.1369 96.5076 73.6639 97.4386 71.1259C97.6496 70.5509 96.9797 69.8459 96.3927 70.0799C95.2317 70.5429 94.3497 71.6359 93.2497 72.2679C92.0997 72.9279 90.8646 73.3929 89.5766 73.7059C86.8386 74.3709 83.9237 74.3019 81.1877 73.6659C78.4787 73.0369 75.8546 71.8549 73.6916 70.0889C72.6366 69.2279 71.6786 68.2239 70.9156 67.0939C70.0926 65.8759 69.7396 64.3989 68.9206 63.2109C68.5056 62.6099 67.5996 62.8369 67.5556 63.5819Z" fill="#1D262D"/>
<path d="M68.1626 50.8694C66.4026 54.3354 66.1366 60.4654 71.1176 61.3184C75.8226 62.1244 78.2996 57.3324 79.7436 53.7384C80.2206 52.5504 78.3016 52.0394 77.8276 53.2104C76.7986 55.7484 75.3176 59.2644 72.0816 59.3484C67.7586 59.4604 69.1156 53.9914 69.7866 51.5544C70.0476 50.6064 68.6286 49.9524 68.1626 50.8694Z" fill="#1D262D"/>
<path d="M93.5566 57.5093C91.7966 60.9753 91.5306 67.1053 96.5116 67.9583C101.217 68.7643 103.694 63.9723 105.138 60.3783C105.615 59.1903 103.696 58.6793 103.222 59.8503C102.193 62.3883 100.712 65.9043 97.4756 65.9883C93.1526 66.1003 94.5096 60.6313 95.1806 58.1943C95.4416 57.2453 94.0226 56.5923 93.5566 57.5093Z" fill="#1D262D"/>
<path d="M97.4247 23.014C98.6107 21.844 98.9297 20.084 99.3947 18.538C99.9027 16.851 100.438 15.17 100.898 13.469C101.632 10.757 102.351 8.04203 103.077 5.32803C104.507 -0.0129681 96.1697 -2.30397 94.8037 3.04703C94.1087 5.76903 93.4058 8.49002 92.7188 11.214C92.2988 12.879 91.9507 14.564 91.5767 16.241C91.2147 17.867 90.5657 19.683 91.0407 21.328C91.8387 24.095 95.3617 25.048 97.4247 23.014Z" fill="#FF944D"/>
<path d="M106.814 30.6851C106.953 30.6621 104.658 30.8731 106.414 30.7621C107.108 30.7181 107.672 30.4791 108.197 30.0101C108.703 29.5571 109.038 28.9181 109.396 28.3461C110.358 26.8131 111.325 25.2831 112.283 23.7471C114.003 20.9901 115.644 18.1811 117.318 15.3961C119.1 12.4321 114.445 9.71813 112.688 12.6901C111.034 15.4871 109.342 18.2651 107.735 21.0891C106.858 22.6291 105.989 24.1741 105.117 25.7171C104.774 26.3241 104.367 26.9361 104.188 27.6151C103.983 28.3971 104.136 28.9171 104.414 29.6151C104.535 29.7711 104.656 29.9281 104.776 30.0841C104.604 29.7881 104.431 29.4921 104.259 29.1951C104.262 29.2111 104.271 29.2281 104.276 29.2441C104.67 30.3811 105.648 30.8791 106.814 30.6851Z" fill="#FF6A12"/>
<path d="M71.2628 21.9662C71.6498 20.2422 71.0547 18.6942 70.5867 17.0612C70.1027 15.3692 69.6437 13.6672 69.1127 11.9902C68.2647 9.31319 67.4007 6.6402 66.5447 3.9652C65.8387 1.7592 63.5668 0.337195 61.2678 0.969195C59.1198 1.5592 57.5367 4.0382 58.2717 6.2462C59.1587 8.9122 60.0387 11.5812 60.9337 14.2452C61.4817 15.8752 62.0997 17.4822 62.6927 19.0972C63.2397 20.5862 63.6657 22.5882 64.8787 23.6522C66.9157 25.4382 70.5948 24.9452 71.2628 21.9662Z" fill="#FF944D"/>
<path d="M83.2797 23.2212C83.2887 23.2132 83.2967 23.2011 83.3077 23.1961C83.0047 23.3511 81.9406 24.3422 82.9806 23.4712C83.5096 23.0292 83.9157 22.6551 84.1257 21.9511C84.3277 21.2771 84.2757 20.5742 84.2677 19.8812C84.2487 18.0732 84.2346 16.2652 84.2096 14.4572C84.1656 11.2082 84.0277 7.95915 83.9307 4.71115C83.8277 1.26615 78.4407 1.25715 78.5687 4.71115C78.6897 7.95915 78.7677 11.2112 78.9427 14.4572C79.0377 16.2282 79.1427 17.9991 79.2417 19.7701C79.2807 20.4701 79.2617 21.2262 79.4657 21.8982C79.6927 22.6462 80.0636 23.0172 80.6416 23.4702C80.8266 23.5482 81.0107 23.6262 81.1947 23.7042C80.9027 23.5312 80.6107 23.3582 80.3187 23.1862C80.3297 23.1982 80.3487 23.2092 80.3617 23.2202C81.2727 23.9442 82.3707 24.0382 83.2797 23.2212Z" fill="#FF6A12"/>
<path d="M48.7728 35.1468C48.1488 33.4468 46.9758 32.5578 45.6788 31.4188C44.3588 30.2598 43.0558 29.0778 41.7038 27.9568C39.5428 26.1638 37.3728 24.3828 35.2068 22.5958C33.4208 21.1228 30.8878 20.8478 29.1398 22.5958C27.6368 24.0988 27.3268 27.2008 29.1398 28.6628C31.3288 30.4268 33.5118 32.1978 35.7058 33.9548C37.2508 35.1918 38.8428 36.3688 40.4208 37.5628C41.4778 38.3628 42.7218 39.6398 44.0748 39.8468C46.6498 40.2378 49.8878 38.1838 48.7728 35.1468Z" fill="#FF944D"/>
<path d="M59.4988 29.6945C59.5208 29.6155 59.2448 31.0355 59.5778 29.5225C59.6878 29.0215 59.6858 28.5195 59.5418 28.0255C59.3478 27.3625 58.9208 26.8075 58.5468 26.2395C57.5438 24.7155 56.5478 23.1875 55.5388 21.6675C53.7728 19.0065 51.9328 16.3925 50.1268 13.7585C48.1838 10.9255 43.5219 13.6285 45.4969 16.4645C47.3549 19.1325 49.1798 21.8265 51.0808 24.4625C52.1198 25.9025 53.1659 27.3375 54.2079 28.7755C54.7139 29.4735 55.1708 30.2715 55.9038 30.7515C56.3638 31.0535 56.7888 31.1935 57.3448 31.2235C57.8668 31.2515 58.1388 31.0175 57.4678 31.2055C57.4758 31.2035 57.4989 31.2085 57.5099 31.2095C58.3979 31.2965 59.2738 30.5065 59.4988 29.6945Z" fill="#FF6A12"/>
<path d="M36.3207 57.82C35.2567 57.018 33.5477 57.013 32.2717 56.821C30.2517 56.517 28.2337 56.195 26.2057 55.948C23.4147 55.608 20.6227 55.282 17.8317 54.949C15.5277 54.674 13.5417 57.117 13.5417 59.239C13.5417 61.765 15.5177 63.28 17.8317 63.529C20.6227 63.829 23.4137 64.137 26.2057 64.43C27.9067 64.608 29.6178 64.713 31.3228 64.844C33.1328 64.983 34.5827 65.193 36.3207 64.416C37.5107 63.884 38.2128 62.35 38.2128 61.118C38.2128 59.649 37.4327 58.658 36.3207 57.82Z" fill="#FF944D"/>
<path d="M43.0378 47.952C43.0148 47.877 43.5178 49.301 43.0138 47.773C42.8538 47.288 42.6218 46.907 42.2488 46.552C41.7178 46.047 41.0328 45.812 40.3768 45.52C38.6948 44.774 37.0178 44.018 35.3318 43.281C32.2438 41.931 29.1208 40.659 26.0148 39.351C24.6798 38.789 23.0648 39.956 22.7168 41.224C22.2938 42.764 23.2448 43.967 24.5898 44.522C27.5418 45.74 30.4808 46.995 33.4498 48.168C35.1108 48.824 36.7768 49.467 38.4398 50.116C39.1008 50.374 39.7398 50.689 40.4618 50.72C41.0018 50.743 41.4668 50.64 41.9498 50.388C42.5038 50.099 42.4428 50.099 42.0908 50.281C42.8718 49.877 43.2978 48.787 43.0378 47.952Z" fill="#FF6A12"/>
<path d="M38.8877 84.0755C37.3257 83.9555 35.5997 85.0535 34.1857 85.6875C32.5747 86.4105 30.9487 87.1095 29.3577 87.8775C26.8267 89.0995 24.3027 90.3355 21.7747 91.5635C19.6917 92.5765 19.1297 95.5425 20.2357 97.4325C21.4697 99.5415 24.0257 100.012 26.1047 98.9715C28.6157 97.7145 31.1307 96.4645 33.6387 95.2005C35.1687 94.4295 36.6657 93.5915 38.1727 92.7785C39.6767 91.9665 41.2177 91.3095 42.1857 89.8215C43.8787 87.2185 41.5967 84.2835 38.8877 84.0755Z" fill="#FF944D"/>
<path d="M39.1228 72.2244C39.0628 72.1744 40.1948 73.0734 39.0158 72.0964C38.6118 71.7624 38.2728 71.5514 37.7508 71.4264C36.8948 71.2214 35.9988 71.4614 35.1448 71.5934C33.3528 71.8704 31.5598 72.1434 29.7688 72.4254C26.5578 72.9324 23.3588 73.5314 20.1558 74.0894C16.7698 74.6804 18.1948 79.8764 21.5808 79.2604C24.7228 78.6894 27.8748 78.1554 31.0068 77.5374C32.7598 77.1914 34.5098 76.8304 36.2618 76.4774C36.9438 76.3394 37.6588 76.2584 38.2808 75.9244C38.7328 75.6814 39.0978 75.3364 39.3768 74.9044C39.7138 74.3824 39.6438 74.3764 39.4448 74.7254C39.8658 73.9914 39.8218 72.8044 39.1228 72.2244Z" fill="#FF6A12"/>
<path d="M55.2167 104.693C53.7907 105.459 52.9717 107.146 52.1097 108.468C51.1467 109.945 50.1587 111.409 49.2377 112.912C47.7697 115.307 46.3147 117.711 44.8527 120.11C41.9747 124.835 49.4417 129.191 52.2607 124.44C53.6947 122.024 55.1347 119.612 56.5617 117.192C57.4337 115.714 58.2417 114.196 59.0717 112.694C59.8827 111.226 60.9577 109.721 60.9657 107.99C60.9777 105.013 57.7327 103.341 55.2167 104.693Z" fill="#FF944D"/>
<path d="M48.4318 94.6331C48.2868 94.6161 50.5047 95.0072 48.8347 94.6602C48.1497 94.5182 47.5168 94.5931 46.8878 94.9251C46.2848 95.2421 45.7867 95.7501 45.2777 96.2011C43.9217 97.4021 42.5617 98.5982 41.2097 99.8032C38.7827 101.965 36.4167 104.198 34.0247 106.398C31.4827 108.738 35.2927 112.546 37.8167 110.19C40.1917 107.973 42.5978 105.784 44.9348 103.528C46.2088 102.298 47.4768 101.061 48.7478 99.8281C49.2478 99.3431 49.8027 98.8771 50.1527 98.2661C50.5177 97.6311 50.5998 96.9821 50.4528 96.2791C50.1948 95.0461 50.4867 96.5231 50.4957 96.6971C50.4357 95.4821 49.5908 94.7711 48.4318 94.6331Z" fill="#FF6A12"/>
<path d="M80.0707 113.099C79.2357 114.602 79.3988 116.32 79.3878 117.979C79.3758 119.74 79.3367 121.503 79.3737 123.263C79.4337 126.071 79.5087 128.879 79.5767 131.687C79.6327 134.004 81.5088 135.977 83.8668 135.977C86.1268 135.977 88.2397 134.013 88.1567 131.687C88.0567 128.879 87.9647 126.071 87.8567 123.263C87.7907 121.546 87.6498 119.83 87.5358 118.115C87.4278 116.489 87.5617 114.505 86.6677 113.099C85.1707 110.746 81.5107 110.505 80.0707 113.099Z" fill="#FF944D"/>
<path d="M68.8918 108.454C68.8808 108.459 68.8688 108.468 68.8578 108.471C69.2028 108.396 70.5098 107.695 69.2458 108.284C68.6148 108.578 68.1418 108.835 67.7448 109.458C67.3748 110.038 67.2298 110.736 67.0448 111.391C66.5538 113.132 66.0578 114.871 65.5718 116.614C64.6988 119.744 63.9158 122.901 63.0938 126.045C62.2198 129.387 67.4158 130.817 68.2648 127.471C69.0638 124.321 69.9048 121.178 70.6518 118.015C71.0588 116.289 71.4578 114.561 71.8608 112.834C72.0208 112.15 72.2488 111.433 72.2328 110.729C72.2148 109.931 71.9488 109.478 71.5008 108.881C71.3448 108.76 71.1878 108.639 71.0318 108.519C71.2708 108.759 71.5088 108.999 71.7478 109.24C71.7408 109.226 71.7268 109.21 71.7168 109.197C71.0288 108.229 69.9748 107.933 68.8918 108.454Z" fill="#FF6A12"/>
<path d="M105.414 106.768C105.531 108.548 106.475 109.812 107.39 111.257C108.331 112.742 109.249 114.245 110.231 115.704C111.799 118.033 113.38 120.354 114.955 122.679C116.253 124.595 118.731 125.443 120.824 124.218C122.706 123.117 123.691 120.261 122.363 118.349C120.76 116.04 119.164 113.727 117.555 111.423C116.57 110.012 115.523 108.643 114.498 107.26C113.574 106.013 112.58 104.131 111.161 103.47C108.749 102.347 105.207 103.625 105.414 106.768Z" fill="#FF944D"/>
<path d="M93.5587 108.96C93.5527 108.969 93.5478 108.983 93.5398 108.99C93.7978 108.762 94.5618 107.548 93.7938 108.639C93.3908 109.211 93.0908 109.68 93.0758 110.428C93.0618 111.136 93.3078 111.789 93.5108 112.454C94.0388 114.183 94.5608 115.913 95.0938 117.64C96.0508 120.744 97.0988 123.823 98.1068 126.912C99.1738 130.182 104.375 128.768 103.278 125.486C102.247 122.403 101.255 119.304 100.173 116.24C99.5818 114.567 98.9828 112.896 98.3878 111.224C98.1548 110.569 97.9627 109.846 97.5927 109.259C97.2107 108.652 96.7168 108.266 96.0478 108.043C95.5498 107.877 95.2298 108.03 95.9278 108.027C95.9198 108.027 95.8988 108.015 95.8888 108.011C95.0398 107.667 94.0007 108.247 93.5587 108.96Z" fill="#FF6A12"/>
<path d="M123.229 87.7639C124.334 89.2509 125.598 89.7539 127.195 90.4959C128.787 91.2349 130.369 92.0009 131.98 92.6959C134.558 93.8069 137.142 94.9049 139.723 96.0089C142.071 97.0129 144.717 96.5489 145.809 93.9579C146.893 91.3839 145.399 89.1509 143.029 88.1679C140.487 87.1149 137.944 86.0609 135.402 85.0079C133.813 84.3499 132.193 83.7639 130.585 83.1549C129.373 82.6959 127.853 81.8399 126.528 82.0169C125.141 82.2019 123.979 82.6289 123.23 83.9089C122.597 84.9879 122.439 86.7009 123.229 87.7639Z" fill="#FF944D"/>
<path d="M114.524 96.0681C114.525 96.1391 114.411 94.6591 114.497 96.2511C114.525 96.7591 114.656 97.2281 114.921 97.6621C115.283 98.2531 115.84 98.6571 116.359 99.0981C117.75 100.277 119.135 101.462 120.531 102.635C122.975 104.69 125.477 106.68 127.951 108.698C129.072 109.612 130.646 109.795 131.743 108.698C132.681 107.76 132.878 105.818 131.743 104.906C129.209 102.869 126.698 100.798 124.13 98.8041C122.727 97.7141 121.318 96.6311 119.912 95.5451C119.231 95.0181 118.567 94.3611 117.737 94.0911C117.21 93.9201 116.743 93.8981 116.197 94.0171C115.711 94.1231 115.506 94.4141 116.081 94.0701C116.073 94.0751 116.05 94.0761 116.038 94.0781C115.171 94.2451 114.51 95.2161 114.524 96.0681Z" fill="#FF6A12"/>
<path d="M128.744 62.5613C130.189 63.1073 132.224 62.5043 133.75 62.2943C135.502 62.0533 137.259 61.8403 139.003 61.5523C141.776 61.0933 144.547 60.6183 147.319 60.1513C149.605 59.7663 150.884 56.9453 150.315 54.8743C149.655 52.4723 147.326 51.4653 145.038 51.8783C142.275 52.3763 139.51 52.8672 136.748 53.3732C135.064 53.6822 133.393 54.0633 131.719 54.4193C129.997 54.7853 128.457 54.9813 127.058 56.1783C124.676 58.2153 126.296 61.6353 128.744 62.5613Z" fill="#FF944D"/>
<path d="M125.147 73.9005C125.181 73.9515 124.332 72.8205 125.217 74.0605C125.519 74.4835 125.797 74.7785 126.263 75.0325C127.025 75.4485 127.951 75.4615 128.798 75.5745C130.596 75.8135 132.394 76.0575 134.193 76.2905C137.417 76.7085 140.655 77.0355 143.886 77.4015C145.327 77.5645 146.567 76.0525 146.567 74.7205C146.567 73.1435 145.332 72.1925 143.886 72.0395C140.711 71.7025 137.537 71.3265 134.357 71.0375C132.578 70.8755 130.798 70.7285 129.019 70.5745C128.315 70.5135 127.606 70.3895 126.906 70.5525C126.392 70.6725 125.972 70.8945 125.58 71.2545C125.123 71.6725 125.185 71.6755 125.47 71.4015C124.845 72.0005 124.651 73.1585 125.147 73.9005Z" fill="#FF6A12"/>
<path d="M118.919 38.1352C120.466 37.8082 121.773 36.3392 122.954 35.3302C124.295 34.1832 125.657 33.0562 126.965 31.8722C129.049 29.9872 131.123 28.0902 133.201 26.2002C137.288 22.4832 131.179 16.3682 127.134 20.1332C125.078 22.0472 123.017 23.9552 120.967 25.8742C119.715 27.0462 118.514 28.2732 117.295 29.4792C116.099 30.6632 114.718 31.7672 114.219 33.4362C113.343 36.3742 116.172 38.7152 118.919 38.1352Z" fill="#FF944D"/>
<path d="M122.04 49.5251C122.146 49.5701 120.744 48.892 122.172 49.614C122.798 49.93 123.428 50.0161 124.123 49.8631C124.788 49.7161 125.414 49.3631 126.031 49.0731C127.671 48.3021 129.314 47.5371 130.952 46.7611C133.89 45.3701 136.79 43.8951 139.705 42.4561C142.795 40.9321 140.082 36.2771 136.999 37.8261C134.096 39.2841 131.171 40.7061 128.293 42.2131C126.725 43.0341 125.161 43.8621 123.595 44.6871C122.976 45.0131 122.32 45.3 121.82 45.804C121.311 46.316 121.066 46.9081 121.023 47.6151C120.945 48.9081 121.046 47.379 121.09 47.196C120.901 47.991 121.197 49.1661 122.04 49.5251Z" fill="#FF6A12"/>
<path d="M78.1247 98.9074C77.4277 97.6104 76.6297 96.3944 76.7967 94.8634C76.9247 93.6904 77.5197 92.6164 77.8537 91.4974C78.2447 90.1874 78.0047 88.9414 78.2207 87.6154C78.7837 84.1564 77.9627 80.5414 76.4437 77.4114C72.9607 70.2354 65.3017 66.0244 57.4127 67.9244C53.5557 68.8534 50.1197 71.1394 47.9637 74.4614C43.0367 68.5394 32.6677 66.6214 25.7577 69.4604C22.4637 70.8134 18.4547 73.6004 17.0717 77.0434C15.9327 79.8784 16.1746 84.0114 17.9546 86.6464C16.8316 86.8914 15.2817 86.6404 14.2557 86.7224C12.9357 86.8284 11.6187 87.0224 10.3247 87.3054C8.15571 87.7804 5.91667 88.4634 4.03067 89.6694C0.678668 91.8114 -0.535325 95.5134 0.212675 99.3454C0.930675 103.023 3.33867 106.257 6.46567 108.267C10.2697 110.711 14.7017 110.798 18.9967 109.778C21.3807 109.212 24.8737 107.244 27.1797 108.67C28.9237 109.748 29.7556 111.992 30.9886 113.554C33.5096 116.747 37.4167 118.76 41.4857 118.921C45.6987 119.087 49.3997 117.307 52.4217 114.485C53.9867 113.024 55.5987 111.19 57.7527 110.641C60.3587 109.977 62.5467 112.118 64.7527 113.124C68.7457 114.946 73.5667 115.026 76.7757 111.674C80.1167 108.183 80.1637 103.071 78.1247 98.9074Z" fill="#ACF0FF"/>
<path d="M134.454 100.575C133.649 97.4321 131.248 94.8621 128.158 93.8421C126.61 93.3311 125.134 93.4041 123.536 93.5881C120.117 93.9801 119.468 91.3991 119.307 88.6121C119.116 85.3111 117.92 82.7951 114.596 81.7141C111.039 80.5571 107.415 81.9771 104.385 83.8481C102.629 84.9331 99.7337 87.6061 97.7587 85.6291C96.4827 84.3511 95.7817 82.5221 94.5177 81.1861C91.7477 78.2601 87.9617 77.4161 84.0567 77.9061C78.4197 78.6131 72.7617 81.5341 68.4127 85.1051C66.1367 86.9731 63.8647 89.4021 63.1817 92.3591C62.4607 95.4821 63.9277 98.5051 66.6777 100.008C64.2247 104.496 65.6527 110.243 70.1687 112.866C72.2797 114.093 74.8297 114.592 77.2437 114.192C79.1307 113.879 80.5327 113.163 82.4547 113.915C84.0867 114.553 85.7037 115.215 87.3647 115.774C93.5017 117.841 100.351 119.093 106.677 117.101C108.033 116.674 109.33 116.088 110.579 115.413C112.355 114.455 114.439 112.476 116.553 112.937C119.425 113.563 121.984 114.109 124.945 113.502C130.899 112.28 135.658 106.832 134.454 100.575Z" fill="#E0F9FF"/>
<path d="M98.4797 3.33945C98.4527 3.34345 98.4257 3.34745 98.3987 3.35245C97.8417 3.43845 97.4527 3.98047 97.2837 4.46747C97.0527 5.13147 96.9167 5.81447 96.7477 6.49647C96.5257 7.39047 97.0347 8.45047 97.9797 8.66547C98.8597 8.86547 99.9507 8.40045 100.149 7.43345C100.321 6.59445 100.476 5.75045 100.422 4.89145C100.389 4.37445 100.152 3.73746 99.6307 3.51246C99.2107 3.33246 98.9357 3.26945 98.4797 3.33945Z" fill="white"/>
<path d="M80.4076 5.6858C80.4016 5.7098 80.3936 5.7328 80.3836 5.7558C80.4316 5.6418 80.4796 5.5288 80.5276 5.4148C80.4446 5.5888 80.3827 5.7708 80.3117 5.9488C80.3627 5.8288 80.4127 5.70979 80.4637 5.58979C80.3927 5.73079 80.3356 5.88178 80.2766 6.02778C80.1396 6.36878 80.2517 6.8918 80.4297 7.1948C80.6137 7.5088 80.9736 7.80878 81.3346 7.89078C82.1506 8.07678 82.9527 7.6448 83.1977 6.8328C83.2977 6.4998 83.2686 6.16079 83.1936 5.82779C83.0976 5.39779 82.7657 5.11179 82.4317 4.86179C82.0907 4.60579 81.5727 4.63779 81.2057 4.79279C80.8077 4.96079 80.5336 5.2698 80.4076 5.6858Z" fill="white"/>
<path d="M61.1336 4.30882C60.9516 4.76982 61.0967 5.27981 61.1737 5.74781C61.2507 6.21281 61.3397 6.61284 61.5597 7.03984C61.9127 7.72284 62.8166 7.95582 63.4886 7.67182C64.1796 7.37982 64.6027 6.59383 64.3827 5.84983C64.2487 5.39483 64.0196 5.04282 63.7566 4.65882C63.4936 4.27582 63.2426 3.82982 62.8036 3.62882C62.0846 3.29982 61.4206 3.57982 61.1336 4.30882Z" fill="white"/>
<path d="M48.3367 17.4078C48.7247 17.4078 49.1317 17.2388 49.4067 16.9648C49.6697 16.7018 49.8667 16.2718 49.8497 15.8948C49.8317 15.5038 49.7037 15.0979 49.4067 14.8249C49.1107 14.5529 48.7467 14.3818 48.3367 14.3818C47.9487 14.3818 47.5406 14.5509 47.2666 14.8249C47.0046 15.0869 46.8066 15.5178 46.8236 15.8948C46.8406 16.2858 46.9696 16.6918 47.2666 16.9648C47.5626 17.2358 47.9267 17.4078 48.3367 17.4078Z" fill="white"/>
<path d="M29.4617 25.846C29.7407 26.607 30.2816 27.087 30.9156 27.559C31.1346 27.722 31.3587 27.879 31.5867 28.028C32.1467 28.393 32.6447 28.449 33.3017 28.323C34.3247 28.127 34.8297 26.749 34.2847 25.906C33.9787 25.432 33.6127 25.134 33.0747 24.956C32.8197 24.872 32.5607 24.804 32.3067 24.715C31.7617 24.524 31.2226 24.288 30.6316 24.31C29.9046 24.335 29.1777 25.073 29.4617 25.846Z" fill="white"/>
<path d="M24.3418 42.9143C24.3518 42.9293 24.3607 42.9433 24.3707 42.9583C24.3167 42.8313 24.2637 42.7033 24.2097 42.5763C24.3637 43.3073 24.9768 43.7353 25.6348 43.9663C26.0188 44.1013 26.6118 44.0133 26.9508 43.7943C27.2678 43.5893 27.5027 43.3263 27.6497 42.9773C27.7927 42.6383 27.8527 42.2253 27.7357 41.8653C27.5937 41.4273 27.3358 41.1013 26.9508 40.8443C26.7728 40.7253 26.5487 40.6423 26.3447 40.5793C26.1177 40.5083 25.8698 40.5083 25.6388 40.5393C25.4858 40.5403 25.3427 40.5783 25.2097 40.6553C25.1197 40.6903 25.0318 40.7283 24.9448 40.7693C25.2138 40.6963 25.4828 40.6233 25.7528 40.5503C25.7338 40.5513 25.7157 40.5533 25.6967 40.5543C25.1337 40.5923 24.6357 40.8293 24.3427 41.3313C24.0677 41.7983 24.0398 42.4503 24.3418 42.9143Z" fill="white"/>
<path d="M18.2516 59.4721C18.7776 59.9951 19.4826 60.0811 20.1786 60.2301C21.0436 60.4161 21.7206 60.4781 22.5446 60.1161C23.5146 59.6901 23.2816 58.3301 22.5446 57.8431C21.8876 57.4091 21.1866 57.4281 20.4336 57.4621C19.7656 57.4921 19.0326 57.4391 18.4616 57.8401C17.9236 58.2181 17.7446 58.9681 18.2516 59.4721Z" fill="white"/>
<path d="M114.705 14.2769C114.204 14.1369 113.69 14.3739 113.373 14.7599C113.247 14.9129 113.1 15.0659 113.001 15.2349C112.837 15.5129 112.818 15.8029 112.784 16.1119C112.763 16.3029 112.856 16.5659 112.951 16.7289C113.085 16.9589 113.293 17.1269 113.535 17.2289C113.99 17.4209 114.511 17.3199 114.869 16.9759C115.093 16.7609 115.267 16.5379 115.361 16.2309C115.398 16.1079 115.424 15.9799 115.451 15.8549C115.512 15.5739 115.532 15.3279 115.448 15.0489C115.34 14.6909 115.071 14.3799 114.705 14.2769Z" fill="white"/>
<path d="M127.603 26.5775C128.949 26.3165 130.246 25.3955 131.061 24.3135C131.513 23.7135 131.217 22.7515 130.667 22.3415C130.076 21.8995 129.192 21.8965 128.659 22.4605C128.247 22.8965 128.032 23.2575 127.65 23.6965C127.305 24.0925 126.938 24.4575 126.605 24.8655C125.955 25.6625 126.56 26.7805 127.603 26.5775Z" fill="white"/>
<path d="M135.896 42.0454C136.223 42.1154 136.538 42.1474 136.867 42.0534C137.082 41.9924 137.295 41.8964 137.492 41.7924C137.966 41.5434 138.236 40.9984 138.245 40.4794C138.246 40.4264 138.242 40.3744 138.236 40.3214C138.193 39.9644 138.117 39.6144 137.837 39.3574C137.581 39.1224 137.232 38.9324 136.873 38.9584C136.753 38.9664 136.647 38.9694 136.522 38.9854C136.249 39.0224 136.021 39.1154 135.803 39.2844C135.628 39.4194 135.513 39.5764 135.38 39.7524C135.459 39.6504 135.537 39.5484 135.616 39.4474C135.57 39.5024 135.522 39.5534 135.47 39.6034C135.345 39.7224 135.246 39.8584 135.144 39.9994C135.217 39.9044 135.29 39.8094 135.364 39.7154C135.344 39.7414 135.323 39.7664 135.301 39.7914C134.979 40.1624 134.819 40.6144 134.954 41.1044C135.073 41.5354 135.444 41.9484 135.896 42.0454Z" fill="white"/>
<path d="M141.159 57.3779C141.888 57.7729 142.702 57.8199 143.514 57.7489C144.378 57.6729 145.2 57.5779 145.928 57.0759C147.129 56.2479 146.71 54.3529 145.176 54.2999C144.443 54.2749 143.802 54.4849 143.091 54.6199C142.412 54.7479 141.783 54.8099 141.159 55.1319C140.299 55.5759 140.326 56.9269 141.159 57.3779Z" fill="white"/>
<path d="M142.177 75.8489C142.54 76.2399 143.067 76.3959 143.585 76.3269C144.011 76.2699 144.344 76.0999 144.666 75.8149C144.975 75.5409 145.105 75.1109 145.123 74.7119C145.145 74.2249 144.88 73.7739 144.508 73.4869C143.788 72.9299 142.677 73.1049 142.216 73.9249C142.207 73.9429 142.196 73.9599 142.183 73.9759C142.264 73.8709 142.345 73.7669 142.425 73.6619C142.412 73.6779 142.398 73.6929 142.382 73.7059C142.486 73.6259 142.59 73.5459 142.694 73.4649C142.668 73.4849 142.643 73.4999 142.614 73.5149C142.735 73.4639 142.857 73.4129 142.978 73.3609C142.838 73.4189 142.68 73.4569 142.556 73.5369C142.436 73.6139 142.324 73.7159 142.214 73.8049C142.313 73.7279 142.412 73.6519 142.512 73.5749C142.498 73.5859 142.483 73.5949 142.468 73.6039C141.652 74.0889 141.551 75.1739 142.177 75.8489Z" fill="white"/>
<path d="M138.216 91.4415C138.562 92.0935 139.249 92.5275 139.828 92.9555C140.107 93.1625 140.381 93.4065 140.678 93.5845C141.146 93.8645 141.574 93.8865 142.102 93.8075C142.699 93.7175 143.19 92.8625 142.955 92.3045C142.763 91.8485 142.591 91.5355 142.162 91.2755C141.811 91.0635 141.374 90.9315 140.994 90.7755C140.346 90.5115 139.641 90.1625 138.925 90.2035C138.295 90.2405 137.914 90.8715 138.216 91.4415Z" fill="white"/>
<path d="M116.985 119.499C117.09 120.389 117.332 121.569 118.21 121.993C118.909 122.33 119.811 122.077 120.024 121.255C120.104 120.947 120.15 120.607 120.064 120.295C119.998 120.055 119.862 119.864 119.733 119.658C119.511 119.305 119.294 118.967 119.006 118.662C118.68 118.316 118.136 118.239 117.713 118.417C117.321 118.582 116.931 119.04 116.985 119.499Z" fill="white"/>
<path d="M99.2166 124.983C99.1986 125.07 99.1786 125.158 99.1626 125.246C99.0996 125.595 99.1286 125.953 99.3436 126.25C99.4926 126.457 99.6466 126.613 99.8866 126.715C100.113 126.81 100.387 126.85 100.626 126.772C101.097 126.62 101.469 126.191 101.46 125.677C101.454 125.333 101.359 124.981 101.105 124.733C101.036 124.666 100.961 124.605 100.889 124.542C100.617 124.301 100.276 124.185 99.9156 124.285C99.5966 124.372 99.2846 124.648 99.2166 124.983Z" fill="white"/>
<path d="M82.5647 129.224C82.3907 130.229 82.4857 131.239 82.6097 132.247C82.7217 133.158 83.3477 133.892 84.3507 133.756C85.3297 133.624 85.7786 132.751 85.6286 131.838C85.4646 130.841 85.2777 129.838 84.8287 128.928C84.3767 128.014 82.7447 128.185 82.5647 129.224Z" fill="white"/>
<path d="M66.7976 127.484C66.8186 127.464 66.8386 127.445 66.8596 127.425C66.6836 127.527 66.5076 127.63 66.3316 127.732C66.5576 127.671 66.7797 127.539 66.9447 127.373C67.1987 127.046 67.2196 127.017 67.0086 127.286C67.1026 127.18 67.1866 127.068 67.2616 126.95C67.4166 126.699 67.4616 126.423 67.5706 126.158C67.5236 126.27 67.4766 126.382 67.4286 126.494C67.4386 126.473 67.4486 126.452 67.4586 126.431C67.7606 125.797 67.6786 125.079 67.0996 124.632C66.5696 124.223 65.7447 124.23 65.2677 124.741C64.8867 125.15 64.5766 125.651 64.6156 126.234C64.6366 126.546 64.7187 126.833 64.8717 127.107C64.9687 127.281 65.1936 127.507 65.3726 127.601C65.4736 127.643 65.5736 127.686 65.6746 127.728C65.4336 127.622 65.3696 127.597 65.4826 127.653C65.9286 127.877 66.4316 127.832 66.7976 127.484Z" fill="white"/>
<path d="M49.9517 124.532C50.4017 123.905 50.7457 123.214 51.0857 122.523C51.4607 121.762 51.3157 120.731 50.5037 120.302C49.7207 119.888 48.7457 120.104 48.2827 120.884C47.8157 121.67 47.3897 122.457 47.0567 123.311C46.7707 124.045 47.3127 124.901 47.9737 125.18C48.7417 125.505 49.4847 125.182 49.9517 124.532Z" fill="white"/>
<path d="M23.5888 81.4445C22.9128 83.4655 24.0118 86.2925 25.9508 87.2135C26.7428 87.5895 27.4637 86.6835 26.8817 86.0065C26.3497 85.3875 25.7828 84.7725 25.4738 84.0035C25.1678 83.2425 25.1587 82.4565 25.1237 81.6515C25.0857 80.7625 23.8698 80.6025 23.5888 81.4445Z" fill="white"/>
<path d="M27.5266 84.54C27.1596 86.273 29.0666 87.966 30.6316 88.197C31.0796 88.263 31.5336 88.085 31.6646 87.611C31.7806 87.189 31.5226 86.679 31.0786 86.579C30.5386 86.457 30.0286 86.218 29.6296 85.829C29.1996 85.41 29.0546 84.865 28.7306 84.384C28.4356 83.947 27.6506 83.949 27.5266 84.54Z" fill="white"/>
<path d="M64.9107 78.783C63.6757 78.637 62.1407 79.631 61.2527 80.396C60.2137 81.291 59.5647 82.485 59.4847 83.857C59.4247 84.889 61.0426 84.89 61.0926 83.857C61.1516 82.645 61.8676 81.678 62.7826 80.933C63.5256 80.329 64.5767 79.944 65.1047 79.122C65.2057 78.963 65.0677 78.801 64.9107 78.783Z" fill="white"/>
<path d="M64.1076 84.1025C63.5526 83.5645 62.5856 84.7265 62.3296 85.1285C61.7856 85.9845 61.5816 87.0665 62.0196 88.0005C62.3306 88.6615 63.3496 88.3095 63.3486 87.6405C63.3466 86.8645 63.2536 86.1665 63.6006 85.4375C63.7256 85.1775 64.4156 84.4005 64.1076 84.1025Z" fill="white"/>
<path d="M42.7027 98.2878C42.0936 99.0878 42.6106 100.384 43.0916 101.115C43.7256 102.077 44.6026 102.735 45.6786 103.129C46.6196 103.474 47.0607 101.928 46.0957 101.617C45.2897 101.357 44.5946 100.831 44.1136 100.134C43.7126 99.5518 43.5116 98.7528 43.0246 98.2468C42.9236 98.1418 42.7797 98.1858 42.7027 98.2878Z" fill="white"/>
<path d="M48.0276 99.9533C49.0046 101.709 51.2436 102.971 53.2456 102.447C53.9376 102.266 54.0246 101.079 53.2456 100.957C51.7396 100.721 50.4646 100.355 49.5116 99.0853C48.8636 98.2243 47.4756 98.9603 48.0276 99.9533Z" fill="white"/>
<path d="M49.6037 105.606C50.1277 106.267 51.1207 106.519 51.9237 106.524C52.8727 106.53 52.8727 105.067 51.9237 105.05C51.2847 105.039 50.7707 104.804 50.1697 104.634C49.5627 104.462 49.2657 105.18 49.6037 105.606Z" fill="white"/>
<path d="M14.6457 100.724C14.3667 101.462 14.6637 102.325 15.1247 102.922C15.6437 103.595 16.3467 103.944 17.1827 104.032C17.6097 104.077 17.9667 103.637 17.9707 103.244C17.9757 102.776 17.6037 102.507 17.1827 102.456C16.3087 102.35 15.9747 101.441 15.7747 100.725C15.6107 100.132 14.8417 100.207 14.6457 100.724Z" fill="white"/>
<path d="M19.1547 101.649C18.9897 102.173 19.4317 102.668 19.8187 102.957C20.2217 103.258 20.7087 103.402 21.2117 103.373C21.6087 103.35 21.9487 103.05 21.9487 102.636C21.9487 102.26 21.6107 101.87 21.2117 101.899C20.9617 101.917 20.7477 101.899 20.5037 101.785C20.2277 101.655 20.0297 101.394 19.7267 101.324C19.4747 101.267 19.2327 101.401 19.1547 101.649Z" fill="white"/>
<path d="M90.0937 89.7713C88.7447 91.8883 89.5617 95.0293 91.4357 96.5383C92.2797 97.2173 93.3777 96.1712 92.6397 95.3342C91.3167 93.8342 91.1577 92.2373 91.4467 90.3403C91.5677 89.5433 90.5727 89.0213 90.0937 89.7713Z" fill="white"/>
<path d="M94.2226 93.4417C93.9626 95.0937 95.5946 96.7287 96.9886 97.3417C97.4366 97.5387 97.9486 97.4697 98.2176 97.0197C98.4516 96.6287 98.3306 96.0007 97.8956 95.7907C97.3466 95.5257 96.8546 95.1727 96.4656 94.6967C96.0646 94.2067 95.9006 93.5887 95.4916 93.1067C95.1436 92.6957 94.3096 92.8907 94.2226 93.4417Z" fill="white"/>
<path d="M119.158 98.006C118.857 98.828 118.574 99.5909 117.962 100.244C117.376 100.87 116.535 101.062 115.954 101.646C115.598 102.004 115.711 102.79 116.279 102.878C117.412 103.052 118.524 102.167 119.228 101.342C119.956 100.489 120.516 99.321 120.417 98.177C120.355 97.45 119.412 97.313 119.158 98.006Z" fill="white"/>
<path d="M120.924 102.644C120.421 102.948 120.055 103.427 119.55 103.738C119.026 104.062 118.402 104.134 117.891 104.456C117.211 104.885 117.538 105.815 118.279 105.888C119.023 105.961 119.841 105.423 120.403 104.984C120.938 104.566 121.585 103.933 121.688 103.231C121.75 102.811 121.35 102.387 120.924 102.644Z" fill="white"/>
<path d="M105.026 105.487C103.575 106.013 104.05 108.22 104.937 109.034C105.749 109.779 106.944 108.599 106.152 107.819C105.946 107.616 105.826 107.364 105.787 107.077C105.734 106.685 105.907 106.335 105.821 105.939C105.751 105.616 105.342 105.373 105.026 105.487Z" fill="white"/>
<path d="M74.9797 101.411C73.5687 102.74 74.0087 105.201 75.2217 106.478C75.9057 107.199 76.8697 106.154 76.2857 105.414C75.4247 104.323 75.6466 103.204 75.9546 101.978C76.0986 101.408 75.4047 101.011 74.9797 101.411Z" fill="white"/>
<path d="M78.9167 99.6042C77.5327 100.709 77.2156 102.594 77.9436 104.15C78.3186 104.951 79.4687 104.36 79.3047 103.576C79.0927 102.564 79.3927 101.525 80.0867 100.774C80.8267 99.9752 79.7337 98.9512 78.9167 99.6042Z" fill="white"/>
</svg>
