<svg width="234" height="202" viewBox="0 0 234 202" fill="none" xmlns="http://www.w3.org/2000/svg">
<path d="M190.529 128.667C187.475 128.237 185.312 125.254 185.724 122.043L188.606 99.4984C189.018 96.2876 191.853 94.0131 194.907 94.4465C197.961 94.8799 200.124 97.8597 199.712 101.071L196.83 123.616C196.417 126.826 193.583 129.098 190.529 128.667Z" fill="#230603"/>
<path d="M192.831 115.852C191.738 115.697 190.968 114.635 191.113 113.486L194.955 83.4378C195.102 82.2896 196.113 81.4797 197.206 81.6316C198.298 81.7866 199.068 82.8495 198.924 83.9978L195.078 114.046C194.934 115.195 193.923 116.007 192.831 115.852Z" fill="#230603"/>
<path d="M217.131 169.98H125.116C122.137 169.98 119.721 167.44 119.721 164.309V120.905L134.876 76.3205C139.113 76.3047 143.849 76.5641 148.976 77.3011C158.731 78.7025 166.939 81.404 173.321 84.1055C172.888 96.3412 172.454 108.577 172.018 120.813C188.669 120.784 205.324 120.756 221.975 120.727C225.245 120.721 227.767 123.751 227.331 127.155C225.715 139.793 224.099 152.427 222.48 165.061C222.119 167.88 219.835 169.98 217.131 169.98Z" fill="#CC0000"/>
<path d="M165.718 121.135C152.659 120.863 139.601 120.588 126.542 120.316C130.117 108.02 133.688 95.7275 137.263 83.4316C147.962 85.2126 158.659 86.9904 169.358 88.7714C168.143 99.5583 166.93 110.348 165.718 121.135Z" fill="#BFD3D8"/>
<path d="M199.76 136.914H169.355V151.26H199.76V136.914Z" fill="#230603"/>
<path d="M180.44 153.383L171.344 133.849L172.695 133.15L181.791 152.687L180.44 153.383Z" fill="#CC0000"/>
<path d="M186.088 152.807L176.992 133.27L178.343 132.571L187.439 152.108L186.088 152.807Z" fill="#CC0000"/>
<path d="M192.981 152.807L183.885 133.27L185.236 132.571L194.332 152.108L192.981 152.807Z" fill="#CC0000"/>
<path d="M199.086 151.608L189.99 132.071L191.344 131.372L200.44 150.909L199.086 151.608Z" fill="#CC0000"/>
<path d="M230.556 154.607C226.506 153.901 222.456 153.196 218.406 152.49V140.195C222.911 139.353 227.415 138.508 231.919 137.667C231.465 143.314 231.01 148.96 230.556 154.607Z" fill="#CC0000"/>
<path d="M231.059 156.793C229.852 156.793 228.865 155.755 228.865 154.487V136.968C228.865 135.7 229.852 134.662 231.059 134.662C232.265 134.662 233.252 135.7 233.252 136.968V154.487C233.252 155.755 232.265 156.793 231.059 156.793Z" fill="#BFD3D8"/>
<path d="M223.964 153.854C223.708 153.819 223.564 153.623 223.591 153.405L225.465 138.749C225.492 138.534 225.673 138.366 225.889 138.41C226.094 138.442 226.241 138.638 226.211 138.856L224.337 153.512C224.313 153.708 224.153 153.854 223.964 153.854Z" fill="#230603"/>
<path d="M165.576 146.192C163.383 144.44 161.993 141.7 161.854 138.796C161.737 136.348 159.89 134.191 157.588 133.814C154.853 133.365 152.406 131.625 150.98 129.151C149.509 126.599 146.566 125.577 143.759 126.013C141.168 126.415 138.463 125.656 136.417 123.903C134.609 122.356 131.847 122.356 130.038 123.903C127.992 125.656 125.287 126.415 122.697 126.013C119.886 125.577 116.947 126.599 115.475 129.151C114.049 131.625 111.603 133.368 108.868 133.814C106.566 134.191 104.716 136.351 104.601 138.796C104.463 141.7 103.073 144.443 100.879 146.192C98.6165 147.998 97.9576 151.181 98.6647 154.072C99.2274 156.375 98.9806 158.855 97.9726 160.984C96.7089 163.657 96.724 166.915 98.5805 169.177C100.142 171.081 100.966 173.587 100.867 176.095C100.747 179.078 102.023 182.045 104.592 183.32C106.87 184.45 108.657 186.534 109.488 189.033C109.996 189.792 110.821 190.83 112.063 191.776C113.637 192.975 115.171 193.484 116.125 193.718C116.89 193.781 117.521 193.93 117.997 194.072C118.403 194.196 118.803 194.348 119.194 194.531C120.461 195.123 121.556 195.993 122.429 197.052C124.138 199.124 127.057 199.589 129.449 198.492C131.684 197.463 134.257 197.397 136.538 198.289C139.2 199.33 142.279 198.972 144.222 196.799C146.01 194.803 148.558 193.648 151.17 193.667C151.696 193.623 153.312 193.421 154.738 192.064C155.903 190.96 156.33 189.672 156.484 189.109C156.685 188.274 157.115 187.066 157.982 185.873C158.999 184.472 160.368 183.437 161.903 182.83C164.298 181.884 165.94 179.474 165.649 176.804C165.348 174.064 166.172 171.262 167.881 169.177C169.735 166.915 169.753 163.66 168.489 160.984C167.484 158.855 167.234 156.375 167.797 154.072C168.495 151.181 167.836 147.998 165.576 146.192Z" fill="#230603"/>
<path d="M143.362 160.905C143.362 166.792 138.821 171.562 133.225 171.562C127.628 171.562 123.088 166.789 123.088 160.905C123.088 155.018 127.625 150.248 133.225 150.248C138.824 150.248 143.362 155.018 143.362 160.905Z" fill="#BFD3D8"/>
<path d="M227.9 167.203C226.579 166.147 225.739 164.495 225.658 162.746C225.589 161.272 224.472 159.972 223.085 159.744C221.436 159.475 219.962 158.425 219.102 156.935C218.214 155.398 216.442 154.781 214.748 155.043C213.186 155.287 211.555 154.828 210.322 153.772C209.232 152.838 207.569 152.838 206.479 153.772C205.246 154.828 203.615 155.287 202.053 155.043C200.359 154.781 198.587 155.398 197.699 156.935C196.839 158.425 195.364 159.475 193.719 159.744C192.332 159.972 191.215 161.272 191.146 162.746C191.062 164.495 190.225 166.15 188.904 167.203C187.541 168.291 187.144 170.208 187.571 171.951C187.911 173.34 187.761 174.833 187.156 176.117C186.395 177.728 186.404 179.692 187.523 181.055C188.465 182.204 188.962 183.713 188.901 185.225C188.829 187.021 189.596 188.812 191.146 189.577C192.518 190.258 193.595 191.513 194.098 193.022C194.405 193.478 194.901 194.104 195.65 194.677C196.598 195.398 197.525 195.708 198.1 195.847C198.56 195.885 198.942 195.974 199.228 196.059C199.472 196.132 199.712 196.227 199.95 196.337C200.711 196.695 201.373 197.22 201.9 197.856C202.929 199.105 204.689 199.384 206.13 198.723C207.478 198.103 209.028 198.061 210.403 198.599C212.007 199.226 213.863 199.01 215.034 197.701C216.111 196.496 217.648 195.803 219.222 195.812C219.538 195.787 220.513 195.664 221.373 194.848C222.074 194.183 222.333 193.405 222.423 193.067C222.547 192.564 222.803 191.836 223.326 191.115C223.94 190.27 224.764 189.647 225.688 189.283C227.132 188.714 228.122 187.262 227.945 185.652C227.764 184 228.261 182.311 229.29 181.055C230.406 179.692 230.418 177.731 229.657 176.117C229.049 174.833 228.902 173.34 229.242 171.951C229.66 170.208 229.263 168.291 227.9 167.203Z" fill="#230603"/>
<path d="M214.513 176.07C214.513 179.62 211.778 182.495 208.402 182.495C205.029 182.495 202.294 179.62 202.294 176.07C202.294 172.524 205.029 169.646 208.402 169.646C211.778 169.646 214.513 172.521 214.513 176.07Z" fill="#BFD3D8"/>
<path d="M109.924 149.865C109.891 172.299 98.457 189.062 92.2286 196.793C47.2878 203.797 34.9394 198.043 32.099 191.362C28.4672 182.824 41.8748 176.329 49.7942 149.868C56.9373 125.994 55.7127 98.8974 64.0444 96.044C64.7364 95.8068 70.2878 94.0954 77.7107 92.6561C78.812 92.441 79.5431 92.3018 79.8621 92.2575C88.4314 91.0902 109.969 119.01 109.924 149.865Z" fill="#FFA92C"/>
<path d="M67.3331 181.397C67.3331 190.444 53.1011 197.777 35.5442 197.777C17.9874 197.777 3.7583 190.444 3.7583 181.397C3.7583 172.35 17.9904 165.017 35.5442 165.017C53.1011 165.017 67.3331 172.353 67.3331 181.397Z" fill="#FFA92C"/>
<path d="M16.7414 197.78C25.9875 197.78 33.4829 185.213 33.4829 169.711C33.4829 154.21 25.9875 141.643 16.7414 141.643C7.49539 141.643 0 154.21 0 169.711C0 185.213 7.49539 197.78 16.7414 197.78Z" fill="#FFA92C"/>
<path d="M90.8201 102.706C84.5435 111.946 72.857 116.697 62.2417 114.97C46.2825 112.373 33.8077 95.3067 36.7955 87.642C38.2308 83.9598 43.1864 82.5648 47.1311 81.9606C54.6653 62.1202 68.9003 50.3304 79.0764 52.5733C92.8962 55.629 102.627 85.3296 90.8201 102.706Z" fill="#FFA92C"/>
<path d="M101.538 58.704C110.742 64.629 115.92 78.9841 110.715 86.0194C105.693 92.8079 92.1381 91.2642 84.345 84.4536C77.9301 78.845 72.7758 67.3589 77.5389 60.213C82.2719 53.1081 94.3075 54.0539 101.538 58.704Z" fill="#FFA92C"/>
<path d="M87.0621 138.679C87.0621 147.591 74.1991 154.812 58.3272 154.812C42.4583 154.812 29.5923 147.591 29.5923 138.679C29.5923 129.768 42.4583 122.546 58.3272 122.546C74.1991 122.546 87.0621 129.768 87.0621 138.679Z" fill="#FFA92C"/>
<path d="M70.7057 122.938H54.1779C53.9703 122.938 53.8018 122.761 53.8018 122.543C53.8018 122.325 53.9703 122.147 54.1779 122.147H70.7057C70.9133 122.147 71.0818 122.325 71.0818 122.543C71.0818 122.764 70.9133 122.938 70.7057 122.938Z" fill="#230603"/>
<path d="M61.0595 156.347C56.2332 156.347 52.1231 155.379 49.1443 154.366C48.9487 154.297 48.8374 154.075 48.9005 153.87C48.9637 153.661 49.1804 153.55 49.376 153.613C53.802 155.126 60.7826 156.524 68.8976 154.673C74.0759 153.49 78.8901 151.187 83.1989 147.828C83.3614 147.698 83.6021 147.736 83.7254 147.91C83.8488 148.087 83.8127 148.334 83.6472 148.463C79.2512 151.889 74.3407 154.24 69.0571 155.445C66.2378 156.09 63.5508 156.347 61.0595 156.347Z" fill="#230603"/>
<path d="M66.3429 173.808C66.2677 173.808 66.1924 173.783 66.1263 173.735C61.7243 170.452 56.886 168.171 51.7498 166.966C49.1982 166.368 46.5715 166.042 43.9478 165.992C43.7402 165.988 43.5747 165.805 43.5777 165.59C43.5807 165.375 43.7492 165.201 43.9538 165.201C46.6347 165.251 49.3096 165.583 51.9123 166.191C57.1477 167.421 62.0763 169.74 66.5596 173.09C66.7281 173.217 66.7702 173.46 66.6498 173.64C66.5746 173.751 66.4603 173.808 66.3429 173.808Z" fill="#230603"/>
<path d="M32.4206 179.97C32.1047 179.882 31.9964 179.657 32.0626 179.451C32.6673 177.544 33.0856 175.573 33.3143 173.593C33.6332 170.777 33.564 167.931 33.1157 165.118C33.0796 164.906 33.218 164.701 33.4226 164.663C33.6423 164.637 33.8228 164.77 33.8559 164.989C34.3192 167.87 34.3884 170.797 34.0605 173.685C33.8288 175.722 33.3985 177.743 32.7787 179.695C32.7245 179.866 32.5771 179.97 32.4206 179.97Z" fill="#230603"/>
<path d="M63.4215 113.809C61.1498 113.809 59.1519 113.584 57.5331 113.297C57.3285 113.262 57.1901 113.059 57.2232 112.841C57.2562 112.626 57.4609 112.493 57.6565 112.518C61.4477 113.18 67.3481 113.518 73.9496 111.304C78.7548 109.694 83.2531 106.932 86.963 103.323C87.1165 103.174 87.3572 103.187 87.4956 103.345C87.637 103.506 87.628 103.756 87.4745 103.905C83.6833 107.593 79.0857 110.412 74.1813 112.057C70.2577 113.373 66.5748 113.809 63.4215 113.809Z" fill="#230603"/>
<path d="M43.7674 83.2009C44.312 84.0518 42.4134 85.7125 40.244 89.6224C38.1649 93.3678 38.1619 94.9937 37.3555 95.0032C35.7758 95.0222 33.0437 88.8569 35.2733 85.6113C36.4799 83.8557 38.7877 83.4602 41.0294 83.0806C42.3834 82.8465 43.4274 82.6663 43.7674 83.2009Z" fill="#230603"/>
<path d="M61.4597 80.1542C61.4597 82.5647 60.5931 84.5165 59.528 84.5165C58.4598 84.5165 57.5933 82.5647 57.5933 80.1542C57.5933 77.7438 58.4598 75.792 59.528 75.792C60.5961 75.792 61.4597 77.7438 61.4597 80.1542Z" fill="#230603"/>
<path d="M66.9419 78.4934C66.7283 78.4902 66.5628 78.3099 66.5658 78.0916C66.5989 75.7191 65.3833 73.5523 63.3974 72.4356C61.4326 71.3316 59.0616 71.4645 57.2111 72.7836C57.0396 72.9038 56.8079 72.8563 56.6876 72.6792C56.5732 72.4957 56.6154 72.2521 56.7869 72.1288C58.866 70.6452 61.5379 70.4933 63.7494 71.7365C65.9881 72.9923 67.3541 75.4344 67.318 78.1043C67.315 78.3194 67.1465 78.4934 66.9419 78.4934Z" fill="#230603"/>
<path d="M95.2402 90.2296C92.2493 89.7456 87.9436 88.4075 84.0922 84.7507C77.5088 78.4905 77.0424 69.8862 77.0575 67.3967C77.0605 67.1816 77.226 67.0044 77.4336 67.0044C77.6442 67.0044 77.8127 67.1847 77.8097 67.403C77.7976 69.8103 78.246 78.1267 84.5977 84.1655C88.3077 87.6926 92.466 88.9832 95.2973 89.4482C95.5019 89.4799 95.6433 89.6824 95.6133 89.9006C95.5832 90.0904 95.4237 90.2296 95.2402 90.2296Z" fill="#230603"/>
<path d="M101.698 117.336H96.6338V189.986H101.698V117.336Z" fill="#230603"/>
<path d="M124.574 201.336H73.7601C69.671 201.336 66.3281 197.818 66.3281 193.522V192.019C66.3281 187.721 69.671 184.206 73.7601 184.206H124.574C128.663 184.206 132.006 187.721 132.006 192.019V193.522C132.006 197.818 128.66 201.336 124.574 201.336Z" fill="#EBBEAA"/>
<path d="M120.178 184.206H78.1562C74.3921 184.206 71.311 180.967 71.311 177.01V174.273C71.311 170.316 74.3921 167.077 78.1562 167.077H120.178C123.943 167.077 127.024 170.316 127.024 174.273V177.01C127.024 180.967 123.943 184.206 120.178 184.206Z" fill="#938000"/>
<path d="M115.731 167.077H82.6033C79.2002 167.077 76.417 164.151 76.417 160.573V156.451C76.417 152.873 79.2002 149.947 82.6033 149.947H115.731C119.134 149.947 121.917 152.873 121.917 156.451V160.573C121.917 164.147 119.134 167.077 115.731 167.077Z" fill="#CC0000"/>
<path d="M111.519 149.944H86.8126C83.8007 149.944 81.3364 147.353 81.3364 144.187V138.572C81.3364 135.405 83.8007 132.814 86.8126 132.814H111.519C114.531 132.814 116.995 135.405 116.995 138.572V144.187C116.995 147.353 114.531 149.944 111.519 149.944Z" fill="#CC0000"/>
<path d="M106.629 128.686H91.6991C89.2348 128.686 87.2158 126.567 87.2158 123.973V116.267C87.2158 113.676 89.2348 111.554 91.6991 111.554H106.629C109.093 111.554 111.112 113.676 111.112 116.267V123.973C111.112 126.567 109.096 128.686 106.629 128.686Z" fill="#BFD3D8"/>
<path d="M112.364 150.21H85.3234C85.1158 150.21 84.9473 150.033 84.9473 149.814C84.9473 149.596 85.1158 149.419 85.3234 149.419H112.364C112.572 149.419 112.74 149.596 112.74 149.814C112.74 150.033 112.572 150.21 112.364 150.21Z" fill="#230603"/>
<path d="M114.296 24.1164C110.333 31.0029 107.228 40.1893 114.293 46.2122C119.938 51.0268 129.491 52.9533 135.455 47.8445C140.919 43.166 142.02 34.9476 138.488 28.64C134.362 21.2757 125.965 19.1183 118.524 21.4402C115.746 22.307 116.929 26.8874 119.724 26.0175C124.388 24.5624 129.614 25.0527 133.102 28.9499C136.754 33.0306 137.191 39.4807 133.288 43.5361C129.298 47.6832 122.363 46.3135 118.12 43.264C111.967 38.8417 115.145 31.8096 118.193 26.511C119.7 23.8918 115.797 21.5034 114.296 24.1164Z" fill="#FFA92C"/>
<path d="M125.143 53.6715C125.456 57.4106 125.432 61.1623 124.941 64.8824C124.547 67.8686 128.895 69.1592 129.292 66.1446C129.843 61.9785 130.008 57.8661 129.656 53.6715C129.403 50.6537 124.887 50.6252 125.143 53.6715Z" fill="#FFA92C"/>
<path d="M131.142 53.8105C132.159 57.1573 133.179 60.5041 134.196 63.8509C135.078 66.7486 139.438 65.5085 138.547 62.5888C137.53 59.242 136.51 55.8952 135.493 52.5484C134.615 49.6507 130.255 50.8908 131.142 53.8105Z" fill="#FFA92C"/>
<path d="M138.647 50.157C141.77 52.0803 144.866 54.051 147.938 56.0692C150.408 57.692 152.677 53.5892 150.216 51.9727C147.147 49.9545 144.051 47.9837 140.924 46.0604C138.412 44.5104 136.137 48.6101 138.647 50.157Z" fill="#FFA92C"/>
<path d="M139.856 23.5972C141.493 20.7534 143.651 18.3461 146.289 16.5051C148.699 14.8222 146.44 10.713 144.012 12.4085C140.726 14.7019 138.003 17.6502 135.96 21.2026C134.452 23.8219 138.355 26.2101 139.856 23.5972Z" fill="#FFA92C"/>
<path d="M142.685 29.1936C144.195 28.5071 145.708 27.8175 147.219 27.1278C148.347 26.6154 148.579 24.9009 148.028 23.8823C147.366 22.6613 146.051 22.5252 144.941 23.0313C143.431 23.7209 141.917 24.4074 140.407 25.097C139.278 25.6095 139.047 27.3271 139.597 28.3426C140.259 29.5636 141.571 29.6997 142.685 29.1936Z" fill="#FFA92C"/>
<path d="M144.346 37.7725C147.21 37.6491 150.077 37.5289 152.942 37.4056C155.836 37.2822 155.852 32.5372 152.942 32.6606C150.077 32.7808 147.21 32.9041 144.346 33.0275C141.451 33.1509 141.436 37.899 144.346 37.7725Z" fill="#FFA92C"/>
<path d="M105.082 41.8025C103.407 42.6029 101.929 43.6246 100.479 44.8046C99.507 45.5954 99.7026 47.3257 100.479 48.1608C101.421 49.1731 102.711 48.9422 103.671 48.1608C104.8 47.2403 106.066 46.5191 107.363 45.899C108.48 45.3644 108.732 43.6847 108.173 42.6535C107.52 41.4482 106.187 41.2743 105.082 41.8025Z" fill="#FFA92C"/>
<path d="M105.895 33.2014C103.184 33.2362 100.473 33.271 97.7648 33.3058C94.8642 33.3437 94.8552 38.0887 97.7648 38.0508C100.476 38.016 103.187 37.9812 105.895 37.9464C108.795 37.9084 108.804 33.1634 105.895 33.2014Z" fill="#FFA92C"/>
<path d="M96.5133 24.0812C100.301 25.9507 103.969 28.0353 107.529 30.3414C110.008 31.9484 112.277 27.8455 109.807 26.2449C106.247 23.9357 102.576 21.851 98.791 19.9846C96.1762 18.694 93.8835 22.781 96.5133 24.0812Z" fill="#FFA92C"/>
<path d="M108.203 11.5359C109.816 15.063 111.431 18.5933 113.044 22.1204C114.302 24.8725 118.195 22.4683 116.941 19.7257C115.328 16.1986 113.712 12.6683 112.099 9.14122C110.842 6.39228 106.948 8.79643 108.203 11.5359Z" fill="#FFA92C"/>
<path d="M120.699 8.59692C120.961 11.7223 120.825 14.7939 120.196 17.8655C119.588 20.8422 123.939 22.117 124.547 19.1276C125.257 15.648 125.507 12.1462 125.209 8.60005C124.956 5.57907 120.443 5.55063 120.699 8.59692Z" fill="#FFA92C"/>
<path d="M89.003 42.9442C88.8435 43.4408 88.5547 43.8648 88.1785 44.1779C86.7975 44.1052 85.4254 44.0103 84.0473 43.9375L61.923 36.0292C60.6201 35.5642 59.9461 34.0837 60.3884 32.714C60.8247 31.3664 62.2148 30.6262 63.5177 31.0944L85.642 39.0027C86.7914 39.9391 87.9408 40.8786 89.1143 41.8244C89.1504 42.1819 89.1264 42.5677 89.003 42.9442Z" fill="#FFA92C"/>
<path d="M90.8233 43.8302C90.7481 44.0674 90.6187 44.2319 90.5435 44.311C89.7552 44.2667 88.9698 44.2224 88.1815 44.1781C86.8004 44.1054 85.4284 44.0105 84.0503 43.9377L85.645 39.0029C86.7944 39.9393 87.9438 40.8788 89.1173 41.8246C89.692 42.2928 90.2907 42.7704 90.8654 43.2386C90.8775 43.3525 90.9076 43.5708 90.8233 43.8302Z" fill="#230603"/>
<path d="M64.4883 31.3869L62.8921 36.3228L63.61 36.5794L65.2062 31.6435L64.4883 31.3869Z" fill="#230603"/>
<path d="M65.5508 31.7809L63.9546 36.7168L65.1226 37.1343L66.7188 32.1984L65.5508 31.7809Z" fill="#230603"/>
<path d="M92.436 34.2102C91.9095 34.5898 91.3017 34.7954 90.6879 34.8112C89.3218 33.6218 87.9798 32.4166 86.6138 31.2272L69.6497 5.23089C68.6507 3.69984 69.0389 1.6342 70.4952 0.583973C71.9244 -0.447274 73.8983 -0.0834802 74.8972 1.44441L91.8613 27.4407C92.3578 29.3324 92.8542 31.2272 93.3688 33.1442C93.1461 33.5427 92.8362 33.9192 92.436 34.2102Z" fill="#CC0000"/>
<path d="M93.6576 36.5891C93.4079 36.7694 93.1551 36.8358 93.0197 36.8548C92.2434 36.1747 91.4671 35.4914 90.6878 34.8112C89.3218 33.6218 87.9798 32.4166 86.6138 31.2272L91.8613 27.4438C92.3577 29.3355 92.8542 31.2304 93.3687 33.1474C93.6184 34.0932 93.8832 35.0675 94.13 36.0133C94.0638 36.1398 93.9344 36.3898 93.6576 36.5891Z" fill="#230603"/>
<path d="M75.6201 2.63418L70.3726 6.41895L70.9241 7.26411L76.1716 3.47934L75.6201 2.63418Z" fill="#230603"/>
<path d="M76.4932 3.80535L71.2456 7.59082L72.1411 8.96289L77.3887 5.17742L76.4932 3.80535Z" fill="#230603"/>
<path d="M184.346 35.5513L185.612 42.713L159.769 47.7649C157.248 47.0152 154.702 46.2686 152.181 45.5189C154.281 43.8898 156.402 42.2322 158.502 40.6063L184.346 35.5513Z" fill="#CC0000"/>
<path d="M161.605 39.9956C161.683 40.0494 162.209 40.4195 162.245 41.0174C162.285 41.6848 161.698 42.3997 160.807 42.5231C161.755 42.3396 162.564 42.7034 162.712 43.1811C162.88 43.722 162.294 44.7122 161.075 45.0095C161.806 44.6331 162.649 44.8987 162.998 45.5283C163.265 46.0122 163.214 46.6576 162.868 47.1574C161.833 47.3598 160.801 47.5623 159.766 47.7647C157.245 47.015 154.699 46.2685 152.178 45.5188C154.278 43.8897 156.399 42.2321 158.499 40.6061L161.605 39.9956Z" fill="#230603"/>
<path d="M154.269 45.9492L151.257 46.5375C150.923 46.604 150.598 46.3699 150.535 46.0187L150.48 45.7183C150.417 45.3671 150.64 45.0255 150.974 44.959L153.986 44.3706C154.32 44.3042 154.645 44.5383 154.708 44.8894L154.762 45.19C154.825 45.5443 154.603 45.8859 154.269 45.9492Z" fill="#CC0000"/>
<path d="M171.636 55.8503C169.831 57.3086 169.066 59.564 169.966 61.8511C170.721 63.7776 172.566 65.005 174.537 64.347C176.408 63.7207 177.449 61.6392 177.007 59.6463C176.504 57.3845 174.482 56.1255 172.364 56.1951C170.917 56.2426 170.908 58.6151 172.364 58.5676C173.18 58.5391 173.986 58.7416 174.485 59.4723C175.066 60.3169 174.955 61.5886 173.971 62.0315C173.05 62.4427 172.265 61.6613 171.97 60.763C171.627 59.7127 171.928 58.5834 172.773 57.9001C173.911 56.9828 172.788 54.9203 171.636 55.8503Z" fill="#CC0000"/>
<path d="M173.303 57.2707C173.321 56.211 173.39 55.1608 173.571 54.1137C173.67 53.5411 173.797 52.9749 173.944 52.415C173.995 52.2283 174.049 52.0449 174.101 51.8583C174.137 51.2477 174.242 51.1339 174.417 51.5198C175.1 51.9279 174.883 53.6234 174.745 54.2339C174.516 55.2556 174.013 56.1857 173.541 57.0999C172.849 58.4411 174.796 59.64 175.491 58.2988C176.781 55.7998 178.599 50.7954 175.103 49.1315C171.381 47.3568 171.083 55.088 171.047 57.2739C171.023 58.7986 173.279 58.7986 173.303 57.2707Z" fill="#CC0000"/>
<path d="M172.563 56.4101C171.567 53.6074 169.121 52.7122 166.53 52.089C164.598 51.624 161.758 50.8269 160.413 52.902C159.222 54.7368 160.329 57.0017 161.803 58.2101C164.126 60.1144 167.448 61.0476 170.255 61.7752C171.666 62.1389 172.268 59.8519 170.854 59.4881C168.372 58.8459 164.508 58.0614 162.751 55.9451C161.966 54.9961 162.285 54.0535 163.509 53.9333C164.249 53.8605 165.221 54.2085 165.931 54.3793C167.556 54.7715 169.726 55.1891 170.388 57.0428C170.89 58.46 173.075 57.8463 172.563 56.4101Z" fill="#CC0000"/>
<path d="M170.348 60.5889C166.692 62.5565 162.63 67.3711 165.772 71.7618C166.819 73.2264 168.862 74.1312 170.439 73.0018C171.453 72.2743 171.892 70.9298 172.4 69.8195C173.119 68.2505 173.839 66.6815 174.558 65.1125C175.184 63.7428 173.24 62.5375 172.608 63.9167C171.94 65.375 171.272 66.8302 170.604 68.2885C169.975 69.6582 168.814 72.7487 167.345 69.9777C165.633 66.7416 169.157 63.8914 171.483 62.6388C172.779 61.9428 171.639 59.893 170.348 60.5889Z" fill="#CC0000"/>
<path d="M172.485 64.676C173.367 67.2668 175.012 69.4621 177.362 70.7496C179.092 71.6954 181.71 72.5274 183.525 71.319C185.429 70.0473 185.029 67.6115 183.825 65.9603C182.062 63.5372 179.348 61.946 176.604 61.1109C175.208 60.6839 174.609 62.9741 176.005 63.398C177.498 63.8535 178.858 64.5083 180.103 65.4858C180.94 66.1406 184.229 69.1995 181.12 69.5127C178.274 69.8006 175.503 66.5297 174.66 64.0465C174.176 62.6166 171.994 63.2335 172.485 64.676Z" fill="#CC0000"/>
<path d="M176.411 63.5436C179.276 62.8097 185.847 59.444 183.906 55.2937C183.205 53.7911 181.454 53.2533 179.983 53.5886C177.777 54.0916 175.854 56.0655 174.136 57.5017C172.999 58.4507 174.606 60.1177 175.731 59.1782C176.727 58.3494 177.735 57.5048 178.797 56.7709C179.261 56.4483 179.781 56.0655 180.335 55.9295C180.684 55.8125 181.03 55.8156 181.376 55.9358C181.917 56.094 182.044 56.423 181.755 56.9228C181.701 58.1375 180.016 59.2731 179.125 59.8457C178.084 60.5163 176.992 60.9528 175.809 61.2565C174.401 61.6203 175 63.9074 176.411 63.5436Z" fill="#CC0000"/>
</svg>
