<svg width="175" height="204" viewBox="0 0 175 204" fill="none" xmlns="http://www.w3.org/2000/svg">
<path d="M15.2791 113.079L15.4505 113.225C24.0469 120.503 34.8218 123.012 44.9106 121.089C45.3679 120.997 45.8042 120.886 46.2645 120.791C54.0636 118.966 61.3361 114.477 66.7491 107.41C67.059 107.006 67.3689 106.604 67.6337 106.164C67.9256 105.781 68.2144 105.361 68.4642 104.943C75.9202 93.5108 76.7206 79.0638 71.4219 67.1096C71.2233 66.6825 71.0217 66.2523 70.8231 65.8253C68.5544 61.1688 65.353 56.9426 61.2368 53.4566C59.4465 51.9382 57.5599 50.6381 55.5951 49.5278C55.1799 49.2874 54.7888 49.0659 54.3555 48.8477C49.1321 46.162 43.4513 44.903 37.8307 44.9852C37.3643 44.9979 36.8979 45.0074 36.4526 45.039C26.454 45.5578 16.7083 50.4293 9.92021 59.2898C9.59525 59.7169 9.26727 60.1408 8.98444 60.6058C8.69257 60.9885 8.40372 61.4093 8.15398 61.8268C1.7962 71.6395 0.321838 83.6665 3.39391 94.4376C3.53834 94.8931 3.66472 95.3708 3.84826 95.82C5.84014 101.944 9.32144 107.591 14.2259 112.114C14.572 112.443 14.918 112.772 15.2791 113.079Z" fill="#CC0000"/>
<path d="M48.3288 85.8238C55.4178 91.9006 61.8839 98.7049 67.6339 106.164C67.9258 105.781 68.2146 105.361 68.4644 104.943C62.6331 97.4522 56.146 90.6321 48.9968 84.5395C48.6508 84.2105 48.3108 83.9195 47.9467 83.6126C46.0481 82.0057 44.0983 80.4651 42.0914 78.9499C41.9891 78.8993 41.926 78.8455 41.8387 78.7727L40.9541 78.1369C38.9321 76.647 36.8951 75.2171 34.8069 73.8569C34.4097 73.5944 34.0336 73.3508 33.6364 73.0882C25.8374 68.0743 17.578 63.8892 8.9816 60.6025C8.68974 60.9853 8.40088 61.406 8.15114 61.8236C16.8228 65.1008 25.1423 69.2985 32.9865 74.3504C33.3837 74.6129 33.7598 74.8565 34.157 75.1191C36.2241 76.4603 38.237 77.8712 40.2229 79.3674C40.5358 79.5572 40.7495 79.7375 41.0203 79.9337C41.1256 80.0254 41.252 80.0918 41.3573 80.1836C43.3642 81.6957 45.335 83.2552 47.2547 84.8811C47.6217 85.188 47.9828 85.4948 48.3288 85.8238Z" fill="white"/>
<path d="M3.8485 95.8201C15.4658 93.2357 25.3048 87.3677 31.3377 79.4973C32.4028 78.1055 33.3446 76.6472 34.163 75.1224C34.3947 74.727 34.6234 74.2905 34.8129 73.8603C35.0115 73.5091 35.2041 73.1201 35.3606 72.7341C38.9592 64.3197 38.9261 54.8613 38.9231 54.4532C38.89 51.2836 38.5289 48.1297 37.8369 44.9917C37.3705 45.0044 36.9041 45.0138 36.4588 45.0455C37.1478 48.1424 37.5119 51.3373 37.542 54.4659C37.5511 54.5481 37.6052 64.0223 34.0939 72.1426C33.9524 72.4652 33.811 72.7879 33.6455 73.0947C33.4559 73.525 33.2453 73.9394 32.9956 74.3569C27.7842 84.1411 16.7927 91.5117 3.40013 94.4409C3.53854 94.8933 3.66496 95.3678 3.8485 95.8201Z" fill="white"/>
<path d="M44.9105 121.089C45.3679 120.997 45.8041 120.886 46.2645 120.792C42.9156 107.901 43.6407 95.2033 48.3286 85.8241C48.5181 85.3938 48.7469 84.9573 48.9966 84.5397C49.8361 83.0308 50.7628 81.6358 51.7979 80.3325C57.1718 73.6421 65.1363 69.6246 65.4703 69.4665C67.399 68.5111 69.4028 67.7298 71.4248 67.1129C71.2262 66.6859 71.0247 66.2557 70.8261 65.8286C68.7831 66.4296 66.8182 67.2047 64.9076 68.1378C63.9989 68.5902 56.2269 72.5823 50.7507 79.4088C49.7157 80.7153 48.7889 82.1103 47.9494 83.616C47.6997 84.0336 47.4892 84.448 47.2605 84.8814C42.35 94.5896 41.4804 107.755 44.9105 121.089Z" fill="white"/>
<path d="M15.2792 113.079C20.969 107.581 26.2284 101.681 31.0036 95.4465C34.7316 90.5813 38.1828 85.4788 41.3602 80.1834C41.5919 79.788 41.8416 79.3704 42.0913 78.9529C42.9849 77.4187 43.8605 75.8655 44.7121 74.2933C48.9877 66.4166 52.6375 58.1192 55.5952 49.5307C55.18 49.2903 54.7889 49.0689 54.3556 48.8506C51.434 57.3947 47.7871 65.7333 43.5295 73.5879C42.6961 75.1379 41.8567 76.6436 40.957 78.1399C40.7073 78.5575 40.4755 78.9529 40.2258 79.3704C33.0436 91.4069 24.3299 102.368 14.226 112.114C14.572 112.443 14.9181 112.772 15.2792 113.079Z" fill="white"/>
<path d="M5.25021 127.931H160.915V199.919H5.25021V127.931Z" fill="#BFD3D8"/>
<path d="M62.765 200.314C62.9726 200.314 63.1411 200.137 63.1411 199.919V127.931C63.1411 127.712 62.9726 127.535 62.765 127.535C62.5574 127.535 62.3889 127.712 62.3889 127.931V199.922C62.3889 200.137 62.5604 200.314 62.765 200.314Z" fill="#230603"/>
<path d="M-0.00038147 121.689H165.537V136.567H-0.00038147V121.689Z" fill="#BFD3D8"/>
<path d="M5.24712 136.962H160.912C161.12 136.962 161.288 136.785 161.288 136.567C161.288 136.349 161.12 136.171 160.912 136.171H5.24712C5.03951 136.171 4.871 136.349 4.871 136.567C4.871 136.785 5.03951 136.962 5.24712 136.962Z" fill="#230603"/>
<path d="M103.851 149.046C107.203 150.312 112.55 151.855 119.23 151.805C125.594 151.757 130.7 150.286 133.979 149.046C133.979 147.287 133.979 145.525 133.979 143.767H103.851V149.046Z" fill="#230603"/>
<path d="M15.2907 149.046C17.8572 150.312 21.9463 151.855 27.0584 151.805C31.9267 151.757 35.8353 150.286 38.3447 149.046C38.3447 147.287 38.3447 145.525 38.3447 143.767H15.2907V149.046Z" fill="#230603"/>
<path d="M113.095 156.42H174.266V202.981H113.095V156.42Z" fill="#CC0000"/>
<path d="M131.127 203.373C131.335 203.373 131.503 203.196 131.503 202.978V156.42C131.503 156.202 131.335 156.024 131.127 156.024C130.92 156.024 130.751 156.202 130.751 156.42V202.978C130.751 203.196 130.92 203.373 131.127 203.373Z" fill="#230603"/>
<path d="M137.467 195.139H144.246L146.942 187.769H159.281L161.83 195.139H168.44L156.417 162.687H149.827L137.467 195.139ZM148.943 182.299L153.197 170.256L157.365 182.299H148.943Z" fill="#FFA92C"/>
<path d="M19.7231 171.857H61.0713V203.329H19.7231V171.857Z" fill="#938000"/>
<path d="M31.912 203.724C32.1196 203.724 32.2881 203.547 32.2881 203.329V171.857C32.2881 171.639 32.1196 171.461 31.912 171.461C31.7044 171.461 31.5359 171.639 31.5359 171.857V203.329C31.5359 203.547 31.7044 203.724 31.912 203.724Z" fill="#230603"/>
<path d="M54.9961 176.096H46.6554C45.0036 176.096 43.7729 176.168 42.9605 176.314C42.1481 176.456 41.423 176.76 40.7821 177.219C40.1412 177.677 39.6087 178.288 39.1814 179.05C38.7542 179.813 38.5405 180.67 38.5405 181.619C38.5405 182.647 38.8023 183.59 39.3318 184.447C39.8584 185.304 40.5715 185.949 41.4742 186.377C40.2014 186.766 39.2265 187.43 38.5405 188.366C37.8575 189.303 37.5175 190.407 37.5175 191.675C37.5175 192.672 37.7371 193.643 38.1794 194.585C38.6187 195.528 39.2235 196.281 39.9877 196.844C40.752 197.407 41.6938 197.755 42.8131 197.885C43.5141 197.964 45.2082 198.014 47.8952 198.033H54.9961V176.096ZM50.7837 179.746V184.82H48.0215C46.3817 184.82 45.3586 184.795 44.9615 184.744C44.2393 184.656 43.6737 184.393 43.2614 183.96C42.8492 183.526 42.6416 182.954 42.6416 182.245C42.6416 181.568 42.8192 181.015 43.1742 180.591C43.5323 180.167 44.0588 179.911 44.7629 179.819C45.1811 179.768 46.3817 179.746 48.3615 179.746H50.7837ZM50.7837 188.471V194.336H46.8842C45.3677 194.336 44.4018 194.291 43.9926 194.203C43.3668 194.082 42.8582 193.791 42.464 193.326C42.0699 192.865 41.8744 192.241 41.8744 191.463C41.8744 190.805 42.0248 190.245 42.3287 189.787C42.6326 189.328 43.0719 188.993 43.6466 188.784C44.2213 188.575 45.4669 188.471 47.3836 188.471H50.7837Z" fill="white"/>
<path d="M82.7652 202.392H107.471C106.677 198.562 105.883 194.734 105.115 190.932C104.869 189.809 104.649 188.686 104.402 187.591C104.074 185.949 103.743 184.308 103.388 182.666C103.168 181.543 102.922 180.42 102.702 179.297C102.428 177.914 102.127 176.532 101.854 175.178C101.634 174.055 101.387 172.932 101.168 171.838C100.84 170.31 100.539 168.785 100.208 167.289C99.9881 166.166 99.7684 165.043 99.5217 163.92C98.6732 159.801 97.8247 155.683 96.9731 151.567C97.0002 151.02 96.7806 150.618 96.5609 150.586C96.3684 150.586 96.0405 150.96 95.9863 151.567C94.9181 155.686 93.85 159.804 92.7818 163.92C92.4809 165.043 92.18 166.166 91.9062 167.289C91.494 168.785 91.1119 170.313 90.7027 171.838C90.4289 172.932 90.1279 174.055 89.8541 175.178C89.4991 176.532 89.1411 177.914 88.7589 179.297C88.4851 180.42 88.1842 181.543 87.8833 182.666C87.4711 184.308 87.0349 185.949 86.6226 187.591C86.3218 188.686 86.0208 189.809 85.747 190.932C84.7661 194.734 83.7521 198.565 82.7652 202.392Z" fill="#FFA92C"/>
<path d="M91.9153 167.292H100.214C99.9942 166.169 99.7746 165.046 99.5279 163.923H92.7909C92.49 165.046 92.1891 166.169 91.9153 167.292Z" fill="white"/>
<path d="M89.86 175.181H101.856C101.637 174.058 101.39 172.935 101.17 171.841H90.7086C90.4347 172.935 90.1338 174.058 89.86 175.181Z" fill="white"/>
<path d="M87.8893 182.669H103.391C103.171 181.546 102.925 180.423 102.705 179.3H88.7619C88.4911 180.423 88.1902 181.546 87.8893 182.669Z" fill="white"/>
<path d="M85.753 190.932H105.118C104.871 189.809 104.652 188.686 104.405 187.591H86.6286C86.3277 188.686 86.0268 189.809 85.753 190.932Z" fill="white"/>
<path d="M148.476 18.6438C148.476 21.5225 151.118 23.857 154.377 23.857C157.636 23.857 160.277 21.5225 160.277 18.6438C160.277 15.7652 157.636 13.4307 154.377 13.4307C151.115 13.4307 148.476 15.762 148.476 18.6438Z" fill="#EBBEAA"/>
<path d="M140.063 21.1238C140.063 24.0025 142.705 26.337 145.964 26.337C149.222 26.337 151.864 24.0025 151.864 21.1238C151.864 18.2452 149.222 15.9106 145.964 15.9106C142.702 15.9106 140.063 18.2452 140.063 21.1238Z" fill="#EBBEAA"/>
<path d="M132.984 26.3372C132.984 29.2158 135.626 31.5504 138.884 31.5504C142.143 31.5504 144.785 29.2158 144.785 26.3372C144.785 23.4586 142.143 21.124 138.884 21.124C135.626 21.124 132.984 23.4586 132.984 26.3372Z" fill="#EBBEAA"/>
<path d="M130.315 34.0301C130.315 36.9087 132.957 39.2432 136.215 39.2432C139.474 39.2432 142.116 36.9087 142.116 34.0301C142.116 31.1514 139.474 28.8169 136.215 28.8169C132.957 28.8169 130.315 31.1514 130.315 34.0301Z" fill="#EBBEAA"/>
<path d="M132.984 47.335C129.725 47.335 127.083 45.001 127.083 42.1219C127.083 39.2427 129.725 36.9087 132.984 36.9087C136.243 36.9087 138.884 39.2427 138.884 42.1219C138.884 45.001 136.243 47.335 132.984 47.335Z" fill="#EBBEAA"/>
<path d="M127.853 53.8072C124.595 53.8072 121.953 51.4732 121.953 48.594C121.953 45.7149 124.595 43.3809 127.853 43.3809C131.112 43.3809 133.754 45.7149 133.754 48.594C133.754 51.4732 131.112 53.8072 127.853 53.8072Z" fill="#EBBEAA"/>
<path d="M115.286 55.389C115.286 58.2676 117.927 60.6021 121.186 60.6021C124.445 60.6021 127.086 58.2676 127.086 55.389C127.086 52.5103 124.445 50.1758 121.186 50.1758C117.927 50.1758 115.286 52.5103 115.286 55.389Z" fill="#EBBEAA"/>
<path d="M106.12 59.0208C106.12 61.8994 108.762 64.234 112.021 64.234C115.28 64.234 117.921 61.8994 117.921 59.0208C117.921 56.1422 115.28 53.8076 112.021 53.8076C108.762 53.8076 106.12 56.139 106.12 59.0208Z" fill="#EBBEAA"/>
<path d="M97.7739 60.6023C97.7739 63.481 100.416 65.8155 103.674 65.8155C106.933 65.8155 109.575 63.481 109.575 60.6023C109.575 57.7237 106.933 55.3892 103.674 55.3892C100.416 55.3892 97.7739 57.7205 97.7739 60.6023Z" fill="#EBBEAA"/>
<path d="M88.6087 59.9192C88.6087 62.7979 91.2505 65.1324 94.5091 65.1324C97.7678 65.1324 100.41 62.7979 100.41 59.9192C100.41 57.0406 97.7678 54.7061 94.5091 54.7061C91.2505 54.7061 88.6087 57.0406 88.6087 59.9192Z" fill="#EBBEAA"/>
<path d="M80.5566 59.0208C80.5566 61.8994 83.1984 64.234 86.457 64.234C89.7156 64.234 92.3574 61.8994 92.3574 59.0208C92.3574 56.1422 89.7156 53.8076 86.457 53.8076C83.1954 53.8076 80.5566 56.139 80.5566 59.0208Z" fill="#EBBEAA"/>
<path d="M72.6342 58.0145C72.6342 60.8931 75.276 63.2276 78.5346 63.2276C81.7933 63.2276 84.4351 60.8931 84.4351 58.0145C84.4351 55.1358 81.7933 52.8013 78.5346 52.8013C75.276 52.8013 72.6342 55.1327 72.6342 58.0145Z" fill="#EBBEAA"/>
<path d="M66.7338 60.6023C66.7338 63.481 69.3756 65.8155 72.6342 65.8155C75.8929 65.8155 78.5347 63.481 78.5347 60.6023C78.5347 57.7237 75.8929 55.3892 72.6342 55.3892C69.3756 55.3892 66.7338 57.7205 66.7338 60.6023Z" fill="#EBBEAA"/>
<path d="M61.3481 67.2547C61.3481 70.1333 63.9899 72.4679 67.2485 72.4679C70.5071 72.4679 73.1489 70.1333 73.1489 67.2547C73.1489 64.376 70.5071 62.0415 67.2485 62.0415C63.9899 62.0415 61.3481 64.376 61.3481 67.2547Z" fill="#EBBEAA"/>
<path d="M57.5507 76.0613C57.5507 78.9399 60.1925 81.2745 63.4511 81.2745C66.7098 81.2745 69.3516 78.9399 69.3516 76.0613C69.3516 73.1827 66.7098 70.8481 63.4511 70.8481C60.1925 70.8481 57.5507 73.1827 57.5507 76.0613Z" fill="#EBBEAA"/>
<path d="M59.4765 88.5533C56.2178 88.5533 53.5761 86.2193 53.5761 83.3401C53.5761 80.461 56.2178 78.127 59.4765 78.127C62.7352 78.127 65.377 80.461 65.377 83.3401C65.377 86.2193 62.7352 88.5533 59.4765 88.5533Z" fill="#EBBEAA"/>
<path d="M47.6786 89.8123C47.6786 92.6909 50.3204 95.0255 53.5791 95.0255C56.8377 95.0255 59.4795 92.6909 59.4795 89.8123C59.4795 86.9337 56.8377 84.5991 53.5791 84.5991C50.3174 84.5991 47.6786 86.9337 47.6786 89.8123Z" fill="#EBBEAA"/>
<path d="M41.2485 95.0257C41.2485 97.9043 43.8903 100.239 47.1489 100.239C50.4075 100.239 53.0493 97.9043 53.0493 95.0257C53.0493 92.147 50.4075 89.8125 47.1489 89.8125C43.8903 89.8125 41.2485 92.147 41.2485 95.0257Z" fill="#EBBEAA"/>
<path d="M32.2192 100.239C32.2192 103.118 34.861 105.452 38.1196 105.452C41.3782 105.452 44.02 103.118 44.02 100.239C44.02 97.3604 41.3782 95.0259 38.1196 95.0259C34.861 95.0259 32.2192 97.3604 32.2192 100.239Z" fill="#EBBEAA"/>
<path d="M24.4227 104.161C24.4227 107.04 27.0646 109.375 30.3232 109.375C33.5818 109.375 36.2236 107.04 36.2236 104.161C36.2236 101.283 33.5818 98.9482 30.3232 98.9482C27.0616 98.9482 24.4227 101.28 24.4227 104.161Z" fill="#EBBEAA"/>
<path d="M15.3935 106.749C15.3935 109.627 18.0353 111.962 21.2939 111.962C24.5525 111.962 27.1943 109.627 27.1943 106.749C27.1943 103.87 24.5525 101.536 21.2939 101.536C18.0353 101.536 15.3935 103.87 15.3935 106.749Z" fill="#EBBEAA"/>
<path d="M7.32366 108.331C7.32366 111.209 9.96546 113.544 13.2241 113.544C16.4827 113.544 19.1245 111.209 19.1245 108.331C19.1245 105.452 16.4827 103.118 13.2241 103.118C9.96546 103.118 7.32366 105.452 7.32366 108.331Z" fill="#EBBEAA"/>
<path d="M6.24037 113.465C6.46904 115.293 13.9552 115.673 16.3533 115.742C26.1713 116.122 41.5347 115.328 61.2008 108.596C64.3511 107.527 67.6698 106.284 71.0488 104.87C72.2313 105.455 74.3315 106.493 77.187 107.492C84.8687 110.254 97.9032 113.152 112.743 108.562C115.598 107.698 131.194 102.554 142.29 87.3673C144.851 83.8465 147.183 79.7722 149.054 75.1126C150.532 71.4178 151.549 67.7958 152.208 64.3098C152.963 60.3746 153.258 56.6134 153.291 53.2286C153.324 48.6734 152.864 44.6687 152.307 41.5275C152.175 40.7683 152.045 40.0439 151.88 39.3859C151.747 38.6963 151.585 38.0731 151.452 37.5227C151.29 36.8331 151.124 36.2447 150.992 35.7639C148.597 34.9003 146.166 34.0367 143.771 33.1763C142.161 32.6258 140.554 32.0375 138.944 31.4839C138.845 31.7243 138.716 32.0027 138.583 32.2431C133.495 43.4255 126.271 53.1938 115.668 57.923C98.5952 65.5498 86.0541 54.127 71.3467 63.4114C64.354 67.8306 63.5327 72.7306 60.7104 78.9782C59.5941 81.4646 58.1497 84.1566 55.8509 87.1238C54.9001 88.367 53.7839 89.6766 52.469 91.0241C33.7868 110.463 5.78302 109.878 6.24037 113.465Z" fill="#FFA92C"/>
<path d="M115.303 96.9141H129.153V121.832H115.303V96.9141Z" fill="#FFA92C"/>
<path d="M78.5045 96.9141H92.3545V121.832H78.5045V96.9141Z" fill="#FFA92C"/>
<path d="M116.73 120.832C116.964 120.816 117.121 120.626 117.103 120.408C117.064 119.816 117.262 119.244 117.653 118.829C117.993 118.472 118.4 118.282 118.842 118.311C119.6 118.364 120.262 119.124 120.346 120.038C120.364 120.231 120.512 120.379 120.695 120.392C120.858 120.421 121.044 120.278 121.086 120.088C121.153 119.794 121.27 119.522 121.436 119.282C121.592 119.054 122.01 118.519 122.507 118.469C123.069 118.412 123.767 118.959 124.071 119.968C124.122 120.133 124.267 120.243 124.429 120.243C124.604 120.24 124.748 120.12 124.793 119.952C125.022 119.076 125.834 118.488 126.614 118.655C127.222 118.782 127.706 119.345 127.82 120.057C127.853 120.272 128.052 120.421 128.251 120.383C128.455 120.348 128.594 120.142 128.561 119.927C128.395 118.893 127.673 118.07 126.758 117.88C125.865 117.703 124.959 118.13 124.432 118.921C123.945 118.102 123.178 117.605 122.431 117.684C121.658 117.763 121.092 118.431 120.822 118.82C120.391 118.111 119.684 117.577 118.887 117.52C118.222 117.457 117.605 117.748 117.115 118.266C116.57 118.842 116.293 119.639 116.35 120.459C116.369 120.674 116.534 120.832 116.73 120.832Z" fill="#230603"/>
<path d="M79.6992 120.832C79.9339 120.816 80.0904 120.626 80.0753 120.408C80.0362 119.816 80.2348 119.244 80.626 118.829C80.963 118.472 81.3782 118.282 81.8145 118.311C82.5727 118.364 83.2346 119.124 83.3189 120.038C83.3369 120.231 83.4844 120.379 83.6679 120.392C83.8274 120.446 84.017 120.278 84.0591 120.092C84.1283 119.791 84.2456 119.519 84.4081 119.282C84.5646 119.054 84.9829 118.519 85.4793 118.469C86.033 118.412 86.74 118.959 87.0439 119.968C87.0951 120.133 87.2395 120.243 87.4019 120.243C87.5765 120.24 87.7209 120.12 87.766 119.952C87.9947 119.076 88.8071 118.488 89.5864 118.655C90.1942 118.782 90.6787 119.345 90.793 120.057C90.8261 120.272 91.0217 120.421 91.2233 120.383C91.4279 120.348 91.5663 120.142 91.5332 119.927C91.3677 118.893 90.6456 118.07 89.7309 117.88C88.8372 117.703 87.9315 118.13 87.405 118.921C86.9175 118.102 86.1533 117.605 85.4041 117.684C84.6308 117.763 84.0652 118.431 83.7944 118.82C83.3641 118.111 82.657 117.577 81.8596 117.52C81.2037 117.457 80.5808 117.748 80.0873 118.266C79.5427 118.842 79.2659 119.639 79.3231 120.459C79.3381 120.674 79.5036 120.832 79.6992 120.832Z" fill="#230603"/>
<path d="M137.434 29.2472C137.434 30.3164 137.828 31.3192 138.583 32.2492C139.666 33.6632 141.505 34.9064 143.903 35.8396C146.069 36.6684 148.63 37.2536 151.455 37.532C152.505 37.6364 153.589 37.6712 154.672 37.6712C155.228 37.6712 155.755 37.6712 156.315 37.6364C165.046 37.222 171.91 33.6316 171.91 29.2504C171.91 24.5908 164.195 20.8296 154.675 20.8296C145.149 20.8233 137.434 24.5876 137.434 29.2472Z" fill="#FFA92C"/>
<path d="M158.631 26.337C158.631 27.7067 159.365 28.817 160.274 28.817C161.18 28.817 161.917 27.7067 161.917 26.337C161.917 24.9673 161.183 23.8569 160.274 23.8569C159.368 23.8569 158.631 24.9673 158.631 26.337Z" fill="#230603"/>
<path d="M132.969 76.052C132.969 81.1608 136.811 85.5104 142.293 87.3736C144.854 83.8528 147.186 79.7784 149.057 75.1188C150.534 71.424 151.552 67.802 152.21 64.316C150.899 64.006 149.517 63.832 148.106 63.832C139.766 63.832 132.969 69.3204 132.969 76.052Z" fill="#FFA92C"/>
<path d="M107.402 70.902C107.402 75.0238 112.111 78.3611 117.918 78.3611C123.725 78.3611 128.434 75.0207 128.434 70.902C128.434 66.7802 123.725 63.4429 117.918 63.4429C112.111 63.4429 107.402 66.7833 107.402 70.902Z" fill="#FFA92C"/>
<path d="M59.8888 105.284C59.8888 106.493 60.3823 107.632 61.2007 108.6C64.351 107.53 67.6698 106.287 71.0488 104.873C72.2312 105.458 74.3315 106.496 77.1869 107.496C77.548 106.806 77.7466 106.082 77.7466 105.288C77.7466 101.802 73.7749 98.9355 68.8162 98.9355C63.8937 98.9355 59.8888 101.798 59.8888 105.284Z" fill="#FFA92C"/>
<path d="M70.811 75.5806C70.811 78.0164 73.5941 79.9903 77.0273 79.9903C80.4604 79.9903 83.2437 78.0164 83.2437 75.5806C83.2437 73.1448 80.4604 71.1709 77.0273 71.1709C73.5911 71.1709 70.811 73.1448 70.811 75.5806Z" fill="#FFA92C"/>
<path d="M55.8478 87.1298C57.1597 89.167 60.0844 90.581 63.4634 90.581C68.091 90.581 71.8672 87.889 71.8672 84.6086C71.8672 81.2934 68.091 78.6362 63.4634 78.6362C62.4795 78.6362 61.5588 78.7406 60.7042 78.981C59.5909 81.4706 58.1466 84.1626 55.8478 87.1298Z" fill="#FFA92C"/>
<path d="M145.97 47.3321C145.97 50.3689 149.154 52.8901 153.291 53.2349C153.324 48.6797 152.864 44.6749 152.307 41.5337C148.663 42.1885 145.97 44.5357 145.97 47.3321Z" fill="#FFA92C"/>
<path d="M143.575 34.3563C143.575 34.8751 143.674 35.356 143.903 35.8399C144.79 37.9467 147.513 39.4651 150.799 39.4651C151.16 39.4651 151.521 39.4303 151.882 39.3955C151.75 38.7059 151.587 38.0827 151.455 37.5323C152.505 37.6367 153.588 37.6715 154.671 37.6715C155.228 37.6715 155.755 37.6715 156.314 37.6367C157.331 36.7383 157.987 35.5995 157.987 34.3563C157.987 31.5252 154.771 29.2476 150.799 29.2476C147.351 29.2476 144.495 30.9051 143.773 33.1827C143.638 33.5623 143.575 33.942 143.575 34.3563Z" fill="#FFA92C"/>
<path d="M126.223 89.8126C122.065 89.8126 118.695 88.1429 118.695 86.0831C118.695 84.0233 122.065 82.3535 126.223 82.3535C130.38 82.3535 133.751 84.0233 133.751 86.0831C133.751 88.1429 130.38 89.8126 126.223 89.8126Z" fill="#FFA92C"/>
<path d="M151.452 37.9244C151.633 37.9244 151.792 37.7884 151.825 37.5922C151.858 37.3771 151.72 37.1747 151.512 37.1367C150.315 36.9311 149.135 36.5958 148.013 36.1403C146.758 35.6341 145.558 34.9762 144.444 34.1853C144.27 34.0588 144.038 34.1126 143.924 34.2929C143.807 34.4732 143.855 34.7199 144.026 34.8401C145.188 35.6658 146.439 36.3522 147.745 36.8773C148.919 37.3518 150.146 37.6998 151.395 37.9181C151.413 37.9244 151.434 37.9244 151.452 37.9244Z" fill="#230603"/>
<path d="M165.57 33.2268C167.793 33.2109 169.346 32.0373 170.08 31.3382C170.234 31.1927 170.246 30.9428 170.107 30.7783C169.966 30.6202 169.728 30.6075 169.575 30.7499C168.922 31.373 167.541 32.4201 165.615 32.4328C164.766 32.4707 163.939 32.2493 163.151 31.8602C162.964 31.7653 162.738 31.8539 162.651 32.0532C162.564 32.2525 162.645 32.4865 162.835 32.5783C163.71 33.0117 164.628 33.2268 165.57 33.2268Z" fill="#230603"/>
<path d="M169.749 29.6426C170.264 29.6426 170.667 29.0985 170.667 28.3994C170.667 27.7003 170.264 27.1562 169.749 27.1562C169.235 27.1562 168.832 27.7003 168.832 28.3994C168.832 29.0985 169.235 29.6426 169.749 29.6426ZM169.752 27.9502C169.788 27.9566 169.918 28.1116 169.918 28.4026C169.918 28.6905 169.791 28.8455 169.752 28.855C169.713 28.8455 169.587 28.6936 169.587 28.4026C169.584 28.1116 169.71 27.9566 169.752 27.9502Z" fill="#230603"/>
<path d="M149.159 95.478C153.077 104.263 156.994 113.047 160.915 121.832H136.047C139.943 113.047 143.843 104.266 147.739 95.4812C148.019 94.8453 148.876 94.8453 149.159 95.478Z" fill="#938000"/>
<path d="M83.3763 2.63119L82.3201 12.9437C82.2208 13.9085 81.6792 14.7563 80.8668 15.2181L72.1892 20.1497C70.1462 21.3107 70.2575 24.4266 72.3758 25.4262L81.3754 29.6682C82.2148 30.0636 82.8166 30.8703 82.9851 31.8224L84.7634 42.0242C85.1816 44.422 88.0341 45.2761 89.5927 43.4698L96.2122 35.7798C96.832 35.0617 97.7468 34.7106 98.6585 34.8371L108.434 36.2131C110.733 36.5358 112.388 33.9482 111.233 31.8319L106.322 22.8354C105.865 21.994 105.829 20.9722 106.226 20.0991L110.489 10.7483C111.491 8.54979 109.662 6.09504 107.39 6.59485L97.7347 8.72378C96.8321 8.92307 95.8963 8.64152 95.2283 7.97406L88.0852 0.818604C86.4123 -0.867453 83.626 0.204917 83.3763 2.63119Z" fill="#FFA92C"/>
<path d="M91.8854 30.2757C92.6316 30.2757 93.4229 30.184 94.2534 29.9657C98.8419 28.751 100.726 24.5881 101.057 23.7656C101.138 23.5663 101.047 23.3322 100.858 23.2468C100.662 23.1614 100.446 23.2595 100.364 23.4556C100.058 24.218 98.3154 28.0741 94.0698 29.197C90.399 30.1714 87.4533 28.3904 86.6409 27.8178C86.4694 27.6945 86.2347 27.7451 86.1203 27.9285C86.006 28.112 86.0512 28.3556 86.2257 28.4758C86.9147 28.9661 89.0511 30.2757 91.8854 30.2757Z" fill="#230603"/>
<path d="M95.7792 17.5021C96.1974 18.7041 96.9857 19.5045 97.5424 19.2925C98.096 19.0774 98.2073 17.9323 97.7891 16.7302C97.3709 15.5282 96.5825 14.7278 96.0259 14.9398C95.4692 15.1517 95.3609 16.3 95.7792 17.5021Z" fill="#230603"/>
<path d="M86.5716 20.9088C86.9899 22.1109 87.7782 22.9112 88.3348 22.6993C88.8885 22.4842 88.9998 21.339 88.5816 20.137C88.1633 18.9349 87.3749 18.1346 86.8183 18.3465C86.2646 18.5585 86.1534 19.7067 86.5716 20.9088Z" fill="#230603"/>
</svg>
