<svg width="512" height="512" viewBox="0 0 512 512" fill="none" xmlns="http://www.w3.org/2000/svg">
<path d="M354.133 298.667C349.867 296.533 322.133 283.733 317.867 281.6C313.6 279.467 309.333 279.467 305.067 283.733C300.8 288 292.267 300.8 288 305.067C285.867 309.333 281.6 309.333 277.333 307.2C262.4 300.8 247.467 292.267 234.667 281.6C224 270.933 213.333 258.133 204.8 245.333C202.667 241.067 204.8 236.8 206.933 234.667C209.067 232.533 211.2 228.267 215.467 226.133C217.6 224 219.733 219.733 219.733 217.6C221.867 215.467 221.867 211.2 219.733 209.067C217.6 206.933 206.933 181.333 202.667 170.667C200.533 155.733 196.267 155.733 192 155.733H181.333C177.067 155.733 170.667 160 168.533 162.133C155.733 174.933 149.333 189.867 149.333 206.933C151.467 226.133 157.867 245.333 170.667 262.4C194.133 296.533 224 324.267 260.267 341.333C270.933 345.6 279.467 349.867 290.133 352C300.8 356.267 311.467 356.267 324.267 354.133C339.2 352 352 341.333 360.533 328.533C364.8 320 364.8 311.467 362.667 302.933L354.133 298.667ZM407.467 104.533C324.267 21.3333 189.867 21.3333 106.667 104.533C38.4001 172.8 25.6001 277.333 72.5334 360.533L42.6667 469.333L155.733 439.467C187.733 456.533 221.867 465.067 256 465.067C373.333 465.067 467.2 371.2 467.2 253.867C469.333 198.4 445.867 145.067 407.467 104.533ZM349.867 403.2C322.133 420.267 290.133 430.933 256 430.933C224 430.933 194.133 422.4 166.4 407.467L160 403.2L93.8668 420.267L110.933 356.267L106.667 349.867C55.4667 264.533 81.0667 157.867 164.267 104.533C247.467 51.2 354.133 78.9333 405.333 160C456.533 243.2 433.067 352 349.867 403.2Z" fill="white"/>
</svg>
